<mxfile host="app.diagrams.net" modified="2022-04-06T05:50:54.700Z" agent="5.0 (Windows)" etag="1M5MUrHVmLqGYfl0vRX0" version="17.2.6" type="github">
  <diagram id="oauP74nbYtIxAhzUhGaQ" name="Page-2">
    <mxGraphModel dx="1094" dy="578" grid="1" gridSize="10" guides="1" tooltips="1" connect="1" arrows="1" fold="1" page="0" pageScale="1" pageWidth="1654" pageHeight="1169" math="0" shadow="0">
      <root>
        <mxCell id="0" />
        <mxCell id="1" parent="0" />
        <mxCell id="-7yChWT8dKWjbDVSSNWg-17" value="" style="rounded=1;whiteSpace=wrap;html=1;fontSize=20;fillColor=#e1d5e7;strokeColor=#9673a6;" vertex="1" parent="1">
          <mxGeometry x="1010" y="190" width="230" height="390" as="geometry" />
        </mxCell>
        <mxCell id="yoqmSqxD06JZfrdyBwhe-46" value="" style="rounded=0;whiteSpace=wrap;html=1;fontSize=20;fillColor=#dae8fc;strokeColor=#6c8ebf;" parent="1" vertex="1">
          <mxGeometry x="494" y="190" width="190" height="390" as="geometry" />
        </mxCell>
        <mxCell id="yoqmSqxD06JZfrdyBwhe-22" value="" style="rounded=0;whiteSpace=wrap;html=1;fillColor=#f5f5f5;fontColor=#333333;strokeColor=#666666;" parent="1" vertex="1">
          <mxGeometry x="110" y="190" width="360" height="390" as="geometry" />
        </mxCell>
        <mxCell id="yoqmSqxD06JZfrdyBwhe-13" style="edgeStyle=orthogonalEdgeStyle;rounded=0;orthogonalLoop=1;jettySize=auto;html=1;entryX=0;entryY=0.5;entryDx=0;entryDy=0;" parent="1" source="yoqmSqxD06JZfrdyBwhe-1" target="yoqmSqxD06JZfrdyBwhe-11" edge="1">
          <mxGeometry relative="1" as="geometry" />
        </mxCell>
        <mxCell id="yoqmSqxD06JZfrdyBwhe-18" style="edgeStyle=orthogonalEdgeStyle;rounded=0;orthogonalLoop=1;jettySize=auto;html=1;" parent="1" source="yoqmSqxD06JZfrdyBwhe-1" target="yoqmSqxD06JZfrdyBwhe-15" edge="1">
          <mxGeometry relative="1" as="geometry" />
        </mxCell>
        <mxCell id="yoqmSqxD06JZfrdyBwhe-19" style="edgeStyle=orthogonalEdgeStyle;rounded=0;orthogonalLoop=1;jettySize=auto;html=1;entryX=0;entryY=0.5;entryDx=0;entryDy=0;" parent="1" source="yoqmSqxD06JZfrdyBwhe-1" target="yoqmSqxD06JZfrdyBwhe-16" edge="1">
          <mxGeometry relative="1" as="geometry" />
        </mxCell>
        <mxCell id="yoqmSqxD06JZfrdyBwhe-20" style="edgeStyle=orthogonalEdgeStyle;rounded=0;orthogonalLoop=1;jettySize=auto;html=1;" parent="1" source="yoqmSqxD06JZfrdyBwhe-1" target="yoqmSqxD06JZfrdyBwhe-14" edge="1">
          <mxGeometry relative="1" as="geometry" />
        </mxCell>
        <mxCell id="yoqmSqxD06JZfrdyBwhe-24" style="edgeStyle=orthogonalEdgeStyle;rounded=0;orthogonalLoop=1;jettySize=auto;html=1;exitX=1;exitY=0.5;exitDx=0;exitDy=0;entryX=0;entryY=0.5;entryDx=0;entryDy=0;" parent="1" source="yoqmSqxD06JZfrdyBwhe-1" target="yoqmSqxD06JZfrdyBwhe-17" edge="1">
          <mxGeometry relative="1" as="geometry" />
        </mxCell>
        <mxCell id="yoqmSqxD06JZfrdyBwhe-1" value="" style="shape=image;verticalLabelPosition=bottom;labelBackgroundColor=default;verticalAlign=top;aspect=fixed;imageAspect=0;image=data:image/svg+xml,PHN2ZyB4bWxuczpkYz0iaHR0cDovL3B1cmwub3JnL2RjL2VsZW1lbnRzLzEuMS8iIHhtbG5zOmNjPSJodHRwOi8vY3JlYXRpdmVjb21tb25zLm9yZy9ucyMiIHhtbG5zOnJkZj0iaHR0cDovL3d3dy53My5vcmcvMTk5OS8wMi8yMi1yZGYtc3ludGF4LW5zIyIgeG1sbnM6c3ZnPSJodHRwOi8vd3d3LnczLm9yZy8yMDAwL3N2ZyIgeG1sbnM9Imh0dHA6Ly93d3cudzMub3JnLzIwMDAvc3ZnIiB4bWxuczp4bGluaz0iaHR0cDovL3d3dy53My5vcmcvMTk5OS94bGluayIgdmVyc2lvbj0iMS4xIiB3aWR0aD0iMTM0LjY0NiIgaGVpZ2h0PSIxNTUuOTA1NzUiIGlkPSJzdmcyOTg1IiB4bWw6c3BhY2U9InByZXNlcnZlIiB2aWV3Qm94PSIwIDAgMTM0LjY0NiAxNTUuOTA1NzUiPjx0aXRsZSBpZD0idGl0bGUzNzY0Ij5Mb2dvIGRlIGwnSW5zZWU8L3RpdGxlPjxkZWZzIGlkPSJkZWZzMjk4OSI+PGNsaXBQYXRoIGlkPSJjbGlwUGF0aDI5OTkiPjxwYXRoIGQ9Im0gMCwwIDU5NS4yNzYsMCAwLDg0MS44OSBMIDAsODQxLjg5IDAsMCB6IiBpZD0icGF0aDMwMDEiLz48L2NsaXBQYXRoPjxjbGlwUGF0aCBpZD0iY2xpcFBhdGgzMDE3Ij48cGF0aCBkPSJtIDAsMCA1OTUuMjc2LDAgMCw4NDEuODkgTCAwLDg0MS44OSAwLDAgeiIgaWQ9InBhdGgzMDE5Ii8+PC9jbGlwUGF0aD48Y2xpcFBhdGggaWQ9ImNsaXBQYXRoMzEzNSI+PHBhdGggZD0ibSAwLDI3OC4zNTQgMTIxLjg5LDAgMCw4NS4zNCAtMTIxLjg5LDAgMCwtODUuMzQgeiIgaWQ9InBhdGgzMTM3Ii8+PC9jbGlwUGF0aD48Y2xpcFBhdGggaWQ9ImNsaXBQYXRoMzE0NyI+PHBhdGggZD0ibSAxMjEuODksMjc4LjM1NCAxMjEuODksMCAwLDg1LjM0IC0xMjEuODksMCAwLC04NS4zNCB6IiBpZD0icGF0aDMxNDkiLz48L2NsaXBQYXRoPjxjbGlwUGF0aCBpZD0iY2xpcFBhdGgzMTU5Ij48cGF0aCBkPSJtIDM2NS42NjksMjc4LjY1NCAxMjEuODksMCAwLDg1LjAzOSAtMTIxLjg5LDAgMCwtODUuMDM5IHoiIGlkPSJwYXRoMzE2MSIvPjwvY2xpcFBhdGg+PGNsaXBQYXRoIGlkPSJjbGlwUGF0aDMxNzEiPjxwYXRoIGQ9Im0gMjQzLjc3OSwyNzguNjU0IDEyMS44OSwwIDAsODUuMDM5IC0xMjEuODksMCAwLC04NS4wMzkgeiIgaWQ9InBhdGgzMTczIi8+PC9jbGlwUGF0aD48bGluZWFyR3JhZGllbnQgeDE9IjAiIHkxPSIwIiB4Mj0iMSIgeTI9IjAiIGlkPSJsaW5lYXJHcmFkaWVudDMxOTEiIGdyYWRpZW50VW5pdHM9InVzZXJTcGFjZU9uVXNlIiBncmFkaWVudFRyYW5zZm9ybT0ibWF0cml4KDg5LjUwNzMwOSwwLDAsLTg5LjUwNzMwOSwzODMuNzQ1ODUsMjI1LjExODk5KSIgc3ByZWFkTWV0aG9kPSJwYWQiPjxzdG9wIGlkPSJzdG9wMzE5MyIgc3R5bGU9InN0b3AtY29sb3I6I2ZmZmZmZjtzdG9wLW9wYWNpdHk6MSIgb2Zmc2V0PSIwIi8+PHN0b3AgaWQ9InN0b3AzMTk1IiBzdHlsZT0ic3RvcC1jb2xvcjojNWE1NzU4O3N0b3Atb3BhY2l0eToxIiBvZmZzZXQ9IjAuMzQzNTUxOTkiLz48c3RvcCBpZD0ic3RvcDMxOTciIHN0eWxlPSJzdG9wLWNvbG9yOiM1YTU3NTg7c3RvcC1vcGFjaXR5OjEiIG9mZnNldD0iMSIvPjwvbGluZWFyR3JhZGllbnQ+PHJhZGlhbEdyYWRpZW50IGN4PSIwIiBjeT0iMCIgcj0iMSIgZng9IjAiIGZ5PSIwIiBpZD0icmFkaWFsR3JhZGllbnQzMjEzIiBncmFkaWVudFVuaXRzPSJ1c2VyU3BhY2VPblVzZSIgZ3JhZGllbnRUcmFuc2Zvcm09Im1hdHJpeCgzMC4yNzcwNTQsMzAuNTU1ODYyLDI0LjQ0NDY4NywtMjQuMjIxNjQ5LDQ1Mi42MzQyMiwyMjguNzI5MDYpIiBzcHJlYWRNZXRob2Q9InBhZCI+PHN0b3AgaWQ9InN0b3AzMjE1IiBzdHlsZT0ic3RvcC1jb2xvcjojZmZmZmZmO3N0b3Atb3BhY2l0eToxIiBvZmZzZXQ9IjAiLz48c3RvcCBpZD0ic3RvcDMyMTciIHN0eWxlPSJzdG9wLWNvbG9yOiM1YTU3NTg7c3RvcC1vcGFjaXR5OjEiIG9mZnNldD0iMSIvPjwvcmFkaWFsR3JhZGllbnQ+PGNsaXBQYXRoIGlkPSJjbGlwUGF0aDMyMjUiPjxwYXRoIGQ9Im0gMzc0LjE3MywxMzMuNTExIDExMy4zODYsMCAwLDEzMC4xMSAtMTEzLjM4NiwwIDAsLTEzMC4xMSB6IiBpZD0icGF0aDMyMjciLz48L2NsaXBQYXRoPjxjbGlwUGF0aCBpZD0iY2xpcFBhdGgzMjM3Ij48cGF0aCBkPSJtIDQ3MC40MjMsMjQwLjUwMyBjIC0wLjg2MSwwLjk5NSAtMS43NjMsMS45NjQgLTIuNzA2LDIuOTA3IGwgMCwwIGMgLTMuMjkzLDMuMjkyIC02LjgzNyw2LjAzNSAtMTAuNjU3LDguMjM4IGwgMCwwIGMgNS4wMDQsLTMuMDIyIDkuNTEsLTYuNzg5IDEzLjM2MywtMTEuMTQ1IiBpZD0icGF0aDMyMzkiLz48L2NsaXBQYXRoPjxsaW5lYXJHcmFkaWVudCB4MT0iMCIgeTE9IjAiIHgyPSIxIiB5Mj0iMCIgaWQ9ImxpbmVhckdyYWRpZW50MzI1NyIgZ3JhZGllbnRVbml0cz0idXNlclNwYWNlT25Vc2UiIGdyYWRpZW50VHJhbnNmb3JtPSJtYXRyaXgoNDcuODcyODc5LDAsMCwtNDcuODcyODc5LDQzNC41NzI1OSwyMzYuNjM2MzUpIiBzcHJlYWRNZXRob2Q9InBhZCI+PHN0b3AgaWQ9InN0b3AzMjU5IiBzdHlsZT0ic3RvcC1jb2xvcjojNWE1NzU4O3N0b3Atb3BhY2l0eToxIiBvZmZzZXQ9IjAiLz48c3RvcCBpZD0ic3RvcDMyNjEiIHN0eWxlPSJzdG9wLWNvbG9yOiM0MjNmM2Y7c3RvcC1vcGFjaXR5OjEiIG9mZnNldD0iMC4yNSIvPjxzdG9wIGlkPSJzdG9wMzI2MyIgc3R5bGU9InN0b3AtY29sb3I6IzVhNTc1ODtzdG9wLW9wYWNpdHk6MSIgb2Zmc2V0PSIxIi8+PC9saW5lYXJHcmFkaWVudD48Y2xpcFBhdGggaWQ9ImNsaXBQYXRoMzI3MSI+PHBhdGggZD0ibSAzNzQuMTczLDEzMy41MTEgMTEzLjM4NiwwIDAsMTMwLjExIC0xMTMuMzg2LDAgMCwtMTMwLjExIHoiIGlkPSJwYXRoMzI3MyIvPjwvY2xpcFBhdGg+PGNsaXBQYXRoIGlkPSJjbGlwUGF0aDMyOTEiPjxwYXRoIGQ9Im0gMzc5Ljg0MiwxMzguODk3IDEwNy43MTcsMCAwLDEyNC43MjUgLTEwNy43MTcsMCAwLC0xMjQuNzI1IHoiIGlkPSJwYXRoMzI5MyIvPjwvY2xpcFBhdGg+PGNsaXBQYXRoIGlkPSJjbGlwUGF0aDMzMDciPjxwYXRoIGQ9Im0gMzc0LjE3MywxMzMuNTExIDExMy4zODYsMCAwLDEzMC4xMSAtMTEzLjM4NiwwIDAsLTEzMC4xMSB6IiBpZD0icGF0aDMzMDkiLz48L2NsaXBQYXRoPjxjbGlwUGF0aCBpZD0iY2xpcFBhdGgzNDE1Ij48cGF0aCBkPSJtIDAsMCA1OTUuMjc2LDAgMCw4NDEuODkgTCAwLDg0MS44OSAwLDAgeiIgaWQ9InBhdGgzNDE3Ii8+PC9jbGlwUGF0aD48Y2xpcFBhdGggaWQ9ImNsaXBQYXRoMzYwOSI+PHBhdGggZD0ibSAyNjYuMzk5LDc1My4wNTcgNjIuNjg4LDAgMCwyMS4wMzcgLTYyLjY4OCwwIDAsLTIxLjAzNyB6IiBpZD0icGF0aDM2MTEiLz48L2NsaXBQYXRoPjxjbGlwUGF0aCBpZD0iY2xpcFBhdGgzNjIxIj48cGF0aCBkPSJtIDAsMCA1OTUuMjc2LDAgMCw4NDEuODkgTCAwLDg0MS44OSAwLDAgeiIgaWQ9InBhdGgzNjIzIi8+PC9jbGlwUGF0aD48Y2xpcFBhdGggaWQ9ImNsaXBQYXRoMzY0MSI+PHBhdGggZD0ibSAyNjYuMzk5LDc1My4wNTcgNjIuNjg4LDAgMCwyMS4wMzcgLTYyLjY4OCwwIDAsLTIxLjAzNyB6IiBpZD0icGF0aDM2NDMiLz48L2NsaXBQYXRoPjxjbGlwUGF0aCBpZD0iY2xpcFBhdGgzNjYxIj48cGF0aCBkPSJtIDAsMCA1OTUuMjc2LDAgMCw4NDEuODkgTCAwLDg0MS44OSAwLDAgeiIgaWQ9InBhdGgzNjYzIi8+PC9jbGlwUGF0aD48bGluZWFyR3JhZGllbnQgeDE9IjAiIHkxPSIwIiB4Mj0iMSIgeTI9IjAiIGlkPSJsaW5lYXJHcmFkaWVudDM3NTgiIHhsaW5rOmhyZWY9IiNsaW5lYXJHcmFkaWVudDMxOTEiIGdyYWRpZW50VW5pdHM9InVzZXJTcGFjZU9uVXNlIiBncmFkaWVudFRyYW5zZm9ybT0ibWF0cml4KDg5LjUwNzMwOSwwLDAsLTg5LjUwNzMwOSwzODMuNzQ1ODUsMjI1LjExODk5KSIgc3ByZWFkTWV0aG9kPSJwYWQiLz48cmFkaWFsR3JhZGllbnQgY3g9IjAiIGN5PSIwIiByPSIxIiBmeD0iMCIgZnk9IjAiIGlkPSJyYWRpYWxHcmFkaWVudDM3NjAiIHhsaW5rOmhyZWY9IiNyYWRpYWxHcmFkaWVudDMyMTMiIGdyYWRpZW50VW5pdHM9InVzZXJTcGFjZU9uVXNlIiBncmFkaWVudFRyYW5zZm9ybT0ibWF0cml4KDMwLjI3NzA1NCwzMC41NTU4NjIsMjQuNDQ0Njg3LC0yNC4yMjE2NDksNDUyLjYzNDIyLDIyOC43MjkwNikiIHNwcmVhZE1ldGhvZD0icGFkIi8+PGxpbmVhckdyYWRpZW50IHgxPSIwIiB5MT0iMCIgeDI9IjEiIHkyPSIwIiBpZD0ibGluZWFyR3JhZGllbnQzNzYyIiB4bGluazpocmVmPSIjbGluZWFyR3JhZGllbnQzMjU3IiBncmFkaWVudFVuaXRzPSJ1c2VyU3BhY2VPblVzZSIgZ3JhZGllbnRUcmFuc2Zvcm09Im1hdHJpeCg0Ny44NzI4NzksMCwwLC00Ny44NzI4NzksNDM0LjU3MjU5LDIzNi42MzYzNSkiIHNwcmVhZE1ldGhvZD0icGFkIi8+PC9kZWZzPjxnIHRyYW5zZm9ybT0ibWF0cml4KDEuMjUsMCwwLC0xLjI1LC00NzQuODAyNzUsMzI5LjUyNzUxKSIgaWQ9ImcyOTkzIj48ZyBpZD0iZzI5OTUiPjxnIGNsaXAtcGF0aD0idXJsKCNjbGlwUGF0aDI5OTkpIiBpZD0iZzI5OTciPjxnIHRyYW5zZm9ybT0idHJhbnNsYXRlKDAsNS4zODU4KSIgaWQ9ImczMDAzIj48cGF0aCBkPSJNIDAsMCAwLC00MS43MzYiIGlkPSJwYXRoMzAwNSIgc3R5bGU9ImZpbGw6bm9uZTtzdHJva2U6IzAwMDAwMDtzdHJva2Utd2lkdGg6MC41O3N0cm9rZS1saW5lY2FwOmJ1dHQ7c3Ryb2tlLWxpbmVqb2luOm1pdGVyO3N0cm9rZS1taXRlcmxpbWl0OjQ7c3Ryb2tlLW9wYWNpdHk6MTtzdHJva2UtZGFzaGFycmF5OjEuNTA3LCAxLjAwNztzdHJva2UtZGFzaG9mZnNldDowIi8+PC9nPjxnIHRyYW5zZm9ybT0idHJhbnNsYXRlKDAsODgxLjgxMSkiIGlkPSJnMzAwNyI+PHBhdGggZD0iTSAwLDAgMCwtNDcuNjQyIiBpZD0icGF0aDMwMDkiIHN0eWxlPSJmaWxsOm5vbmU7c3Ryb2tlOiMwMDAwMDA7c3Ryb2tlLXdpZHRoOjAuNTtzdHJva2UtbGluZWNhcDpidXR0O3N0cm9rZS1saW5lam9pbjptaXRlcjtzdHJva2UtbWl0ZXJsaW1pdDo0O3N0cm9rZS1vcGFjaXR5OjE7c3Ryb2tlLWRhc2hhcnJheToxLjUzMSwgMS4wMzE7c3Ryb2tlLWRhc2hvZmZzZXQ6MCIvPjwvZz48L2c+PC9nPjxnIGlkPSJnMzY2OSI+PGcgaWQ9ImczMTc5Ij48ZyBpZD0iZzMxODEiPjxnIGlkPSJnMzE4NyI+PGcgaWQ9ImczMTg5Ij48cGF0aCBkPSJtIDQwNy4yMSwyNDIuOTQ1IGMgLTEzLjk1NywtNy41MzggLTIzLjQ2NCwtMjIuMyAtMjMuNDY0LC0zOS4yNDYgbCAwLDAgMC45NjksMCBjIDAsMTYuMDMzIDguNzk3LDMwLjc0NCAyMi45NTUsMzguMzk0IGwgMCwwIGMgMS4yNTgsMC42NzkgMi41NDgsMS4yOTYgMy44NjUsMS44NDcgbCAwLDAgMCwxLjA0OCBjIC0xLjQ3NiwtMC42MDEgLTIuOTIsLTEuMjgzIC00LjMyNSwtMi4wNDMiIGlkPSJwYXRoMzE5OSIgc3R5bGU9ImZpbGw6dXJsKCNsaW5lYXJHcmFkaWVudDM3NTgpO3N0cm9rZTpub25lIi8+PC9nPjwvZz48L2c+PC9nPjxnIGlkPSJnMzIwMSI+PGcgaWQ9ImczMjAzIj48ZyBpZD0iZzMyMDkiPjxnIGlkPSJnMzIxMSI+PHBhdGggZD0ibSA0MTEuNTM1LDI2My42MjIgMCwtNS45NzcgYyA1LjA0OSwxLjQ1MiAxMC4zODQsMi4yMzQgMTUuOSwyLjIzNCBsIDAsMCBjIDEwLjg0MSwwIDIwLjk3OCwtMy4wMDYgMjkuNjI1LC04LjIzMSBsIDAsMCBjIDMuODIsLTIuMjAzIDcuMzY0LC00Ljk0NiAxMC42NTcsLTguMjM4IGwgMCwwIGMgMC45NDMsLTAuOTQzIDEuODQ1LC0xLjkxMiAyLjcwNiwtMi45MDcgbCAwLDAgYyA4Ljk1MiwtMTAuMTIgMTQuMzg1LC0yMy40MjQgMTQuMzg1LC0zNy45OTggbCAwLDAgYyAwLC01LjExMyAtMC42NzIsLTEwLjA2OSAtMS45MjYsLTE0Ljc4NiBsIDAsMCA0LjU1NiwwIDAsNzUuOTAzIC03NS45MDMsMCB6IiBpZD0icGF0aDMyMTkiIHN0eWxlPSJmaWxsOnVybCgjcmFkaWFsR3JhZGllbnQzNzYwKTtzdHJva2U6bm9uZSIvPjwvZz48L2c+PC9nPjwvZz48ZyBpZD0iZzMyMjEiPjxnIGNsaXAtcGF0aD0idXJsKCNjbGlwUGF0aDMyMjUpIiBpZD0iZzMyMjMiPjxnIHRyYW5zZm9ybT0idHJhbnNsYXRlKDQ4Mi44ODI3LDE4Ny43MTkpIiBpZD0iZzMyMjkiPjxwYXRoIGQ9Im0gMCwwIGMgMS4yNTMsNC43MTggMS45MjUsOS42NzMgMS45MjUsMTQuNzg2IDAsMzEuNjg3IC0yNS42ODUsNTcuMzc0IC01Ny4zNzIsNTcuMzc0IC01LjUxNywwIC0xMC44NTIsLTAuNzgxIC0xNS45MDEsLTIuMjM0IEwgLTcxLjM0OCwwIDAsMCIgaWQ9InBhdGgzMjMxIiBzdHlsZT0iZmlsbDojNWE1NzU4O2ZpbGwtb3BhY2l0eToxO2ZpbGwtcnVsZTpub256ZXJvO3N0cm9rZTpub25lIi8+PC9nPjwvZz48L2c+PGcgaWQ9ImczMjMzIj48ZyBjbGlwLXBhdGg9InVybCgjY2xpcFBhdGgzMjM3KSIgaWQ9ImczMjM1Ij48ZyB0cmFuc2Zvcm09Im1hdHJpeCgxMy44Mjc4NjYsMCwwLDExLjYxMDMzNiw0NTYuNzc4ODcsMjQwLjMwNTc2KSIgaWQ9ImczMjQxIj48aW1hZ2UgeGxpbms6aHJlZj0iZGF0YTppbWFnZS9wbmc7YmFzZTY0LGlWQk9SdzBLR2dvQUFBQU5TVWhFVWdBQUFCMEFBQUFaQ0FZQUFBRE5BaVVaQUFBQUJITkNTVlFJQ0FnSWZBaGtpQUFBQWNsSlJFRlVTSW1WVmt1VzVEQUlRM20rNS9Ucis1K2htVVVzSXpENTFhYVNGRVpDQWxMNC9mZmpkdk54OXhmM251NDFoUEhuOC9ONkFMakQzQUM2K0FEaDcwcHNqLzhFeXRoYUxZRDVERUtNTWZ3T25QR0VHVUN2dWFYNHlPOExlT0E0SGc1N0hQYWQ5VGR3ZXZxUUFJQzV4Y2xUdnU4RTNLUHFWNTdDRUQ3TzhJQ2tFcGlKdzllOTB6K0E1cE1MTGQyU0FJSHZQdU1vbmxaMksyR3BnTFpRZXA5WGxENjhqSTduOWNDUlpWZ3NYM1RyUmdLVE5EQmx4eFozZ2dKSmp1cGRBcmhvbXBYUW8vSG0xRElpeGUvZGUyY0hNbmpYTENmREdidU9SZFVuYURYZDY2MTI1L1FGTXI5cEM0bDNCT2FzSkUrZnVsZEk2TXlTaEp0dndGdkZjN2JYeUxCN1kvTmtmN2Q5MisxeXJscHZKQmVwNmZIZ3dhNXJOWUZlcTdRcU5jRXZLNTYzdTd6SVZlRTRvMW4xa2xWakFIUDRrbnNSYW9ETnpNYUJzaHhNWmdyeXJNeGNPbE9zNGRrVzJNcEc0amdrTHkya1M1MnA0bWoxaUZ3dHNCVjUyMlh0dVd0VmpYWnJpWXdLck0wMXJFaFZlWFhiSm9GYnMwWXJzT1htMnY4NXlDdktTcklPWFAxT0JSZUxOR1o3eS9EQTJpUm1aaDRFRkR6TjZWL2g3b2pmQ25EcVhwMjNQT1FYOWFSVmw3MXIzejZzdEM0QUp0TjFwOEJDUGdGZlVVc2taczcvUFJHRW9yZU9UZ0lBQUFBQVNVVk9SSzVDWUlJPSIgd2lkdGg9IjEiIGhlaWdodD0iMSIgdHJhbnNmb3JtPSJtYXRyaXgoMSwwLDAsLTEsMCwxKSIgaWQ9ImltYWdlMzI0MyIvPjwvZz48L2c+PC9nPjxnIGlkPSJnMzI0NSI+PGcgaWQ9ImczMjQ3Ij48ZyBpZD0iZzMyNTMiPjxnIGlkPSJnMzI1NSI+PHBhdGggZD0ibSA0MzQuNTcyLDI1Ni4yMTYgYyAxMS42NzMsLTEuNTc5IDIyLjQxMiwtNi44NDUgMzAuNzU0LC0xNS4xODggbCAwLDAgYyA3LjI0MiwtNy4yNDIgMTIuMzQ2LC0xNi4zNDcgMTQuNzcsLTI2LjAzNSBsIDAsMCAyLjM1LDAuNTU1IGMgLTEuNzc4LDkuMzU3IC01Ljg0LDE3LjgxMiAtMTIuMDIzLDI0Ljk1NSBsIDAsMCBjIC0zLjg1Myw0LjM1NiAtOC4zNTksOC4xMjMgLTEzLjM2MywxMS4xNDUgbCAwLDAgYyAtNi41NjgsMy43ODkgLTEzLjk1LDUuOTgyIC0yMi4yNzMsNi42MzIgbCAwLDAgLTAuMjE1LC0yLjA2NCB6IiBpZD0icGF0aDMyNjUiIHN0eWxlPSJmaWxsOnVybCgjbGluZWFyR3JhZGllbnQzNzYyKTtzdHJva2U6bm9uZSIvPjwvZz48L2c+PC9nPjwvZz48ZyBpZD0iZzMyNjciPjxnIGNsaXAtcGF0aD0idXJsKCNjbGlwUGF0aDMyNzEpIiBpZD0iZzMyNjkiPjxnIHRyYW5zZm9ybT0idHJhbnNsYXRlKDQ4My4zODMsMjE2LjQ4NTUpIiBpZD0iZzMyNzUiPjxwYXRoIGQ9Im0gMCwwIGMgLTIuMDI1LDEwLjY1OCAtNi41ODgsMjAuNTc3IC0xNC4yOTksMjguMjkgLTguOTU1LDguOTUzIC0yMC4xOTcsMTMuNDE1IC0zMy4zNjEsMTQuNDQxIGwgMC4yMTUsLTEuNjM1IEMgLTM1Ljc3MiwzOS41MTcgLTI1LjAzMywzNC4yNTEgLTE2LjY5MSwyNS45MDggLTkuNDQ4LDE4LjY2NiAtNC4zNDUsOS41NjEgLTEuOTIyLC0wLjEyNyBMIDAsMCB6IiBpZD0icGF0aDMyNzciIHN0eWxlPSJmaWxsOiNmZmZmZmY7ZmlsbC1vcGFjaXR5OjE7ZmlsbC1ydWxlOm5vbnplcm87c3Ryb2tlOm5vbmUiLz48L2c+PGcgdHJhbnNmb3JtPSJ0cmFuc2xhdGUoNDgzLjM4MywyMTYuNDg1NSkiIGlkPSJnMzI3OSI+PHBhdGggZD0ibSAwLDAgYyAtMi4wMjUsMTAuNjU4IC03LjAxNywyMC4xNDkgLTE0LjcyOSwyNy44NiAtOC45NTMsOC45NTQgLTE5Ljc2NywxMy44NDUgLTMyLjkzMSwxNC44NzEgbCAtMC4yMTQsLTIuMDYzIEMgLTM2LjIwMSwzOS4wODggLTI1LjQ2MSwzMy44MjIgLTE3LjEyLDI1LjQ4IC05Ljg3NywxOC4yMzcgLTQuNzczLDkuMTMzIC0yLjM1MSwtMC41NTYgTCAwLDAgeiIgaWQ9InBhdGgzMjgxIiBzdHlsZT0iZmlsbDojZWQxNDQzO2ZpbGwtb3BhY2l0eToxO2ZpbGwtcnVsZTpub256ZXJvO3N0cm9rZTpub25lIi8+PC9nPjxnIHRyYW5zZm9ybT0idHJhbnNsYXRlKDQ0MC4wNTQsMjQ2LjczOTIpIiBpZD0iZzMyODMiPjxwYXRoIGQ9Im0gMCwwIC0xMS41OTMsLTQzLjA5NCA0MC44MjEsMTcuNzUyIGMgMi4wOTEsLTMuMTU3IDMuOTcxLC0xMS40OTUgMy45NzEsLTE3LjY0MyBsIDEuMTc4LC0wLjA0MSBjIDAsNi42MTUgLTEuMzcyLDEzLjAwMSAtNC4wNzksMTguOTgyIGwgLTAuMzA1LDAuNjc1IC0zOS4zMjEsLTE3LjEgTCAxLjgzNywxLjA0IDEuMTI4LDEuMjQ1IGMgLTQuMTU5LDEuMjA0IC04LjQ3NywxLjgxNCAtMTIuODM2LDEuODE0IGwgLTEwZS00LDAgYyAtNS43NTIsMCAtMTEuNDc2LC0xLjA5NSAtMTYuODE5LC0zLjE5MSBsIDAsLTEuNjIgYyA1LjMyNCwyLjE3MiAxMS4wNDksMy4zMDcgMTYuODIsMy4zMDcgQyAtNy43NDEsMS41NTUgLTMuODAzLDEuMDMyIDAsMCIgaWQ9InBhdGgzMjg1IiBzdHlsZT0iZmlsbDojZmZmZmZmO2ZpbGwtb3BhY2l0eToxO2ZpbGwtcnVsZTpub256ZXJvO3N0cm9rZTpub25lIi8+PC9nPjwvZz48L2c+PGcgaWQ9ImczMjg3Ij48ZyBjbGlwLXBhdGg9InVybCgjY2xpcFBhdGgzMjkxKSIgaWQ9ImczMjg5Ij48ZyB0cmFuc2Zvcm09InRyYW5zbGF0ZSg0MjEuNjE5NSwxNTcuMDY4MykiIGlkPSJnMzI5NSI+PHBhdGggZD0ibSAwLDAgYyAxLjU0MywtMC44NjkgNC42NjgsLTEuODY2IDguNTA1LC0xLjg2NiAzLjU5OCwwIDYuMjQ2LDAuODM3IDcuODY4LDIuNDg4IDEuMjgyLDEuMzA1IDEuOTEyLDMuMTE3IDEuODczLDUuMzg2IC0wLjA4Niw0Ljg5OSAtNC4zOTEsNi4xMTUgLTguMTg5LDcuMTg3IC0yLjc3MywwLjc4MyAtNS4xNjgsMS40NTkgLTUuMjA0LDMuNDkgLTAuMDExLDAuNjgxIDAuMjE3LDEuMjY1IDAuNjgsMS43MzYgMC43NjcsMC43OCAyLjEyMywxLjE5MyAzLjkyMiwxLjE5MyAxLjYzMiwwIDQuMTA2LC0wLjE5NCA2LjY2OCwtMS4xMSBsIDAuNzE1LDMuODE3IGMgLTIuMjQ5LDAuODY2IC00Ljc5MywxLjMyNCAtNy4zNjUsMS4zMjQgLTMuNTc3LDAgLTYuMzI2LC0wLjg3NCAtNy45NSwtMi41MjYgQyAwLjM1MywxOS45MjkgLTAuMjIzLDE4LjM2OSAtMC4xOSwxNi40OCAtMC4xMDYsMTEuNjg0IDQuMTY0LDEwLjQyOCA3LjkzMSw5LjMxOSAxMC44NCw4LjQ2MyAxMy4zNTIsNy43MjMgMTMuMzksNS41MSAxMy40MDUsNC42MzMgMTMuMTI5LDMuODk5IDEyLjU2OCwzLjMyOCAxMS43NCwyLjQ4NSAxMC4zMSwyLjA0IDguNDMzLDIuMDQgNS43NzIsMi4wNCAyLjc3MSwyLjc0NyAwLjc0LDMuODQ2IEwgMCwwIHoiIGlkPSJwYXRoMzI5NyIgc3R5bGU9ImZpbGw6IzVhNTc1ODtmaWxsLW9wYWNpdHk6MTtmaWxsLXJ1bGU6bm9uemVybztzdHJva2U6bm9uZSIvPjwvZz48ZyB0cmFuc2Zvcm09InRyYW5zbGF0ZSg0NDguMjg4NiwxNzAuODA0NykiIGlkPSJnMzI5OSI+PHBhdGggZD0ibSAwLDAgLTAuMDk3LDAgMCwwLjA5NiBjIDAsMy44NTEgMS44OTYsNS44ODYgNS40ODEsNS44ODYgMy41ODUsMCA1LjQ4LC0yLjAzNSA1LjQ4LC01Ljg4NSBMIDEwLjg2NCwwIDAsMCB6IG0gLTUuMjk2LC0yLjc2NCAwLjAwMiwtMC4wOSBjIDAsLTguNTM1IDMuNjI5LC0xMi42ODQgMTEuMDkzLC0xMi42ODQgMi41MzgsMCA1LjU2NCwwLjQ5MiA4Ljk5NiwxLjQ2MiBsIC0wLjc2NSw0LjA4NCBjIC0zLjAyOSwtMC44NDEgLTUuNDY1LC0xLjI1IC03LjQ0NywtMS4yNSAtMi40MzMsMCAtNC4xNTQsMC42MjQgLTUuMjU5LDEuOTA5IC0xLjAzNCwxLjIgLTEuNTM2LDMgLTEuNTM2LDUuNDk5IGwgMCwwLjA5NyAxNS42MDcsMCBDIDE1LjYzOCwxLjQ2NSAxNC43MzQsNS4wNjkgMTIuNjMzLDcuMjc2IDEwLjkzNyw5LjA1NyA4LjQ2Miw5LjkyMiA1LjA2NSw5LjkyMiAtMS42ODksOS45MjIgLTUuMjcsNS41MzYgLTUuMjk2LC0yLjc2NCBNIDIzLjgzNywwIDIzLjc0LDAgbCAwLDAuMDk2IGMgMCwzLjg1MSAxLjg5NSw1Ljg4NiA1LjQ4MSw1Ljg4NiAzLjU4NSwwIDUuNDgsLTIuMDM1IDUuNDgsLTUuODg1IEwgMzQuNzAxLDAgMjMuODM3LDAgeiBtIC01LjI5NiwtMi43NjMgMC4wMDIsLTAuMDkxIGMgMCwtOC41MzUgMy42MjgsLTEyLjY4NCAxMS4wOTIsLTEyLjY4NCAyLjUzOCwwIDUuNTY0LDAuNDkyIDguOTk3LDEuNDYyIGwgLTAuNzY2LDQuMDg0IGMgLTMuMDI4LC0wLjg0MSAtNS40NjUsLTEuMjUgLTcuNDQ3LC0xLjI1IC0yLjQzMywwIC00LjE1MywwLjYyNCAtNS4yNTksMS45MDkgLTEuMDMzLDEuMiAtMS41MzUsMyAtMS41MzUsNS40OTkgbCAwLDAuMDk3IDE1LjYwNywwIGMgMC4yNDMsNS4yMDIgLTAuNjYxLDguODA2IC0yLjc2MywxMS4wMTMgLTEuNjk1LDEuNzgxIC00LjE3LDIuNjQ2IC03LjU2NywyLjY0NiAtNi43NTQsMCAtMTAuMzM2LC00LjM4NSAtMTAuMzYxLC0xMi42ODUiIGlkPSJwYXRoMzMwMSIgc3R5bGU9ImZpbGw6IzVhNTc1ODtmaWxsLW9wYWNpdHk6MTtmaWxsLXJ1bGU6bm9uemVybztzdHJva2U6bm9uZSIvPjwvZz48L2c+PC9nPjxnIGlkPSJnMzMwMyI+PGcgY2xpcC1wYXRoPSJ1cmwoI2NsaXBQYXRoMzMwNykiIGlkPSJnMzMwNSI+PGcgdHJhbnNmb3JtPSJ0cmFuc2xhdGUoNDA4LjA5NSwxODAuNzUwOSkiIGlkPSJnMzMxMSI+PHBhdGggZD0ibSAwLDAgYyAtMy42MzgsMCAtNy4xNDMsLTEuMzgxIC04LjE3NiwtMi4zMzUgbCAtMC4wOTYsLTAuMDg5IC0xLjAxOSwyLjE0NCAtNS43NjQsLTAuMDAxIDAsLTEuMjU0IDAsLTAuMDc3IDIuMTE5LC0wLjUyNSAwLC0yMy4xMjUgNS4xMTMsMCAwLDE5LjA2MyAwLjAyNCwwLjAyNyBjIDAuNjc1LDAuNzg3IDMuNzAzLDIgNi4zNDIsMiAzLjE2OSwwIDQuOTE1LC0xLjY3OCA0LjkxNSwtNC43MjYgbCAwLC0xNi4zNjQgNS4xNjgsMCAwLDE2LjI0MyBDIDguNjI2LC0xLjE3MiAzLjIyMiwwIDAsMCIgaWQ9InBhdGgzMzEzIiBzdHlsZT0iZmlsbDojNWE1NzU4O2ZpbGwtb3BhY2l0eToxO2ZpbGwtcnVsZTpub256ZXJvO3N0cm9rZTpub25lIi8+PC9nPjxnIHRyYW5zZm9ybT0idHJhbnNsYXRlKDM4Ny4yNzUyLDE4Ni40NTUxKSIgaWQ9ImczMzE1Ij48cGF0aCBkPSJtIDAsMCAyLjMzOCwwLjU4IDAsMS4zMyAtOS43NzEsMCAwLC0xLjMzIDIuMzM5LC0wLjU4IDAsLTI5LjA3OCAtMi4zMzksLTAuNTggMCwtMS4zMyA5Ljc3MSwwIDAsMS4zMyAtMi4zMzgsMC41OCAtMC4wMTgsMCBMIC0wLjAxOCwwIDAsMCB6IiBpZD0icGF0aDMzMTciIHN0eWxlPSJmaWxsOiM1YTU3NTg7ZmlsbC1vcGFjaXR5OjE7ZmlsbC1ydWxlOm5vbnplcm87c3Ryb2tlOm5vbmUiLz48L2c+PGcgdHJhbnNmb3JtPSJ0cmFuc2xhdGUoMzc5LjkxNDEsMTM4Ljg5NzQpIiBpZD0iZzMzMTkiPjxwYXRoIGQ9Im0gMCwwIDEwNy41MjksMCAwLDAuODI3IEwgMCwwLjgyNyIgaWQ9InBhdGgzMzIxIiBzdHlsZT0iZmlsbDojZWQxNDQzO2ZpbGwtb3BhY2l0eToxO2ZpbGwtcnVsZTpub256ZXJvO3N0cm9rZTpub25lIi8+PC9nPjxnIHRyYW5zZm9ybT0idHJhbnNsYXRlKDM4MC45NDQ5LDE0OS4xNjA3KSIgaWQ9ImczMzIzIj48cGF0aCBkPSJtIDAsMCAxLjkxOCwtNC43MzEgMC4yNiwtMC42NjkgMC4wMjcsMCAwLjI0OCwwLjY2OSAxLjkyLDQuNzMxIDEuMDI2LDAgMCwtNi42OTQgLTAuODI5LDAgMCw0LjQyNiAwLjAxNywwLjcyNSAtMC4wMjYsMC4wMDggLTAuMjU5LC0wLjY3OSAtMS44MTMsLTQuNDggLTAuNjQyLDAgLTEuODA0LDQuNDQ1IC0wLjI1OSwwLjY3OCAtMC4wMTcsLTAuMDA4IDAuMDA4LC0wLjcyNCAwLC00LjM5MSAtMC44MTMsMCAwLDYuNjk0IEwgMCwwIHoiIGlkPSJwYXRoMzMyNSIgc3R5bGU9ImZpbGw6IzVhNTc1ODtmaWxsLW9wYWNpdHk6MTtmaWxsLXJ1bGU6bm9uemVybztzdHJva2U6bm9uZSIvPjwvZz48ZyB0cmFuc2Zvcm09InRyYW5zbGF0ZSgzOTAuOTAzNiwxNDUuNTkwMikiIGlkPSJnMzMyNyI+PHBhdGggZD0iTSAwLDAgQyAtMC4wMTcsMS4xMjUgLTAuNTQzLDEuNTUzIC0xLjMxLDEuNTUzIC0yLjIxMywxLjU1MyAtMi42MTMsMS4wNTMgLTIuNjY3LDAgTCAwLDAgeiBtIC0zLjUxNiwtMC4zMjEgYyAwLDEuNjY4IDAuNzMyLDIuNjA3IDIuMTk2LDIuNjA3IDEuMjY3LDAgMi4wOTgsLTAuNzQ5IDIuMDk4LC0yLjQ1NSAwLC0wLjEzNCAtMC4wMDgsLTAuMjk1IC0wLjAxOSwtMC40MTEgbCAtMy40MDksMCBjIDAuMDQ0LC0xLjQwMiAwLjU2MiwtMS44ODMgMS43MDUsLTEuODgzIDAuNTM2LDAgMC45OSwwLjExNSAxLjQ0NiwwLjMzOSBsIDAuMDk4LC0wLjcxNCBjIC0wLjQ0NiwtMC4yNDIgLTEsLTAuMzkzIC0xLjY0MywtMC4zOTMgLTEuNzQ5LDAgLTIuNDcyLDAuOTE5IC0yLjQ3MiwyLjkxIiBpZD0icGF0aDMzMjkiIHN0eWxlPSJmaWxsOiM1YTU3NTg7ZmlsbC1vcGFjaXR5OjE7ZmlsbC1ydWxlOm5vbnplcm87c3Ryb2tlOm5vbmUiLz48L2c+PGcgdHJhbnNmb3JtPSJ0cmFuc2xhdGUoMzk0LjA2ODYsMTQyLjM1ODMpIiBpZD0iZzMzMzEiPjxwYXRoIGQ9Im0gMCwwIGMgLTAuNjMzLDAgLTEuMjIzLDAuMTUyIC0xLjYzNCwwLjQ0NyBsIDAuMTA4LDAuNzMyIGMgMC40MDEsLTAuMzA0IDEuMDA4LC0wLjQ2NSAxLjUxNiwtMC40NjUgMC43NzcsMCAxLjA5OSwwLjM3NiAxLjA5OSwwLjg3NiAwLDEuMjA0IC0yLjcyMywwLjY0MyAtMi43MjMsMi40MzYgMCwwLjkwMiAwLjYzNCwxLjQ5MiAxLjg1NiwxLjQ5MiAwLjUxOSwwIDEuMDEsLTAuMTA4IDEuNDM4LC0wLjMwNCBMIDEuNTg3LDQuNSBDIDEuMTQyLDQuNjg3IDAuNjM0LDQuNzg1IDAuMjA1LDQuNzg1IC0wLjQyOCw0Ljc4NSAtMC44MjksNC41MDkgLTAuODI5LDQuMDcxIC0wLjgyOSwyLjkzNyAxLjg3NSwzLjUyNiAxLjg3NSwxLjY3IDEuODc1LDAuNjcgMS4zMTIsMCAwLDAiIGlkPSJwYXRoMzMzMyIgc3R5bGU9ImZpbGw6IzVhNTc1ODtmaWxsLW9wYWNpdHk6MTtmaWxsLXJ1bGU6bm9uemVybztzdHJva2U6bm9uZSIvPjwvZz48ZyB0cmFuc2Zvcm09InRyYW5zbGF0ZSg0MDAuODY1MSwxNDQuMjE0OCkiIGlkPSJnMzMzNSI+PHBhdGggZD0ibSAwLDAgYyAwLC0xLjE3OCAtMC42NzEsLTEuODQ4IC0yLjA3MSwtMS44NDggLTEuMzkzLDAgLTIuMDYzLDAuNjc5IC0yLjA2MywxLjg0OCBsIDAsMy41NzEgMC44MzksMCAwLC0zLjU1MiBjIDAsLTAuNzE1IDAuNDExLC0xLjA4OSAxLjIzMywtMS4wODkgMC44MDMsMCAxLjIyMywwLjM2NiAxLjIyMywxLjA4OSBsIDAsMy41NTIgTCAwLDMuNTcxIDAsMCB6IiBpZD0icGF0aDMzMzciIHN0eWxlPSJmaWxsOiM1YTU3NTg7ZmlsbC1vcGFjaXR5OjE7ZmlsbC1ydWxlOm5vbnplcm87c3Ryb2tlOm5vbmUiLz48L2c+PGcgdHJhbnNmb3JtPSJ0cmFuc2xhdGUoNDAyLjA1ODMsMTQyLjQ2NjYpIiBpZD0iZzMzMzkiPjxwYXRoIGQ9Im0gMCwwIDAsNS4yODQgMC42NzgsMC4wNDQgMC4wNzEsLTEuMTQyIDAuMDE4LDAgQyAxLjA5Nyw0Ljk1NCAxLjY3Nyw1LjQgMi4zOTksNS40IDIuNTk4LDUuNCAyLjc4NCw1LjM3MiAyLjkyOCw1LjMyOCBMIDIuODc1LDQuNDcxIEMgMi43MTMsNC41MjUgMi41MzMsNC41NDQgMi4zNDgsNC41NDQgMS41MTcsNC41NDQgMC44NDksMy44MzggMC44NDksMi42OTUgTCAwLjg0OSwwIDAsMCB6IiBpZD0icGF0aDMzNDEiIHN0eWxlPSJmaWxsOiM1YTU3NTg7ZmlsbC1vcGFjaXR5OjE7ZmlsbC1ydWxlOm5vbnplcm87c3Ryb2tlOm5vbmUiLz48L2c+PGcgdHJhbnNmb3JtPSJ0cmFuc2xhdGUoNDA4LjgzNzgsMTQ1LjU4OTkpIiBpZD0iZzMzNDMiPjxwYXRoIGQ9Ik0gMCwwIEMgLTAuMDE4LDEuMTI1IC0wLjU0NSwxLjU1NCAtMS4zMTMsMS41NTQgLTIuMjE1LDEuNTU0IC0yLjYxNSwxLjA1NCAtMi42NjksMCBMIDAsMCB6IG0gLTMuNTE3LC0wLjMyMSBjIDAsMS42NjkgMC43MzEsMi42MDcgMi4xOTUsMi42MDcgMS4yNjgsMCAyLjA5OCwtMC43NSAyLjA5OCwtMi40NTUgMCwtMC4xMzQgLTAuMDA4LC0wLjI5NSAtMC4wMTgsLTAuNDEgbCAtMy40MSwwIGMgMC4wNDUsLTEuNDAyIDAuNTYyLC0xLjg4NCAxLjcwNiwtMS44ODQgMC41MzYsMCAwLjk4OSwwLjExNSAxLjQ0NywwLjMzOSBsIDAuMDk4LC0wLjcxNCBjIC0wLjQ0OCwtMC4yNDEgLTEuMDAxLC0wLjM5NCAtMS42NDMsLTAuMzk0IC0xLjc1MSwwIC0yLjQ3MywwLjkyMSAtMi40NzMsMi45MTEiIGlkPSJwYXRoMzM0NSIgc3R5bGU9ImZpbGw6IzVhNTc1ODtmaWxsLW9wYWNpdHk6MTtmaWxsLXJ1bGU6bm9uemVybztzdHJva2U6bm9uZSIvPjwvZz48ZyB0cmFuc2Zvcm09InRyYW5zbGF0ZSg0MTAuNTQzOCwxNDIuNDY2NikiIGlkPSJnMzM0NyI+PHBhdGggZD0ibSAwLDAgMCw1LjI4NCAwLjY3OCwwLjA0NCAwLjA3MywtMS4xNDIgMC4wMTcsMCBDIDEuMDk4LDQuOTU0IDEuNjc4LDUuNCAyLjQwMSw1LjQgMi41OTgsNS40IDIuNzg1LDUuMzcyIDIuOTI4LDUuMzI4IEwgMi44NzQsNC40NzEgQyAyLjcxNCw0LjUyNSAyLjUzNiw0LjU0NCAyLjM0OSw0LjU0NCAxLjUxNyw0LjU0NCAwLjg0OCwzLjgzOCAwLjg0OCwyLjY5NSBMIDAuODQ4LDAgMCwwIHoiIGlkPSJwYXRoMzM0OSIgc3R5bGU9ImZpbGw6IzVhNTc1ODtmaWxsLW9wYWNpdHk6MTtmaWxsLXJ1bGU6bm9uemVybztzdHJva2U6bm9uZSIvPjwvZz48ZyB0cmFuc2Zvcm09InRyYW5zbGF0ZSg0MTguMzA0NCwxNDcuMDk5MykiIGlkPSJnMzM1MSI+PHBhdGggZD0ibSAwLDAgYyAtMC41NzEsMCAtMS4wMTYsLTAuMjIzIC0xLjI5NCwtMC42MjUgbCAwLC0yLjczMiBjIDAuMjA1LC0wLjM0NyAwLjYyNSwtMC42NTEgMS4yNDksLTAuNjUxIDAuODMsMCAxLjQxMSwwLjQwMSAxLjQxMSwyLjA0NCBDIDEuMzY2LC0wLjQyIDAuODkzLDAgMCwwIG0gMC4xNjIsLTQuNzMyIGMgLTAuNTYzLDAgLTEuMDgsMC4xNDMgLTEuNDQ3LDAuNTgxIGwgLTAuMDE5LC0wLjAxIDAuMDEsLTAuNzIzIDAsLTEuMDcxIC0wLjg2NywwIDAsNi42MTUgMC42MDcsMC4wNDUgMC4xODEsLTAuNTU0IGMgMC4zODIsMC4zOTMgMC45MzUsMC42MjYgMS41NzgsMC42MjYgMS4zMDQsMCAyLjAzNiwtMC42OCAyLjAzNiwtMi43NDEgMCwtMS45NjUgLTAuODA0LC0yLjc2OCAtMi4wNzksLTIuNzY4IiBpZD0icGF0aDMzNTMiIHN0eWxlPSJmaWxsOiM1YTU3NTg7ZmlsbC1vcGFjaXR5OjE7ZmlsbC1ydWxlOm5vbnplcm87c3Ryb2tlOm5vbmUiLz48L2c+PGcgdHJhbnNmb3JtPSJ0cmFuc2xhdGUoNDIzLjU5NTUsMTQzLjA2MzgpIiBpZD0iZzMzNTUiPjxwYXRoIGQ9Ik0gMCwwIEMgMS4wMjksMCAxLjQyLDAuNTI3IDEuNDIsMi4wNDQgMS40MiwzLjU3IDEuMDI5LDQuMDg5IDAsNC4wODkgLTEuMDQ1LDQuMDg5IC0xLjQ0NiwzLjU3IC0xLjQ0NiwyLjA0NCAtMS40NDYsMC41MTggLTEuMDQ1LDAgMCwwIG0gMCwtMC43MTQgYyAtMS42MDYsMCAtMi4zMjEsMC43ODYgLTIuMzIxLDIuNzU4IDAsMS45NzMgMC43MjMsMi43NjkgMi4zMjEsMi43NjkgMS42MDcsMCAyLjI4NSwtMC43OTYgMi4yODUsLTIuNzY5IEMgMi4yODUsMC4wNzIgMS41OTgsLTAuNzE0IDAsLTAuNzE0IiBpZD0icGF0aDMzNTciIHN0eWxlPSJmaWxsOiM1YTU3NTg7ZmlsbC1vcGFjaXR5OjE7ZmlsbC1ydWxlOm5vbnplcm87c3Ryb2tlOm5vbmUiLz48L2c+PGcgdHJhbnNmb3JtPSJ0cmFuc2xhdGUoNDMwLjg4MTcsMTQ0LjIxNDgpIiBpZD0iZzMzNTkiPjxwYXRoIGQ9Im0gMCwwIGMgMCwtMS4xNzggLTAuNjcxLC0xLjg0OCAtMi4wNzIsLTEuODQ4IC0xLjM5MSwwIC0yLjA2MSwwLjY3OSAtMi4wNjEsMS44NDggbCAwLDMuNTcxIDAuODM4LDAgMCwtMy41NTIgYyAwLC0wLjcxNSAwLjQxLC0xLjA4OSAxLjIzMywtMS4wODkgMC44MDMsMCAxLjIyMywwLjM2NiAxLjIyMywxLjA4OSBsIDAsMy41NTIgTCAwLDMuNTcxIDAsMCB6IiBpZD0icGF0aDMzNjEiIHN0eWxlPSJmaWxsOiM1YTU3NTg7ZmlsbC1vcGFjaXR5OjE7ZmlsbC1ydWxlOm5vbnplcm87c3Ryb2tlOm5vbmUiLz48L2c+PGcgdHJhbnNmb3JtPSJ0cmFuc2xhdGUoNDMyLjA3NDIsMTQyLjQ2NjYpIiBpZD0iZzMzNjMiPjxwYXRoIGQ9Im0gMCwwIDAsNS4yODQgMC42NzgsMC4wNDQgMC4wNzMsLTEuMTQyIDAuMDE3LDAgQyAxLjA5OCw0Ljk1MyAxLjY3OCw1LjQgMi40MDIsNS40IDIuNTk5LDUuNCAyLjc4Niw1LjM3MiAyLjkyOCw1LjMyOCBMIDIuODczLDQuNDcxIEMgMi43MTYsNC41MjUgMi41MzUsNC41NDQgMi4zNDgsNC41NDQgYyAtMC44MywwIC0xLjUsLTAuNzA2IC0xLjUsLTEuODQ5IEwgMC44NDgsMCAwLDAgeiIgaWQ9InBhdGgzMzY1IiBzdHlsZT0iZmlsbDojNWE1NzU4O2ZpbGwtb3BhY2l0eToxO2ZpbGwtcnVsZTpub256ZXJvO3N0cm9rZTpub25lIi8+PC9nPjxnIHRyYW5zZm9ybT0idHJhbnNsYXRlKDQ0MC43ODczLDE0Ni44NDg4KSIgaWQ9ImczMzY3Ij48cGF0aCBkPSJtIDAsMCBjIC0wLjMxMSwwLjE0MyAtMC42OTYsMC4yNDEgLTEuMDgsMC4yNDEgLTEuMTUyLDAgLTEuNTgsLTAuNTUzIC0xLjU4LC0xLjkyOCAwLC0xLjQ5OSAwLjU0NiwtMi4wNTQgMS41NjQsLTIuMDU0IDAuNDE4LDAgMC44MTIsMC4xMDggMS4xMzMsMC4zMDUgbCAwLjA2MSwtMC42OTYgYyAtMC4zMSwtMC4yMTUgLTAuODExLC0wLjM2NyAtMS4zNzUsLTAuMzY3IC0xLjQ5MSwwIC0yLjI1OCwwLjg1NiAtMi4yNTgsMi44MTIgMCwxLjc5NCAwLjY5NiwyLjcwNSAyLjI4NiwyLjcwNSAwLjQ3MiwwIDAuOTU1LC0wLjEwNyAxLjMwMywtMC4yNTkgTCAwLDAgeiIgaWQ9InBhdGgzMzY5IiBzdHlsZT0iZmlsbDojNWE1NzU4O2ZpbGwtb3BhY2l0eToxO2ZpbGwtcnVsZTpub256ZXJvO3N0cm9rZTpub25lIi8+PC9nPjxnIHRyYW5zZm9ybT0idHJhbnNsYXRlKDQ0NC4wMTkyLDE0My4wNjM4KSIgaWQ9ImczMzcxIj48cGF0aCBkPSJNIDAsMCBDIDEuMDI2LDAgMS40MiwwLjUyNyAxLjQyLDIuMDQ0IDEuNDIsMy41NyAxLjAyNiw0LjA4OSAwLDQuMDg5IC0xLjA0NCw0LjA4OSAtMS40NDYsMy41NyAtMS40NDYsMi4wNDQgLTEuNDQ2LDAuNTE4IC0xLjA0NCwwIDAsMCBtIDAsLTAuNzE0IGMgLTEuNjA3LDAgLTIuMzIsMC43ODYgLTIuMzIsMi43NTggMCwxLjk3MyAwLjcyMiwyLjc2OSAyLjMyLDIuNzY5IDEuNjA3LDAgMi4yODYsLTAuNzk2IDIuMjg2LC0yLjc2OSBDIDIuMjg2LDAuMDcyIDEuNTk4LC0wLjcxNCAwLC0wLjcxNCIgaWQ9InBhdGgzMzczIiBzdHlsZT0iZmlsbDojNWE1NzU4O2ZpbGwtb3BhY2l0eToxO2ZpbGwtcnVsZTpub256ZXJvO3N0cm9rZTpub25lIi8+PC9nPjxnIHRyYW5zZm9ybT0idHJhbnNsYXRlKDQ1My4zNTQ2LDE0Mi40NjY2KSIgaWQ9ImczMzc1Ij48cGF0aCBkPSJtIDAsMCAwLDMuNTM1IGMgMCwwLjc0OSAtMC40MTksMS4wODggLTEuMTA3LDEuMDg4IC0wLjU3MywwIC0xLjA1NCwtMC4zMyAtMS4wNTQsLTAuOTk5IGwgMCwtMy42MjQgLTAuODQsMCAwLDMuNjI0IGMgMCwwLjcyMiAtMC40NTQsMS4wMDkgLTEuMDQ0LDEuMDA5IC0wLjQ0NywwIC0wLjkwMiwtMC4yNDIgLTEuMTE2LC0wLjU5OSBsIDAsLTQuMDM0IC0wLjg0OCwwIDAsNS4zMDIgMC42MDcsMC4wNDUgMC4xNTEsLTAuNTcyIDAuMDI3LDAgYyAwLjMyMywwLjM5MyAwLjg0LDAuNjI1IDEuMzc2LDAuNjI1IDAuNzEzLDAgMS4xODgsLTAuMjY4IDEuNDM1LC0wLjgxMyBsIDAuMDE5LDAgYyAwLjMwNCwwLjU1NCAwLjg0OCwwLjgyMyAxLjUsMC44MjMgMS4wMjcsMCAxLjczNCwtMC42MDggMS43MzQsLTEuODY3IEwgMC44NCwwIDAsMCB6IiBpZD0icGF0aDMzNzciIHN0eWxlPSJmaWxsOiM1YTU3NTg7ZmlsbC1vcGFjaXR5OjE7ZmlsbC1ydWxlOm5vbnplcm87c3Ryb2tlOm5vbmUiLz48L2c+PGcgdHJhbnNmb3JtPSJ0cmFuc2xhdGUoNDU3LjQ4NDQsMTQ3LjA5OTMpIiBpZD0iZzMzNzkiPjxwYXRoIGQ9Im0gMCwwIGMgLTAuNTcxLDAgLTEuMDE3LC0wLjIyMyAtMS4yOTUsLTAuNjI1IGwgMCwtMi43MzIgYyAwLjIwNSwtMC4zNDcgMC42MjQsLTAuNjUxIDEuMjQ5LC0wLjY1MSAwLjgzMSwwIDEuNDExLDAuNDAxIDEuNDExLDIuMDQ0IEMgMS4zNjUsLTAuNDIgMC44OTIsMCAwLDAgbSAwLjE2LC00LjczMiBjIC0wLjU2MiwwIC0xLjA3OSwwLjE0MyAtMS40NDUsMC41ODEgbCAtMC4wMTgsLTAuMDEgMC4wMDgsLTAuNzIzIDAsLTEuMDcxIC0wLjg2NiwwIDAsNi42MTUgMC42MDcsMC4wNDUgMC4xNzksLTAuNTU0IGMgMC4zODQsMC4zOTMgMC45MzcsMC42MjYgMS41OCwwLjYyNiAxLjMwMiwwIDIuMDM2LC0wLjY4IDIuMDM2LC0yLjc0MSAwLC0xLjk2NSAtMC44MDUsLTIuNzY4IC0yLjA4MSwtMi43NjgiIGlkPSJwYXRoMzM4MSIgc3R5bGU9ImZpbGw6IzVhNTc1ODtmaWxsLW9wYWNpdHk6MTtmaWxsLXJ1bGU6bm9uemVybztzdHJva2U6bm9uZSIvPjwvZz48ZyB0cmFuc2Zvcm09InRyYW5zbGF0ZSg0NjAuNzg5OSwxNDIuNDY2NikiIGlkPSJnMzM4MyI+PHBhdGggZD0ibSAwLDAgMCw1LjI4NCAwLjY3NywwLjA0NCAwLjA3MiwtMS4xNDIgMC4wMTgsMCBDIDEuMDk3LDQuOTUzIDEuNjc2LDUuNCAyLjQwMSw1LjQgMi41OTcsNS40IDIuNzg0LDUuMzcyIDIuOTI2LDUuMzI4IEwgMi44NzQsNC40NzEgQyAyLjcxMiw0LjUyNSAyLjUzMyw0LjU0NCAyLjM0OCw0LjU0NCBjIC0wLjgzMiwwIC0xLjUsLTAuNzA2IC0xLjUsLTEuODQ5IEwgMC44NDgsMCAwLDAgeiIgaWQ9InBhdGgzMzg1IiBzdHlsZT0iZmlsbDojNWE1NzU4O2ZpbGwtb3BhY2l0eToxO2ZpbGwtcnVsZTpub256ZXJvO3N0cm9rZTpub25lIi8+PC9nPjxnIHRyYW5zZm9ybT0idHJhbnNsYXRlKDQ2Ny42NjE5LDE0NS41ODk5KSIgaWQ9ImczMzg3Ij48cGF0aCBkPSJNIDAsMCBDIC0wLjAxNywxLjEyNSAtMC41NDQsMS41NTQgLTEuMzEyLDEuNTU0IC0yLjIxNSwxLjU1NCAtMi42MTYsMS4wNTQgLTIuNjY4LDAgTCAwLDAgeiBtIC0zLjUxOCwtMC4zMjEgYyAwLDEuNjY5IDAuNzMyLDIuNjA3IDIuMTk3LDIuNjA3IDEuMjY3LDAgMi4wOTYsLTAuNzUgMi4wOTYsLTIuNDU1IDAsLTAuMTM0IC0wLjAwOCwtMC4yOTUgLTAuMDE3LC0wLjQxIGwgLTMuNDA4LDAgYyAwLjA0MywtMS40MDIgMC41NjEsLTEuODg0IDEuNzA0LC0xLjg4NCAwLjUzNiwwIDAuOTkxLDAuMTE1IDEuNDQ2LDAuMzM5IGwgMC4wOTksLTAuNzE0IGMgLTAuNDQ4LC0wLjI0MSAtMSwtMC4zOTQgLTEuNjQzLC0wLjM5NCAtMS43NSwwIC0yLjQ3NCwwLjkyMSAtMi40NzQsMi45MTEiIGlkPSJwYXRoMzM4OSIgc3R5bGU9ImZpbGw6IzVhNTc1ODtmaWxsLW9wYWNpdHk6MTtmaWxsLXJ1bGU6bm9uemVybztzdHJva2U6bm9uZSIvPjwvZz48ZyB0cmFuc2Zvcm09InRyYW5zbGF0ZSg0NzIuNjAwNiwxNDIuNDY2NikiIGlkPSJnMzM5MSI+PHBhdGggZD0ibSAwLDAgMCwzLjUxNyBjIDAsMC43ODUgLTAuNDIsMS4xMTYgLTEuMjA2LDEuMTE2IC0wLjQ1NSwwIC0wLjk5LC0wLjIxNSAtMS4yNCwtMC41OTkgbCAwLC00LjAzNCAtMC44NDksMCAwLDUuMzAyIDAuNjA3LDAuMDQ1IDAuMTQzLC0wLjU2MyAwLjAyNywwIGMgMC4zNjgsMC40MDEgMC45NDcsMC42MzQgMS41NDUsMC42MzQgMS4xMjQsMCAxLjgxMSwtMC42MzQgMS44MTEsLTEuOTAxIEwgMC44MzgsMCAwLDAgeiIgaWQ9InBhdGgzMzkzIiBzdHlsZT0iZmlsbDojNWE1NzU4O2ZpbGwtb3BhY2l0eToxO2ZpbGwtcnVsZTpub256ZXJvO3N0cm9rZTpub25lIi8+PC9nPjxnIHRyYW5zZm9ybT0idHJhbnNsYXRlKDQ3Ny44MTgzLDE0Ni40OTI0KSIgaWQ9ImczMzk1Ij48cGF0aCBkPSJtIDAsMCBjIC0wLjIyMiwwLjM2NiAtMC42OTcsMC42MDcgLTEuMjY4LDAuNjA3IC0xLjAzNCwwIC0xLjQwOSwtMC41NTUgLTEuNDA5LC0yLjAwMSAwLC0xLjQ5IDAuMzM5LC0yLjAzNSAxLjQwMSwtMi4wMzUgMC43NCwwIDEuMTI1LDAuMzY3IDEuMjc2LDAuNjUyIEwgMCwwIHogbSAwLjE5NiwtNC4wMjYgLTAuMTA4LDAuNTUzIC0wLjAyNSwwLjAwOSBjIC0wLjMzLC0wLjQzNyAtMC44NTgsLTAuNjcgLTEuNTczLC0wLjY3IC0xLjQzNiwwIC0yLjA0MywwLjg3NSAtMi4wNDMsMi43NzcgMCwxLjgwMiAwLjYzMywyLjc0OSAyLjA1MywyLjc0OSAwLjU5LDAgMS4xMjUsLTAuMjA3IDEuNSwtMC41OTggTCAwLjAxNywwLjgwMiAwLDEuNTE3IGwgMCwxLjQ5OSAwLjg0OSwwLjA1NSAwLC03LjA5NyAtMC42NTMsMCB6IiBpZD0icGF0aDMzOTciIHN0eWxlPSJmaWxsOiM1YTU3NTg7ZmlsbC1vcGFjaXR5OjE7ZmlsbC1ydWxlOm5vbnplcm87c3Ryb2tlOm5vbmUiLz48L2c+PGcgdHJhbnNmb3JtPSJ0cmFuc2xhdGUoNDgwLjAyMDQsMTQyLjQ2NjYpIiBpZD0iZzMzOTkiPjxwYXRoIGQ9Im0gMCwwIDAsNS4yODQgMC42NzksMC4wNDQgMC4wNzEsLTEuMTQyIDAuMDE4LDAgQyAxLjA5OCw0Ljk1MyAxLjY3OSw1LjQgMi40MDEsNS40IDIuNTk5LDUuNCAyLjc4NSw1LjM3MiAyLjkyNyw1LjMyOCBMIDIuODc1LDQuNDcxIEMgMi43MTQsNC41MjUgMi41MzcsNC41NDQgMi4zNDksNC41NDQgMS41MTgsNC41NDQgMC44NDgsMy44MzggMC44NDgsMi42OTUgTCAwLjg0OCwwIDAsMCB6IiBpZD0icGF0aDM0MDEiIHN0eWxlPSJmaWxsOiM1YTU3NTg7ZmlsbC1vcGFjaXR5OjE7ZmlsbC1ydWxlOm5vbnplcm87c3Ryb2tlOm5vbmUiLz48L2c+PGcgdHJhbnNmb3JtPSJ0cmFuc2xhdGUoNDg2Ljc2ODMsMTQ1LjU4OTkpIiBpZD0iZzM0MDMiPjxwYXRoIGQ9Ik0gMCwwIEMgLTAuMDE3LDEuMTI1IC0wLjU0NCwxLjU1NCAtMS4zMTIsMS41NTQgLTIuMjE0LDEuNTU0IC0yLjYxNiwxLjA1NCAtMi42NywwIEwgMCwwIHogbSAtMy41MTcsLTAuMzIxIGMgMCwxLjY2OSAwLjczMywyLjYwNyAyLjE5NSwyLjYwNyAxLjI2OCwwIDIuMDk5LC0wLjc1IDIuMDk5LC0yLjQ1NSAwLC0wLjEzNCAtMC4wMDksLTAuMjk1IC0wLjAxOCwtMC40MSBsIC0zLjQwOSwwIGMgMC4wNDMsLTEuNDAyIDAuNTYxLC0xLjg4NCAxLjcwMywtMS44ODQgMC41MzgsMCAwLjk5MSwwLjExNSAxLjQ0NywwLjMzOCBsIDAuMDk4LC0wLjcxMyBjIC0wLjQ0NSwtMC4yNDEgLTAuOTk5LC0wLjM5NCAtMS42NDIsLTAuMzk0IC0xLjc1MSwwIC0yLjQ3MywwLjkyMSAtMi40NzMsMi45MTEiIGlkPSJwYXRoMzQwNSIgc3R5bGU9ImZpbGw6IzVhNTc1ODtmaWxsLW9wYWNpdHk6MTtmaWxsLXJ1bGU6bm9uemVybztzdHJva2U6bm9uZSIvPjwvZz48L2c+PC9nPjwvZz48L2c+PC9zdmc+;" parent="1" vertex="1">
          <mxGeometry x="140" y="320" width="109.04" height="126" as="geometry" />
        </mxCell>
        <mxCell id="yoqmSqxD06JZfrdyBwhe-35" style="edgeStyle=orthogonalEdgeStyle;rounded=0;orthogonalLoop=1;jettySize=auto;html=1;fontSize=20;entryX=0;entryY=0.5;entryDx=0;entryDy=0;" parent="1" source="yoqmSqxD06JZfrdyBwhe-11" target="yoqmSqxD06JZfrdyBwhe-36" edge="1">
          <mxGeometry relative="1" as="geometry">
            <mxPoint x="560" y="383" as="targetPoint" />
          </mxGeometry>
        </mxCell>
        <mxCell id="yoqmSqxD06JZfrdyBwhe-11" value="" style="shape=image;html=1;verticalAlign=top;verticalLabelPosition=bottom;labelBackgroundColor=#ffffff;imageAspect=0;aspect=fixed;image=https://cdn2.iconfinder.com/data/icons/essential-web-1-1/50/group-customers-team-contacts-family-128.png;imageBackground=none;" parent="1" vertex="1">
          <mxGeometry x="320" y="352" width="62" height="62" as="geometry" />
        </mxCell>
        <mxCell id="yoqmSqxD06JZfrdyBwhe-42" style="edgeStyle=orthogonalEdgeStyle;rounded=0;orthogonalLoop=1;jettySize=auto;html=1;entryX=0;entryY=0.5;entryDx=0;entryDy=0;fontSize=20;" parent="1" source="yoqmSqxD06JZfrdyBwhe-14" target="yoqmSqxD06JZfrdyBwhe-41" edge="1">
          <mxGeometry relative="1" as="geometry" />
        </mxCell>
        <mxCell id="yoqmSqxD06JZfrdyBwhe-14" value="" style="shape=image;html=1;verticalAlign=top;verticalLabelPosition=bottom;labelBackgroundColor=#ffffff;imageAspect=0;aspect=fixed;image=https://cdn2.iconfinder.com/data/icons/essential-web-1-1/50/group-customers-team-contacts-family-128.png;imageBackground=none;" parent="1" vertex="1">
          <mxGeometry x="320" y="420" width="62" height="62" as="geometry" />
        </mxCell>
        <mxCell id="yoqmSqxD06JZfrdyBwhe-38" style="edgeStyle=orthogonalEdgeStyle;rounded=0;orthogonalLoop=1;jettySize=auto;html=1;fontSize=20;" parent="1" source="yoqmSqxD06JZfrdyBwhe-15" target="yoqmSqxD06JZfrdyBwhe-37" edge="1">
          <mxGeometry relative="1" as="geometry" />
        </mxCell>
        <mxCell id="yoqmSqxD06JZfrdyBwhe-15" value="" style="shape=image;html=1;verticalAlign=top;verticalLabelPosition=bottom;labelBackgroundColor=#ffffff;imageAspect=0;aspect=fixed;image=https://cdn2.iconfinder.com/data/icons/essential-web-1-1/50/group-customers-team-contacts-family-128.png;imageBackground=none;" parent="1" vertex="1">
          <mxGeometry x="320" y="280" width="62" height="62" as="geometry" />
        </mxCell>
        <mxCell id="yoqmSqxD06JZfrdyBwhe-40" style="edgeStyle=orthogonalEdgeStyle;rounded=0;orthogonalLoop=1;jettySize=auto;html=1;entryX=0;entryY=0.5;entryDx=0;entryDy=0;fontSize=20;" parent="1" source="yoqmSqxD06JZfrdyBwhe-16" target="yoqmSqxD06JZfrdyBwhe-39" edge="1">
          <mxGeometry relative="1" as="geometry" />
        </mxCell>
        <mxCell id="yoqmSqxD06JZfrdyBwhe-16" value="" style="shape=image;html=1;verticalAlign=top;verticalLabelPosition=bottom;labelBackgroundColor=#ffffff;imageAspect=0;aspect=fixed;image=https://cdn2.iconfinder.com/data/icons/essential-web-1-1/50/group-customers-team-contacts-family-128.png;imageBackground=none;" parent="1" vertex="1">
          <mxGeometry x="320" y="210" width="62" height="62" as="geometry" />
        </mxCell>
        <mxCell id="yoqmSqxD06JZfrdyBwhe-44" style="edgeStyle=orthogonalEdgeStyle;rounded=0;orthogonalLoop=1;jettySize=auto;html=1;fontSize=20;" parent="1" source="yoqmSqxD06JZfrdyBwhe-17" target="yoqmSqxD06JZfrdyBwhe-43" edge="1">
          <mxGeometry relative="1" as="geometry" />
        </mxCell>
        <mxCell id="yoqmSqxD06JZfrdyBwhe-17" value="" style="shape=image;html=1;verticalAlign=top;verticalLabelPosition=bottom;labelBackgroundColor=#ffffff;imageAspect=0;aspect=fixed;image=https://cdn2.iconfinder.com/data/icons/essential-web-1-1/50/group-customers-team-contacts-family-128.png;imageBackground=none;" parent="1" vertex="1">
          <mxGeometry x="320" y="490" width="62" height="62" as="geometry" />
        </mxCell>
        <mxCell id="yoqmSqxD06JZfrdyBwhe-51" style="edgeStyle=orthogonalEdgeStyle;rounded=0;orthogonalLoop=1;jettySize=auto;html=1;fontSize=20;" parent="1" source="yoqmSqxD06JZfrdyBwhe-36" target="yoqmSqxD06JZfrdyBwhe-50" edge="1">
          <mxGeometry relative="1" as="geometry" />
        </mxCell>
        <mxCell id="yoqmSqxD06JZfrdyBwhe-36" value="" style="shape=image;html=1;verticalAlign=top;verticalLabelPosition=bottom;labelBackgroundColor=#ffffff;imageAspect=0;aspect=fixed;image=https://cdn4.iconfinder.com/data/icons/file-extensions-1/64/xlss-128.png;fontSize=20;" parent="1" vertex="1">
          <mxGeometry x="560" y="354" width="58" height="58" as="geometry" />
        </mxCell>
        <mxCell id="yoqmSqxD06JZfrdyBwhe-52" style="edgeStyle=orthogonalEdgeStyle;rounded=0;orthogonalLoop=1;jettySize=auto;html=1;entryX=0;entryY=0.5;entryDx=0;entryDy=0;fontSize=20;" parent="1" source="yoqmSqxD06JZfrdyBwhe-37" target="yoqmSqxD06JZfrdyBwhe-50" edge="1">
          <mxGeometry relative="1" as="geometry" />
        </mxCell>
        <mxCell id="yoqmSqxD06JZfrdyBwhe-37" value="" style="shape=image;html=1;verticalAlign=top;verticalLabelPosition=bottom;labelBackgroundColor=#ffffff;imageAspect=0;aspect=fixed;image=https://cdn4.iconfinder.com/data/icons/file-extensions-1/64/xlss-128.png;fontSize=20;" parent="1" vertex="1">
          <mxGeometry x="560" y="282" width="58" height="58" as="geometry" />
        </mxCell>
        <mxCell id="yoqmSqxD06JZfrdyBwhe-53" style="edgeStyle=orthogonalEdgeStyle;rounded=0;orthogonalLoop=1;jettySize=auto;html=1;entryX=0;entryY=0.5;entryDx=0;entryDy=0;fontSize=20;" parent="1" source="yoqmSqxD06JZfrdyBwhe-39" target="yoqmSqxD06JZfrdyBwhe-50" edge="1">
          <mxGeometry relative="1" as="geometry" />
        </mxCell>
        <mxCell id="yoqmSqxD06JZfrdyBwhe-39" value="" style="shape=image;html=1;verticalAlign=top;verticalLabelPosition=bottom;labelBackgroundColor=#ffffff;imageAspect=0;aspect=fixed;image=https://cdn4.iconfinder.com/data/icons/file-extensions-1/64/xlss-128.png;fontSize=20;" parent="1" vertex="1">
          <mxGeometry x="560" y="211" width="58" height="58" as="geometry" />
        </mxCell>
        <mxCell id="yoqmSqxD06JZfrdyBwhe-54" style="edgeStyle=orthogonalEdgeStyle;rounded=0;orthogonalLoop=1;jettySize=auto;html=1;entryX=0;entryY=0.5;entryDx=0;entryDy=0;fontSize=20;" parent="1" edge="1">
          <mxGeometry relative="1" as="geometry">
            <mxPoint x="612" y="452" as="sourcePoint" />
            <mxPoint x="704" y="383" as="targetPoint" />
            <Array as="points">
              <mxPoint x="674" y="452" />
              <mxPoint x="674" y="383" />
            </Array>
          </mxGeometry>
        </mxCell>
        <mxCell id="yoqmSqxD06JZfrdyBwhe-41" value="" style="shape=image;html=1;verticalAlign=top;verticalLabelPosition=bottom;labelBackgroundColor=#ffffff;imageAspect=0;aspect=fixed;image=https://cdn4.iconfinder.com/data/icons/file-extensions-1/64/xlss-128.png;fontSize=20;" parent="1" vertex="1">
          <mxGeometry x="560" y="423" width="58" height="58" as="geometry" />
        </mxCell>
        <mxCell id="yoqmSqxD06JZfrdyBwhe-55" style="edgeStyle=orthogonalEdgeStyle;rounded=0;orthogonalLoop=1;jettySize=auto;html=1;entryX=0;entryY=0.5;entryDx=0;entryDy=0;fontSize=20;" parent="1" edge="1">
          <mxGeometry relative="1" as="geometry">
            <mxPoint x="622" y="521.0769230769231" as="sourcePoint" />
            <mxPoint x="714" y="383" as="targetPoint" />
            <Array as="points">
              <mxPoint x="674" y="521" />
              <mxPoint x="674" y="383" />
            </Array>
          </mxGeometry>
        </mxCell>
        <mxCell id="yoqmSqxD06JZfrdyBwhe-43" value="" style="shape=image;html=1;verticalAlign=top;verticalLabelPosition=bottom;labelBackgroundColor=#ffffff;imageAspect=0;aspect=fixed;image=https://cdn4.iconfinder.com/data/icons/file-extensions-1/64/xlss-128.png;fontSize=20;" parent="1" vertex="1">
          <mxGeometry x="560" y="492" width="58" height="58" as="geometry" />
        </mxCell>
        <mxCell id="yoqmSqxD06JZfrdyBwhe-47" value="&lt;b&gt;Documents non normalisés,&amp;nbsp; composés de plusieurs feuilles&lt;/b&gt;" style="text;html=1;strokeColor=none;fillColor=none;align=center;verticalAlign=middle;whiteSpace=wrap;rounded=0;fontSize=20;" parent="1" vertex="1">
          <mxGeometry x="496" y="620" width="186" height="50" as="geometry" />
        </mxCell>
        <mxCell id="yoqmSqxD06JZfrdyBwhe-49" value="" style="rounded=1;whiteSpace=wrap;html=1;fontSize=20;fillColor=#ffe6cc;strokeColor=#d79b00;" parent="1" vertex="1">
          <mxGeometry x="710" y="188" width="270" height="390" as="geometry" />
        </mxCell>
        <mxCell id="yoqmSqxD06JZfrdyBwhe-48" value="" style="shape=image;verticalLabelPosition=bottom;labelBackgroundColor=default;verticalAlign=top;aspect=fixed;imageAspect=0;image=data:image/svg+xml,PHN2ZyB4bWxuczppbmtzY2FwZT0iaHR0cDovL3d3dy5pbmtzY2FwZS5vcmcvbmFtZXNwYWNlcy9pbmtzY2FwZSIgeG1sbnM6c29kaXBvZGk9Imh0dHA6Ly9zb2RpcG9kaS5zb3VyY2Vmb3JnZS5uZXQvRFREL3NvZGlwb2RpLTAuZHRkIiB4bWxucz0iaHR0cDovL3d3dy53My5vcmcvMjAwMC9zdmciIHhtbG5zOnN2Zz0iaHR0cDovL3d3dy53My5vcmcvMjAwMC9zdmciIHdpZHRoPSI4OG1tIiBoZWlnaHQ9IjQ2bW0iIHZpZXdCb3g9IjAgMCA4OCA0NiIgdmVyc2lvbj0iMS4xIiBpZD0ic3ZnMTMyMSIgaW5rc2NhcGU6dmVyc2lvbj0iMS4xLjEgKDNiZjVhZTBkMjUsIDIwMjEtMDktMjApIiBzb2RpcG9kaTpkb2NuYW1lPSJlZXJndGh0eWd0cmZlLnN2ZyI+JiN4YTsgIDxzb2RpcG9kaTpuYW1lZHZpZXcgaWQ9Im5hbWVkdmlldzEzMjMiIHBhZ2Vjb2xvcj0iI2ZmZmZmZiIgYm9yZGVyY29sb3I9IiM2NjY2NjYiIGJvcmRlcm9wYWNpdHk9IjEuMCIgaW5rc2NhcGU6cGFnZXNoYWRvdz0iMiIgaW5rc2NhcGU6cGFnZW9wYWNpdHk9IjAuMCIgaW5rc2NhcGU6cGFnZWNoZWNrZXJib2FyZD0iMCIgaW5rc2NhcGU6ZG9jdW1lbnQtdW5pdHM9Im1tIiBzaG93Z3JpZD0iZmFsc2UiIGlua3NjYXBlOnpvb209IjIuNzg2NTg4MSIgaW5rc2NhcGU6Y3g9IjEzNC45MzIwMyIgaW5rc2NhcGU6Y3k9IjcyLjQ5MDA4MiIgaW5rc2NhcGU6d2luZG93LXdpZHRoPSIxOTIwIiBpbmtzY2FwZTp3aW5kb3ctaGVpZ2h0PSI5ODYiIGlua3NjYXBlOndpbmRvdy14PSItMTEiIGlua3NjYXBlOndpbmRvdy15PSItMTEiIGlua3NjYXBlOndpbmRvdy1tYXhpbWl6ZWQ9IjEiIGlua3NjYXBlOmN1cnJlbnQtbGF5ZXI9ImxheWVyMSIvPiYjeGE7ICA8ZGVmcyBpZD0iZGVmczEzMTgiLz4mI3hhOyAgPGcgaW5rc2NhcGU6bGFiZWw9IkxheWVyIDEiIGlua3NjYXBlOmdyb3VwbW9kZT0ibGF5ZXIiIGlkPSJsYXllcjEiPiYjeGE7ICAgIDxwYXRoIGQ9Ik0gMC43NTkwODQ2LDAuNjAwMTAxMyBIIDI4LjAxOTM2OCBWIDEwLjQxNjE0MiBIIDAuNzU5MDg0NiBaIiBmaWxsPSIjZmZmZmZmIiBpZD0icGF0aDIiIHN0eWxlPSJzdHJva2Utd2lkdGg6MC4wNjc4NTcyIi8+JiN4YTsgICAgPHBhdGggZD0ibSAyNC43MjQ1MTcsNDMuMDUxMjgxIGMgMC4yMDgwOTUsMCAwLjM4MTUwNywwLjEzODczIDAuMjc3NDU5LDAuNTIwMjM2IGwgLTAuOTM2NDI1LDAuMjA4MDk1IGMgMC4xNzM0MTIsLTAuMzgxNTA3IDAuNDUwODcyLC0wLjcyODMzMSAwLjY1ODk2NiwtMC43MjgzMzEgbSAwLjUyMDIzNiwxLjUyNjAyNiBoIC0wLjE3MzQxMiBjIC0wLjI0Mjc3NywwLjI3NzQ2IC0wLjQ4NTU1NCwwLjQ4NTU1NCAtMC43MjgzMzEsMC40ODU1NTQgLTAuMjQyNzc2LDAgLTAuMzgxNTA2LC0wLjEzODcyOSAtMC4zODE1MDYsLTAuNDg1NTU0IDAsLTAuMTM4NzI5IDAsLTAuMjc3NDU5IDAuMDM0NjgsLTAuNDE2MTg5IGwgMS40OTEzNDQsLTAuNDg1NTU0IGMgMC4yNzc0NiwtMC42OTM2NDggLTAuMDY5MzYsLTEuMDA1NzkgLTAuNDg1NTU0LC0xLjAwNTc5IC0wLjY5MzY0OCwwIC0xLjUyNjAyNiwxLjE3OTIwMyAtMS41MjYwMjYsMi4yMTk2NzUgMCwwLjQ1MDg3MiAwLjIwODA5NSwwLjcyODMzMSAwLjU1NDkxOSwwLjcyODMzMSAwLjQ1MDg3MSwwIDAuODY3MDYsLTAuNDE2MTg5IDEuMjEzODg0LC0xLjA0MDQ3MyBtIC0wLjI3NzQ1OSwtMi4xODQ5OTIgMS4wNDA0NzMsLTAuOTcxMTA4IFYgNDEuMzE3MTYgaCAtMC41NTQ5MTkgbCAtMC42NTg5NjYsMS4xMDk4MzcgaCAwLjE3MzQxMiB6IG0gLTMuMjI1NDY1LDAuNjkzNjQ4IGggMC40ODU1NTQgbCAtMC43OTc2OTYsMi4xNTAzMSBjIC0wLjA2OTM3LDAuMTczNDEyIDAuMDM0NjgsMC4zODE1MDcgMC4yMDgwOTUsMC4zODE1MDcgMC40NTA4NzEsMCAxLjE3OTIwMiwtMC40NTA4NzEgMS40MjE5NzksLTEuMDQwNDczIGggLTAuMTM4NzMgYyAtMC4yMDgwOTQsMC4yMDgwOTUgLTAuNTg5NjAxLDAuNDg1NTU0IC0wLjkwMTc0MywwLjU1NDkxOSBsIDAuNzI4MzMxLC0yLjAxMTU4IGggMC43MjgzMzEgbCAwLjEwNDA0NywtMC4zMTIxNDIgaCAtMC43MjgzMjkgbCAwLjI3NzQ2LC0wLjc2MzAxMyBoIC0wLjI3NzQ2IGwgLTAuNTIwMjM2LDAuNzYzMDEzIC0wLjYyNDI4MywwLjA2OTM2IHYgMC4yMDgwOTQgeiBtIC0wLjY5MzY0OCwtMC4xMDQwNDcgYyAwLjA2OTM3LC0wLjIwODA5NCAtMC4wNjkzNiwtMC4zMTIxNDIgLTAuMTczNDEyLC0wLjMxMjE0MiAtMC40MTYxODksMCAtMC45MzY0MjYsMC4zODE1MDcgLTEuMTQ0NTIsMC45MzY0MjYgaCAwLjEzODcyOSBjIDAuMTM4NzMsLTAuMjA4MDk1IDAuMzgxNTA3LC0wLjQxNjE4OSAwLjU4OTYwMiwtMC40NTA4NzIgbCAtMC44MzIzNzgsMi4xNTAzMSBjIC0wLjA2OTM2LDAuMjA4MDk1IDAuMDY5MzYsMC4zMTIxNDIgMC4xNzM0MTIsMC4zMTIxNDIgMC40MTYxODksMCAwLjkwMTc0MiwtMC4zODE1MDcgMS4xMDk4MzcsLTAuOTM2NDI1IGggLTAuMTM4NzMgYyAtMC4xMzg3MjksMC4yMDgwOTQgLTAuMzgxNTA2LDAuNDE2MTg5IC0wLjU4OTYwMSwwLjQ1MDg3MSB6IG0gMC4xNzM0MTIsLTEuMDc1MTU1IGMgMC4yMDgwOTQsMCAwLjM0NjgyNCwtMC4xNzM0MTIgMC4zNDY4MjQsLTAuMzQ2ODI0IDAsLTAuMjA4MDk1IC0wLjE3MzQxMiwtMC4zNDY4MjQgLTAuMzQ2ODI0LC0wLjM0NjgyNCAtMC4yMDgwOTUsMCAtMC4zNDY4MjQsMC4xNzM0MTIgLTAuMzQ2ODI0LDAuMzQ2ODI0IC0wLjAzNDY4LDAuMTczNDEyIDAuMTM4NzI5LDAuMzQ2ODI0IDAuMzQ2ODI0LDAuMzQ2ODI0IG0gLTQuNzg2MTc0LDMuMjk0ODMgYyAtMC4xMDQwNDcsMC4yNDI3NzcgMCwwLjQxNjE4OSAwLjI0Mjc3NywwLjQxNjE4OSAwLjEzODczLDAgMC4yMDgwOTQsLTAuMDM0NjggMC4yNzc0NTksLTAuMjA4MDk1IGwgMC41ODk2MDEsLTEuNTI2MDI2IGMgMC4yNzc0NiwtMC4zMTIxNDIgMC43OTc2OTYsLTAuNjU4OTY2IDEuMDQwNDczLC0wLjY1ODk2NiAwLjE3MzQxMiwwIDAuMTM4NzMsMC4xMzg3MyAwLjAzNDY4LDAuMzEyMTQyIGwgLTAuODY3MDYsMS42OTk0MzggYyAtMC4wNjkzNywwLjE3MzQxMiAwLjAzNDY4LDAuMzgxNTA3IDAuMjA4MDk0LDAuMzgxNTA3IDAuNDE2MTg5LDAgMC45MzY0MjYsLTAuMzgxNTA3IDEuMTQ0NTIsLTAuOTM2NDI1IGggLTAuMTM4NzI5IGMgLTAuMTM4NzMsMC4yMDgwOTQgLTAuMzgxNTA3LDAuNDE2MTg5IC0wLjU4OTYwMiwwLjQ1MDg3MSBMIDE5LjE0MDY0NCw0My42MDYyIGMgMC4xMDQwNDcsLTAuMjA4MDk1IDAuMTM4NzI5LC0wLjM4MTUwNyAwLjEzODcyOSwtMC41MjAyMzcgMCwtMC4yNDI3NzcgLTAuMTM4NzI5LC0wLjQxNjE4OSAtMC40MTYxODksLTAuNDE2MTg5IC0wLjM4MTUwNiwwIC0wLjc2MzAxMywwLjQxNjE4OSAtMS4yMTM4ODQsMC45MzY0MjYgdiAtMC40MTYxODkgYyAwLC0wLjI3NzQ2IC0wLjEwNDA0OCwtMC41NTQ5MTkgLTAuMzQ2ODI1LC0wLjU1NDkxOSAtMC4xNzM0MTIsMCAtMC4zMTIxNDEsMC4xMzg3MyAtMC40NTA4NzEsMC4zNDY4MjQgdiAwLjA2OTM2IGMgMC4yNzc0NTksMCAwLjQxNjE4OSwwLjQxNjE4OSAwLjIwODA5NCwwLjgzMjM3OCB6IG0gMCwtMS44NzI4NTEgYyAwLjEwNDA0NywtMC4zNDY4MjQgMC4wMzQ2OCwtMC42NTg5NjYgLTAuMjA4MDk1LC0wLjY1ODk2NiAtMC4zMTIxNDEsMCAtMC40MTYxODksMC4yNDI3NzcgLTAuNzI4MzMsMC45MzY0MjYgdiAtMC40MTYxODkgYyAwLC0wLjI3NzQ2IC0wLjEwNDA0OCwtMC41NTQ5MTkgLTAuMzQ2ODI1LC0wLjU1NDkxOSAtMC4zMTIxNDEsMCAtMC41ODk2MDEsMC40ODU1NTQgLTAuNzk3Njk1LDAuOTM2NDI1IGggMC4xMzg3MjkgYyAwLjEzODczLC0wLjIwODA5NCAwLjI3NzQ2LC0wLjM0NjgyNCAwLjM4MTUwNywtMC4zNDY4MjQgMC4xMzg3MywwIDAuMjA4MDk1LDAuMjA4MDk1IDAsMC42NTg5NjYgbCAtMC41ODk2MDEsMS4yODMyNSBjIC0wLjEwNDA0NywwLjI0Mjc3NiAwLDAuNDE2MTg5IDAuMjQyNzc3LDAuNDE2MTg5IDAuMTM4NzMsMCAwLjIwODA5NCwtMC4wMzQ2OCAwLjI3NzQ1OSwtMC4yMDgwOTUgbCAwLjU4OTYwMSwtMS41MjYwMjYgYyAwLjE3MzQxMiwtMC4yMDgwOTUgMC4zMTIxNDIsLTAuMzgxNTA3IDAuNDg1NTU0LC0wLjU1NDkxOSBoIDAuNTU0OTE5IHogbSAtMy4zMjk1MSwtMC4yNzc0NTkgYyAwLjIwODA5NCwwIDAuMzgxNTA2LDAuMTM4NzMgMC4yNzc0NTksMC41MjAyMzYgbCAtMC45MzY0MjUsMC4yMDgwOTUgYyAwLjE3MzQxMiwtMC4zODE1MDcgMC40NTA4NzEsLTAuNzI4MzMxIDAuNjU4OTY2LC0wLjcyODMzMSBtIDAuNTIwMjM2LDEuNTI2MDI2IGggLTAuMTczNDEyIGMgLTAuMjQyNzc3LDAuMjc3NDYgLTAuNDg1NTU0LDAuNDg1NTU0IC0wLjcyODMzMSwwLjQ4NTU1NCAtMC4yNDI3NzcsMCAtMC4zODE1MDYsLTAuMTM4NzI5IC0wLjM4MTUwNiwtMC40ODU1NTQgMCwtMC4xMzg3MjkgMCwtMC4yNzc0NTkgMC4wMzQ2OCwtMC40MTYxODkgbCAxLjQ5MTM0NCwtMC40ODU1NTQgYyAwLjI3NzQ1OSwtMC42OTM2NDggLTAuMDY5MzYsLTEuMDA1NzkgLTAuNDg1NTU0LC0xLjAwNTc5IC0wLjY5MzY0OCwwIC0xLjUyNjAyNiwxLjE3OTIwMyAtMS41MjYwMjYsMi4yMTk2NzUgMCwwLjQ1MDg3MiAwLjIwODA5NCwwLjcyODMzMSAwLjU1NDkxOCwwLjcyODMzMSAwLjQ1MDg3MiwwIDAuODY3MDYxLC0wLjQxNjE4OSAxLjIxMzg4NSwtMS4wNDA0NzMgbSAtMy41Mzc2MDcsLTEuNDkxMzQ0IGggMC40ODU1NTQgbCAtMC43OTc2OTUsMi4xNTAzMSBjIC0wLjA2OTM3LDAuMTczNDEyIDAuMDM0NjgsMC4zODE1MDcgMC4yMDgwOTQsMC4zODE1MDcgMC40NTA4NzEsMCAxLjE3OTIwMiwtMC40NTA4NzEgMS40MjE5NzksLTEuMDQwNDczIGggLTAuMTM4NzI5IGMgLTAuMjA4MDk1LDAuMjA4MDk1IC0wLjU4OTYwMiwwLjQ4NTU1NCAtMC45MDE3NDMsMC41NTQ5MTkgbCAwLjcyODMzLC0yLjAxMTU4IGggMC43MjgzMzEgbCAwLjEwNDA0NywtMC4zMTIxNDIgaCAtMC43MjgzMyBsIDAuMjc3NDYxLC0wLjc2MzAxMyBoIC0wLjI3NzQ1OSBsIC0wLjUyMDIzNywwLjc2MzAxMyAtMC42MjQyODMsMC4wNjkzNiB2IDAuMjA4MDk0IHogbSAtMi43MDUyMjgsMS42NjQ3NTYgYyAwLC0wLjY1ODk2NSAwLjcyODMzMDgsLTEuNTYwNzA4IDEuMTQ0NTE5OCwtMS41NjA3MDggMC4xMDQwNDczLDAgMC4xNzM0MTIxLDAgMC4yNDI3NzcsMC4wMzQ2OCBsIC0wLjQxNjE4OTEsMS4xNDQ1MiBDIDguMTExNjM4OCw0NC42ODEzNTUgNy43MzAxMzIyLDQ1LjAyODE3OSA3LjU1NjcyMDEsNDUuMDI4MTc5IDcuNDUyNjcyOCw0NS4wNjI4NjEgNy4zODMzMDgsNDQuOTU4ODE0IDcuMzgzMzA4LDQ0Ljc1MDcxOSBNIDkuNjM3NjY1LDQyLjUzMTA0NSBIIDkuMzk0ODg4MyBsIC0wLjI0Mjc3NjksMC4yNDI3NzcgaCAtMC4wNjkzNjUgYyAtMS4yNDg1NjcxLDAgLTIuMjg5MDM5NiwxLjM4NzI5NiAtMi4yODkwMzk2LDIuMzkzMDg3IDAsMC4yNzc0NTkgMC4xNzM0MTIxLDAuNDUwODcxIDAuNDUwODcxNCwwLjQ1MDg3MSAwLjMxMjE0MTgsMCAwLjYyNDI4MzYsLTAuNDUwODcxIDAuOTcxMTA3OCwtMC45MzY0MjUgdiAwLjE3MzQxMiBjIC0wLjAzNDY4MywwLjQ4NTU1NCAwLjEwNDA0NzIsMC43NjMwMTMgMC4zODE1MDY2LDAuNzYzMDEzIDAuMzEyMTQxNywwIDAuNTg5NjAxMSwtMC40ODU1NTQgMC43OTc2OTU2LC0wLjkzNjQyNSBIIDkuMjU2MTU4NiBjIC0wLjEzODcyOTcsMC4yMDgwOTQgLTAuMjc3NDU5MywwLjM0NjgyNCAtMC4zODE1MDY2LDAuMzQ2ODI0IC0wLjEwNDA0NzIsMCAtMC4yMDgwOTQ1LC0wLjIwODA5NSAwLC0wLjY1ODk2NiB6IE0gNy4wMzY0ODM4LDQzLjMyODc0IGMgMC4xMDQwNDczLC0wLjM0NjgyNCAwLjAzNDY4MiwtMC42NTg5NjYgLTAuMjA4MDk0NSwtMC42NTg5NjYgLTAuMzEyMTQxOCwwIC0wLjQxNjE4OSwwLjI0Mjc3NyAtMC43MjgzMzA4LDAuOTM2NDI2IHYgLTAuNDE2MTg5IGMgMCwtMC4yNzc0NiAtMC4xMDQwNDczLC0wLjU1NDkxOSAtMC4zNDY4MjQyLC0wLjU1NDkxOSAtMC4zMTIxNDE4LDAgLTAuNTg5NjAxMSwwLjQ4NTU1NCAtMC43OTc2OTU2LDAuOTM2NDI1IGggMC4xMzg3Mjk2IGMgMC4xMzg3Mjk3LC0wLjIwODA5NCAwLjI3NzQ1OTQsLTAuMzQ2ODI0IDAuMzgxNTA2NiwtMC4zNDY4MjQgMC4xMzg3Mjk3LDAgMC4yMDgwOTQ2LDAuMjA4MDk1IDAsMC42NTg5NjYgbCAtMC41ODk2MDExLDEuMjgzMjUgYyAtMC4xMDQwNDcyLDAuMjQyNzc2IDAsMC40MTYxODkgMC4yNDI3NzcsMC40MTYxODkgMC4xMzg3Mjk2LDAgMC4yMDgwOTQ1LC0wLjAzNDY4IDAuMjc3NDU5MywtMC4yMDgwOTUgTCA1Ljk5NjAxMTIsNDMuODQ4OTc3IEMgNi4xNjk0MjMzLDQzLjY0MDg4MiA2LjMwODE1Myw0My40Njc0NyA2LjQ4MTU2NTEsNDMuMjk0MDU4IGggMC41NTQ5MTg3IHogbSAtNC4xNjE4OTAzLDIuMTg0OTkzIDAuMDY5MzY1LC0wLjE3MzQxMiBDIDIuMjE1NjI3Niw0NS4yMDE1OTEgMi4xNDYyNjI3LDQ1LjIwMTU5MSAyLjQyMzcyMjEsNDQuNDM4NTc4IGwgMC4yNzc0NTkzLC0wLjc5NzY5NiBoIDAuNzk3Njk1NyBjIDAuMzQ2ODI0MiwwIDAuMzQ2ODI0MiwwLjEzODczIDAuMzEyMTQxNywwLjUyMDIzNiBIIDQuMDE5MTEzNCBMIDQuNTA0NjY3Miw0Mi44NDMxODYgSCA0LjI5NjU3MjcgQyA0LjEyMzE2MDYsNDMuMTU1MzI4IDMuOTg0NDMwOSw0My4zNjM0MjMgMy42MDI5MjQzLDQzLjM2MzQyMyBIIDIuODA1MjI4NyBsIDAuNDE2MTg5LC0xLjE0NDUyIGMgMC4xMzg3Mjk3LC0wLjM0NjgyNCAwLjIwODA5NDUsLTAuNDUwODcyIDAuNjkzNjQ4NCwtMC40NTA4NzIgaCAwLjM0NjgyNDIgYyAwLjQ4NTU1MzksMCAwLjU1NDkxODcsMC4xMzg3MyAwLjU1NDkxODcsMC42NTg5NjYgaCAwLjIwODA5NDUgbCAwLjE3MzQxMjEsLTAuOTAxNzQyIGggLTIuOTgyNjg4IGwgLTAuMDY5MzY1LDAuMTczNDEyIGMgMC41ODk2MDExLDAuMTA0MDQ3IDAuNjI0MjgzNiwwLjE3MzQxMiAwLjM0NjgyNDIsMC45MDE3NDMgbCAtMC42NTg5NjU5LDEuNzY4ODAzIGMgLTAuMjc3NDU5NCwwLjcyODMzMSAtMC4zODE1MDY3LDAuNzk3Njk2IC0xLjA0MDQ3MjYsMC45MDE3NDMgbCAtMC4wMzQ2ODIsMC4xNzM0MTIgSCAyLjg3NDU5MzUgWiBNIDE3LjUxMDU3NCwzNi4zMjI4OTIgYyAwLjIwODA5NCwwIDAuMzgxNTA3LDAuMTM4NzI5IDAuMjc3NDU5LDAuNTIwMjM2IGwgLTAuOTM2NDI1LDAuMjA4MDk0IGMgMC4xNzM0MTIsLTAuNDE2MTg5IDAuNDUwODcxLC0wLjcyODMzIDAuNjU4OTY2LC0wLjcyODMzIG0gMC41MjAyMzYsMS40OTEzNDQgaCAtMC4xNzM0MTIgYyAtMC4yNDI3NzcsMC4yNzc0NTkgLTAuNDg1NTU0LDAuNDg1NTU0IC0wLjcyODMzMSwwLjQ4NTU1NCAtMC4yNDI3NzcsMCAtMC4zODE1MDYsLTAuMTM4NzMgLTAuMzgxNTA2LC0wLjQ4NTU1NCAwLC0wLjEzODczIDAsLTAuMjc3NDYgMC4wMzQ2OCwtMC40MTYxODkgbCAxLjQ5MTM0NCwtMC40ODU1NTQgYyAwLjI3NzQ2LC0wLjY5MzY0OSAtMC4wNjkzNiwtMS4wMDU3OSAtMC40ODU1NTQsLTEuMDA1NzkgLTAuNjkzNjQ4LDAgLTEuNTI2MDI2LDEuMTc5MjAyIC0xLjUyNjAyNiwyLjIxOTY3NCAwLDAuNDUwODcyIDAuMjA4MDk0LDAuNzI4MzMxIDAuNTU0OTE5LDAuNzI4MzMxIDAuNDUwODcxLDAgMC44NjcwNiwtMC4zODE1MDYgMS4yMTM4ODQsLTEuMDQwNDcyIG0gLTAuMzEyMTQyLC0yLjE4NDk5MyAxLjA0MDQ3MywtMC45NzExMDcgViAzNC41NTQwODggSCAxOC4yMDQyMiBsIC0wLjY1ODk2NiwxLjEwOTgzOCBoIDAuMTczNDEyIHogbSAtMy4yMjU0NjUsMC42OTM2NDkgaCAwLjQ4NTU1NCBsIC0wLjc5NzY5NSwyLjE1MDMxIGMgLTAuMDY5MzYsMC4xNzM0MTIgMC4wMzQ2OCwwLjM4MTUwNiAwLjIwODA5NCwwLjM4MTUwNiAwLjQ1MDg3MiwwIDEuMTc5MjAyLC0wLjQ1MDg3MSAxLjQyMTk3OSwtMS4wNDA0NzIgaCAtMC4xMzg3MjkgYyAtMC4yMDgwOTUsMC4yMDgwOTQgLTAuNTg5NjAxLDAuNDg1NTU0IC0wLjkwMTc0MywwLjU1NDkxOCBsIDAuNzI4MzMxLC0yLjAxMTU4IGggMC43MjgzMyBsIDAuMTA0MDQ4LC0wLjMxMjE0MiBoIC0wLjcyODMzMSBsIDAuMjc3NDU5LC0wLjc2MzAxMyBoIC0wLjI3NzQ1OSBsIC0wLjUyMDIzNiwwLjc2MzAxMyAtMC42MjQyODQsMC4wNjkzNiB2IDAuMjA4MDk1IHogbSAtMC42NTg5NjUsLTAuMTA0MDQ4IGMgMC4wNjkzNiwtMC4yMDgwOTQgLTAuMDY5MzYsLTAuMzEyMTQxIC0wLjE3MzQxMywtMC4zMTIxNDEgLTAuNDE2MTg5LDAgLTAuOTM2NDI1LDAuMzgxNTA2IC0xLjE0NDUxOSwwLjkzNjQyNSBoIDAuMTM4NzMxIGMgMC4xMzg3MywtMC4yMDgwOTUgMC4zODE1MDcsLTAuNDE2MTg5IDAuNTg5NjAxLC0wLjQ1MDg3MSBsIC0wLjgzMjM3OCwyLjE1MDMwOSBjIC0wLjA2OTM2LDAuMjA4MDk1IDAuMDY5MzYsMC4zMTIxNDIgMC4xNzM0MTIsMC4zMTIxNDIgMC40MTYxODksMCAwLjkwMTc0MywtMC4zODE1MDYgMS4xMDk4MzgsLTAuOTM2NDI1IGggLTAuMTM4NzMgYyAtMC4xMzg3MjksMC4yMDgwOTQgLTAuMzgxNTA2LDAuNDE2MTg5IC0wLjU4OTYwMSwwLjQ1MDg3MSB6IG0gMC4xMzg3MjksLTEuMDc1MTU1IGMgMC4yMDgwOTUsMCAwLjM0NjgyNCwtMC4xNzM0MTIgMC4zNDY4MjQsLTAuMzQ2ODI0IDAsLTAuMjA4MDk0IC0wLjE3MzQxMiwtMC4zNDY4MjQgLTAuMzQ2ODI0LC0wLjM0NjgyNCAtMC4yMDgwOTQsMCAtMC4zNDY4MjQsMC4xNzM0MTIgLTAuMzQ2ODI0LDAuMzQ2ODI0IDAsMC4yMDgwOTUgMC4xMzg3MywwLjM0NjgyNCAwLjM0NjgyNCwwLjM0NjgyNCBtIC0yLjg3ODY0MSwzLjIyNTQ2NSAxLjQ5MTM0NCwtMy45NTM3OTUgLTAuMDM0NjgsLTAuMDY5MzYgLTAuOTM2NDI1LDAuMTA0MDQ3IHYgMC4xMDQwNDcgbCAwLjE3MzQxMiwwLjEzODczIGMgMC4xNzM0MTIsMC4xMzg3MyAwLjEwNDA0NywwLjI0Mjc3NyAtMC4wMzQ2OCwwLjY1ODk2NiBsIC0xLjE3OTIwMiwzLjA4NjczNSBjIC0wLjA2OTM2LDAuMTczNDEyIDAuMDM0NjgsMC4zODE1MDcgMC4yMDgwOTUsMC4zODE1MDcgMC40MTYxODksMCAwLjkwMTc0MywtMC4zODE1MDcgMS4xMDk4MzcsLTAuOTM2NDI1IGggLTAuMTM4NzMgYyAtMC4xMzg3MjksMC4yNDI3NzYgLTAuNDUwODcxLDAuNDUwODcxIC0wLjY1ODk2NiwwLjQ4NTU1MyBNIDguMjUwMzY4NSwzOC4wMjIzMyBjIDAsLTAuNjU4OTY2IDAuNzI4MzMwOCwtMS41NjA3MDkgMS4xNDQ1MTk4LC0xLjU2MDcwOSAwLjEwNDA0NzMsMCAwLjE3MzQxMTcsMCAwLjI0Mjc3NjcsMC4wMzQ2OCBsIC0wLjQxNjE4ODgsMS4xNDQ1MiBjIC0wLjI0Mjc3NjksMC4zMTIxNDEgLTAuNjI0MjgzNSwwLjY1ODk2NiAtMC43OTc2OTU2LDAuNjU4OTY2IC0wLjEzODcyOTcsMCAtMC4xNzM0MTIxLC0wLjEwNDA0OCAtMC4xNzM0MTIxLC0wLjI3NzQ2IG0gMi4yNTQzNTY1LC0yLjIxOTY3MiBoIC0wLjI0Mjc3NyBsIC0wLjI0Mjc3NywwLjI0Mjc3NyBoIC0wLjAzNDY4IGMgLTEuMjQ4NTY2NywwIC0yLjI4OTAzOTIsMS4zODcyOTcgLTIuMjg5MDM5MiwyLjM5MzA4NyAwLDAuMjc3NDYgMC4xNzM0MTIxLDAuNDUwODcyIDAuNDUwODcxNCwwLjQ1MDg3MiAwLjMxMjE0MTgsMCAwLjYyNDI4MzYsLTAuNDUwODcyIDAuOTcxMTA3NywtMC45MzY0MjYgdiAwLjE3MzQxMiBjIC0wLjAzNDY4MiwwLjQ4NTU1NCAwLjEwNDA0NzMsMC43NjMwMTQgMC4zODE1MDY3LDAuNzYzMDE0IDAuMzEyMTQxNCwwIDAuNTg5NjAwNCwtMC40ODU1NTQgMC43OTc2OTU0LC0wLjkzNjQyNiBoIC0wLjEzODczIGMgLTAuMTM4NzMsMC4yMDgwOTUgLTAuMjc3NDU5LDAuMzQ2ODI1IC0wLjM4MTUwNiwwLjM0NjgyNSAtMC4xMDQwNDcsMCAtMC4yMDgwOTUsLTAuMjA4MDk1IDAsLTAuNjU4OTY2IHogbSAtNS40Nzk4MjE1LDMuNTcyMjkgYyAwLC0wLjI3NzQ2IDAuMjc3NDU5NCwtMC40NTA4NzIgMC42NTg5NjYsLTAuNjI0Mjg0IDAuMTM4NzI5NiwwLjA2OTM2IDAuMzEyMTQxNywwLjEzODczIDAuNTg5NjAxMSwwLjIwODA5NSAwLjQxNjE4OSwwLjEzODcyOSAwLjU1NDkxODcsMC4xNzM0MTIgMC41NTQ5MTg3LDAuMzEyMTQxIDAsMC4yNzc0NiAtMC40NTA4NzE1LDAuNDUwODcyIC0xLjA3NTE1NSwwLjQ1MDg3MiAtMC40ODU1NTM5LDAuMDM0NjggLTAuNzI4MzMwOCwtMC4wNjkzNiAtMC43MjgzMzA4LC0wLjM0NjgyNCBtIDEuMTA5ODM3NCwtMS43MzQxMjEgYyAtMC4xNzM0MTIxLDAgLTAuMjQyNzc2OSwtMC4xMzg3MyAtMC4yNDI3NzY5LC0wLjMxMjE0MiAwLC0wLjQ4NTU1NCAwLjI0Mjc3NjksLTEuMTc5MjAyIDAuNjU4OTY1OSwtMS4xNzkyMDIgMC4xNzM0MTIxLDAgMC4yNDI3NzcsMC4xMzg3MjkgMC4yNDI3NzcsMC4zMTIxNDEgMCwwLjQ1MDg3MiAtMC4yNzc0NTk0LDEuMTc5MjAzIC0wLjY1ODk2NiwxLjE3OTIwMyBtIDEuMTc5MjAyMywxLjQ1NjY2MSBjIDAsLTAuMzQ2ODI0IC0wLjMxMjE0MTgsLTAuNDg1NTU0IC0wLjc5NzY5NTcsLTAuNjI0MjgzIEMgNi4xMDAwNTg1LDM4LjMzNDQ3MiA1Ljg5MTk2NCwzOC4yOTk3OSA1Ljg5MTk2NCwzOC4xNjEwNiBjIDAsLTAuMTA0MDQ3IDAuMTA0MDQ3MiwtMC4yNDI3NzcgMC4yNzc0NTkzLC0wLjM0NjgyNCAwLjY5MzY0ODQsLTAuMDM0NjggMS4xNzkyMDIzLC0wLjY1ODk2NiAxLjE3OTIwMjMsLTEuMjEzODg1IDAsLTAuMTA0MDQ3IC0wLjAzNDY4MiwtMC4yMDgwOTQgLTAuMDY5MzY1LC0wLjMxMjE0MiBIIDcuODY4ODYxOSBMIDcuOTcyOTA5MSwzNS45NzYwNjcgSCA3LjAzNjQ4MzggQyA2LjkzMjQzNjUsMzUuOTA2NzA3IDYuNzkzNzA2OSwzNS44NzIwMiA2LjY1NDk3NzIsMzUuODcyMDIgYyAtMC43NjMwMTMyLDAgLTEuMjQ4NTY3MSwwLjY1ODk2NiAtMS4yNDg1NjcxLDEuMTc5MjAyIDAsMC40MTYxODkgMC4yNDI3NzY5LDAuNjU4OTY2IDAuNTg5NjAxMSwwLjcyODMzMSAtMC4zNDY4MjQyLDAuMTczNDEyIC0wLjU1NDkxODcsMC4zNDY4MjQgLTAuNTU0OTE4NywwLjU1NDkxOSAwLDAuMTM4NzMgMC4wMzQ2ODIsMC4yMDgwOTQgMC4xMzg3Mjk3LDAuMjc3NDU5IC0wLjc5NzY5NTYsMC4yNDI3NzcgLTEuMTQ0NTE5OCwwLjUyMDIzNyAtMS4xNDQ1MTk4LDAuOTAxNzQzIDAsMC4zODE1MDcgMC40ODU1NTM4LDAuNTIwMjM2IDEuMDc1MTU1LDAuNTIwMjM2IDAuOTcxMTA3NywwLjA2OTM2IDEuODAzNDg1OCwtMC40ODU1NTMgMS44MDM0ODU4LC0wLjkzNjQyNSBNIDMuNTMzNTU5NSwzNi44MDg0NDYgYyAwLjM0NjgyNDIsMCAwLjM0NjgyNDIsMC4xMzg3MjkgMC4zMTIxNDE4LDAuNTIwMjM2IEggNC4wNTM3OTU4IEwgNC41MzkzNDk2LDM2LjAxMDc1IEggNC4zMzEyNTUxIEMgNC4xNTc4NDMsMzYuMzIyODkyIDQuMDE5MTEzNCwzNi41MzA5ODYgMy42Mzc2MDY3LDM2LjUzMDk4NiBIIDIuODM5OTExMSBsIDAuMzgxNTA2NiwtMS4wNzUxNTUgYyAwLjEzODcyOTcsLTAuMzQ2ODI0IDAuMjA4MDk0NSwtMC40MTYxODkgMC42OTM2NDg0LC0wLjQxNjE4OSBoIDAuMzQ2ODI0MiBjIDAuNDg1NTUzOSwwIDAuNTU0OTE4NywwLjEzODczIDAuNTU0OTE4NywwLjYyNDI4NCBoIDAuMjA4MDk0NSBsIDAuMTczNDEyMSwtMC45MDE3NDMgaCAtMi45ODI2ODggbCAtMC4wNjkzNjUsMC4xNzM0MTIgYyAwLjU4OTYwMTEsMC4xMDQwNDcgMC42MjQyODM2LDAuMTczNDEyIDAuMzQ2ODI0MiwwLjkwMTc0MyBMIDEuODM0MTIxLDM3LjYwNjE0MSBDIDEuNTU2NjYxNiwzOC4zMzQ0NzIgMS40NTI2MTQzLDM4LjQwMzgzNyAwLjc5MzY0ODQsMzguNTA3ODg0IEwgMC43NTg5NjYsMzguNjgxMjk2IEggNC4wODg0NzgyIEwgNC42NzgwNzkzLDM3Ljc0NDg3MSBIIDQuNDM1MzAyNCBjIC0wLjM4MTUwNjYsMC4zNDY4MjQgLTAuODY3MDYwNSwwLjY5MzY0OCAtMS41MjYwMjY1LDAuNjkzNjQ4IC0wLjg2NzA2MDQsMCAtMC43OTc2OTU2LC0wLjAzNDY4IC0wLjUyMDIzNjIsLTAuODMyMzc4IGwgMC4zMTIxNDE3LC0wLjg2NzA2IGggMC44MzIzNzgxIHogbSAwLjQxNjE4OSwtMi4yODkwNCAxLjA0MDQ3MjYsLTAuNzI4MzMxIFYgMzMuNjg3MDI4IEggNC4zNjU5Mzc1IEwgMy43NzYzMzY0LDM0LjUxOTQwNiBaIE0gMTcuMTYzNzUsMjkuNTU5ODIgYyAwLjIwODA5NCwwIDAuMzgxNTA2LDAuMTM4NzMgMC4yNzc0NTksMC41MjAyMzYgbCAtMC45MzY0MjUsMC4yMDgwOTUgYyAwLjE3MzQxMiwtMC40MTYxODkgMC40MTYxODksLTAuNzI4MzMxIDAuNjU4OTY2LC0wLjcyODMzMSBtIDAuNTIwMjM2LDEuNDkxMzQ0IGggLTAuMTczNDEyIGMgLTAuMjQyNzc3LDAuMjc3NDU5IC0wLjQ4NTU1NCwwLjQ4NTU1NCAtMC43MjgzMzEsMC40ODU1NTQgLTAuMjQyNzc3LDAgLTAuMzgxNTA2LC0wLjEzODczIC0wLjM4MTUwNiwtMC40ODU1NTQgMCwtMC4xMzg3MyAwLC0wLjI3NzQ1OSAwLjAzNDY4LC0wLjQxNjE4OSBsIDEuNDkxMzQ0LC0wLjQ4NTU1NCBjIDAuMjc3NDU5LC0wLjY5MzY0OCAtMC4wNjkzNywtMS4wMDU3OSAtMC40ODU1NTQsLTEuMDA1NzkgLTAuNjkzNjQ4LDAgLTEuNTI2MDI2LDEuMTc5MjAyIC0xLjUyNjAyNiwyLjIxOTY3NSAwLDAuNDUwODcxIDAuMjA4MDk0LDAuNzI4MzMxIDAuNTU0OTE4LDAuNzI4MzMxIDAuNDE2MTg5LDAgMC44NjcwNjEsLTAuMzgxNTA3IDEuMjEzODg1LC0xLjA0MDQ3MyBtIC0wLjMxMjE0MiwtMi4xNTAzMSAxLjA0MDQ3MywtMC45NzExMDggdiAtMC4xMDQwNDcgaCAtMC41NTQ5MTkgbCAtMC42NTg5NjYsMS4xMDk4MzcgaCAwLjE3MzQxMiB6IG0gLTMuMDg2NzM1LDAuNjU4OTY2IGggMC4zODE1MDcgbCAtMC43OTc2OTYsMi4xNTAzMSBjIC0wLjA2OTM2LDAuMTczNDEyIDAuMDM0NjgsMC4zODE1MDcgMC4yMDgwOTQsMC4zODE1MDcgMC40NTA4NzIsMCAxLjE3OTIwMywtMC40NTA4NzIgMS40MjE5OCwtMS4wNDA0NzMgaCAtMC4xMzg3MyBjIC0wLjIwODA5NSwwLjIwODA5NCAtMC41ODk2MDEsMC40ODU1NTQgLTAuOTAxNzQzLDAuNTU0OTE5IGwgMC43MjgzMzEsLTIuMDExNTgxIGggMC43MjgzMzEgbCAwLjEwNDA0NywtMC4zMTIxNDEgaCAtMC43MjgzMzEgbCAwLjI3NzQ1OSwtMC43NjMwMTQgaCAtMC4yNzc0NTkgbCAtMC41MjAyMzYsMC43NjMwMTQgLTAuNTIwMjM2LDAuMDY5MzYgdiAwLjIwODA5NSB6IG0gLTAuNDE2MTg5LDAuMjQyNzc3IGMgMC4xMDQwNDcsLTAuMzQ2ODI0IDAuMDM0NjgsLTAuNjU4OTY2IC0wLjIwODA5NSwtMC42NTg5NjYgLTAuMzEyMTQxLDAgLTAuNDE2MTg5LDAuMjQyNzc3IC0wLjcyODMzLDAuOTM2NDI1IHYgLTAuNDE2MTg5IGMgMCwtMC4yNzc0NTkgLTAuMTA0MDQ4LC0wLjU1NDkxOCAtMC4zNDY4MjUsLTAuNTU0OTE4IC0wLjMxMjE0MSwwIC0wLjU4OTYwMSwwLjQ4NTU1MyAtMC43OTc2OTUsMC45MzY0MjUgaCAwLjEzODcyOSBjIDAuMTM4NzMsLTAuMjA4MDk1IDAuMjc3NDYsLTAuMzQ2ODI0IDAuMzgxNTA3LC0wLjM0NjgyNCAwLjEzODczLDAgMC4yMDgwOTUsMC4yMDgwOTQgMCwwLjY1ODk2NiBsIC0wLjU4OTYwMSwxLjI4MzI0OSBjIC0wLjEwNDA0NywwLjI0Mjc3NyAwLDAuNDE2MTg5IDAuMjQyNzc3LDAuNDE2MTg5IDAuMTM4NzMsMCAwLjIwODA5NCwtMC4wMzQ2OCAwLjI3NzQ1OSwtMC4yMDgwOTQgbCAwLjU4OTYwMSwtMS41MjYwMjcgYyAwLjE3MzQxMiwtMC4yMDgwOTQgMC4zMTIxNDIsLTAuMzgxNTA2IDAuNDg1NTU0LC0wLjU1NDkxOSBoIDAuNTU0OTE5IHogbSAtMy4yOTQ4MywtMC4yNDI3NzcgYyAwLjIwODA5NSwwIDAuMzgxNTA3LDAuMTM4NzMgMC4yNzc0NTksMC41MjAyMzYgbCAtMC45MzY0MjIsMC4yMDgwOTUgYyAwLjE3MzQxMSwtMC40MTYxODkgMC40NTA4NzEsLTAuNzI4MzMxIDAuNjU4OTY1LC0wLjcyODMzMSBtIDAuNTIwMjM2LDEuNDkxMzQ0IGggLTAuMTczNDEyIGMgLTAuMjQyNzc3LDAuMjc3NDU5IC0wLjQ4NTU1NCwwLjQ4NTU1NCAtMC43MjgzMywwLjQ4NTU1NCAtMC4yNDI3NzcsMCAtMC4zODE1MDcsLTAuMTM4NzMgLTAuMzgxNTA3LC0wLjQ4NTU1NCAwLC0wLjEzODczIDAsLTAuMjc3NDU5IDAuMDM0NjgsLTAuNDE2MTg5IGwgMS40OTEzNDQsLTAuNDg1NTU0IGMgMC4yNzc0NiwtMC42OTM2NDggLTAuMDY5MzYsLTEuMDA1NzkgLTAuNDg1NTU0LC0xLjAwNTc5IC0wLjY5MzY0OCwwIC0xLjUyNjAyNTUsMS4xNzkyMDIgLTEuNTI2MDI1NSwyLjIxOTY3NSAwLDAuNDUwODcxIDAuMjA4MDk0NSwwLjcyODMzMSAwLjU1NDkxODUsMC43MjgzMzEgMC40NTA4NzEsMCAwLjg2NzA2LC0wLjM4MTUwNyAxLjIxMzg4NCwtMS4wNDA0NzMgbSAtMy42NzYzMzU2LDAuNjI0Mjg0IGMgLTAuMTM4NzI5NywwIC0wLjM0NjgyNDIsLTAuMTM4NzMgLTAuMzQ2ODI0MiwtMC4yNDI3NzcgMCwtMC4wMzQ2OCAwLjA2OTM2NSwtMC4yMDgwOTUgMC4xMzg3Mjk3LC0wLjQxNjE4OSBsIDAuMjQyNzc2OSwtMC42NTg5NjYgYyAwLjI0Mjc3NywtMC4zMTIxNDIgMC42NTg5NjYsLTAuNjI0Mjg0IDAuODY3MDYwNSwtMC42MjQyODQgMC4xMzg3Mjk3LDAgMC4yNDI3NzY5LDAuMDY5MzYgMC4yNDI3NzY5LDAuMjc3NDU5IDAsMC41ODk2MDIgLTAuNTU0OTE4NywxLjY2NDc1NyAtMS4xNDQ1MTk4LDEuNjY0NzU3IG0gMS42OTk0Mzg1LC0xLjkwNzUzNCBjIDAsLTAuNDUwODcxIC0wLjE3MzQxMiwtMC41ODk2MDEgLTAuNDUwODcxNCwtMC41ODk2MDEgLTAuMzgxNTA2NiwwIC0wLjcyODMzMDgsMC40MTYxODkgLTEuMDc1MTU1LDAuOTAxNzQzIGwgMC45MDE3NDI5LC0yLjM1ODQwNCAtMC4wMzQ2ODIsLTAuMDY5MzcgLTAuOTM2NDI1MywwLjEwNDA0NyB2IDAuMTA0MDQ3IGwgMC4xNzM0MTIxLDAuMTM4NzMgYyAwLjE3MzQxMjEsMC4xMzg3MyAwLjEwNDA0NzIsMC4yNzc0NTkgLTAuMDM0NjgzLDAuNjU4OTY2IGwgLTAuOTcxMTA1NiwyLjQ5NzEzOSBjIC0wLjA2OTM2NSwwLjE3MzQxMiAtMC4xNzM0MTIxLDAuNDE2MTg5IC0wLjE3MzQxMjEsMC40NTA4NzIgMCwwLjI0Mjc3NyAwLjM0NjgyNDIsMC40ODU1NTQgMC42NTg5NjYsMC40ODU1NTQgMC43MjgzMzA4LDAgMS45NDIyMTU0LC0xLjMxNzkzMiAxLjk0MjIxNTQsLTIuMzIzNzIzIE0gNi4xNjk0MjMzLDI5LjQ1NTc3MyBjIDAuMDY5MzY1LC0wLjIwODA5NSAtMC4wNjkzNjUsLTAuMzEyMTQyIC0wLjE3MzQxMjEsLTAuMzEyMTQyIC0wLjQxNjE4OSwwIC0wLjkzNjQyNTMsMC4zODE1MDcgLTEuMTQ0NTE5OCwwLjkzNjQyNSBoIDAuMTM4NzI5NyBjIDAuMTM4NzI5NywtMC4yMDgwOTQgMC4zODE1MDY2LC0wLjQxNjE4OSAwLjU4OTYwMTEsLTAuNDUwODcxIGwgLTAuODMyMzc4LDIuMTUwMzEgYyAtMC4wNjkzNjUsMC4yMDgwOTQgMC4wNjkzNjUsMC4zMTIxNDIgMC4xNzM0MTIsMC4zMTIxNDIgMC40MTYxODkxLDAgMC45MDE3NDI5LC0wLjM4MTUwNyAxLjEwOTgzNzUsLTAuOTM2NDI2IEggNS44OTE5NjQgQyA1Ljc1MzIzNDMsMzEuMzYzMzA2IDUuNTEwNDU3NCwzMS41NzE0IDUuMzAyMzYyOSwzMS42MDYwODMgWiBtIDAuMTczNDEyMSwtMS4wNzUxNTUgYyAwLjIwODA5NDUsMCAwLjM0NjgyNDIsLTAuMTczNDEyIDAuMzQ2ODI0MiwtMC4zNDY4MjQgMCwtMC4yMDgwOTUgLTAuMTczNDEyMSwtMC4zNDY4MjUgLTAuMzQ2ODI0MiwtMC4zNDY4MjUgLTAuMjA4MDk0NSwwIC0wLjM0NjgyNDIsMC4xNzM0MTIgLTAuMzQ2ODI0MiwwLjM0NjgyNSAtMC4wMzQ2ODIsMC4yMDgwOTQgMC4xMzg3Mjk3LDAuMzQ2ODI0IDAuMzQ2ODI0MiwwLjM0NjgyNCBNIDQuMTU3ODQzLDI4LjAzMzc5NCBIIDIuMTgwOTQ1MSBsIC0wLjA2OTM2NSwwLjE3MzQxMiBjIDAuNTg5NjAxMSwwLjEwNDA0NyAwLjYyNDI4MzUsMC4xNzM0MTIgMC4zNDY4MjQyLDAuOTAxNzQzIGwgLTAuNjI0MjgzNSwxLjc2ODgwMyBjIC0wLjI3NzQ1OTQsMC43MjgzMzEgLTAuMzgxNTA2NywwLjc5NzY5NiAtMS4wNDA0NzI2LDAuOTAxNzQzIGwgLTAuMDM0NjgyLDAuMTczNDEyIEggMy43NDE2NTQgTCA0LjQwMDYyLDMwLjgwODM4NyBIIDQuMTU3ODQzIGMgLTAuMzgxNTA2NiwwLjQxNjE4OSAtMC43OTc2OTU2LDAuOTAxNzQzIC0xLjQ1NjY2MTYsMC45MDE3NDMgLTAuNDg1NTUzOCwwIC0wLjU1NDkxODcsLTAuMDY5MzcgLTAuMjc3NDU5MywtMC44MzIzNzggTCAzLjA0ODAwNTYsMjkuMTA4OTQ5IEMgMy4zMjU0NjUsMjguMzgwNjE4IDMuNDI5NTEyMiwyOC4zMTEyNTMgNC4wODg0NzgyLDI4LjIwNzIwNiBaIiBpZD0icGF0aDQiIHN0eWxlPSJzdHJva2Utd2lkdGg6MC4zNDY4MjQiLz4mI3hhOyAgICA8cGF0aCBkPSJtIDQuMDUzNzk1OCwyMS4zNDAwODcgYyAwLjM0NjgyNDIsMCAwLjY1ODk2NTksLTAuMDY5MzYgMC45MzY0MjUzLC0wLjE3MzQxMiAwLjI3NzQ1OTMsLTAuMTA0MDQ4IDAuNTIwMjM2MywtMC4yNzc0NiAwLjcyODMzMDgsLTAuNDUwODcyIFYgMTkuNTAxOTE4IEggMy44ODAzODM3IHYgLTEuMzE3OTMxIGggMy4yNjAxNDc0IHYgMy4wNTIwNTIgYyAtMC4zNDY4MjQyLDAuNDUwODcyIC0wLjc2MzAxMzMsMC43OTc2OTYgLTEuMzE3OTMyLDEuMDc1MTU1IC0wLjU1NDkxODcsMC4yNzc0NiAtMS4xNDQ1MTk4LDAuNDE2MTg5IC0xLjgwMzQ4NTcsMC40MTYxODkgLTAuNTg5NjAxMiwwIC0xLjEwOTgzNzUsLTAuMTA0MDQ3IC0xLjU5NTM5MTMsLTAuMzEyMTQxIEMgMS45MzgxNjgyLDIyLjIwNzE0NyAxLjUyMTk3OTIsMjEuOTI5Njg4IDEuMTc1MTU1LDIxLjU4Mjg2NCAwLjgyODMzMDgsMjEuMjM2MDM5IDAuNTUwODcxNCwyMC44NTQ1MzMgMC4zNzc0NTkzNiwyMC4zNjg5NzkgMC4xNjkzNjQ4NCwxOS45MTgxMDcgMC4xLDE5LjQzMjU1NCAwLjEsMTguOTEyMzE3IDAuMSwxOC4zOTIwODEgMC4yMDQwNDcyNiwxNy45MDY1MjcgMC4zNzc0NTkzNiwxNy40NTU2NTYgMC41NTA4NzE0LDE3LjAwNDc4NCAwLjgyODMzMDgsMTYuNTg4NTk1IDEuMTQwNDcyNiwxNi4yNDE3NzEgMS40ODcyOTY4LDE1Ljg5NDk0NyAxLjg2ODgwMzQsMTUuNjE3NDg4IDIuMzU0MzU3MiwxNS40MDkzOTMgMi44Mzk5MTExLDE1LjIwMTI5OCAzLjMyNTQ2NSwxNS4wOTcyNTEgMy45MTUwNjYxLDE1LjA5NzI1MSBjIDAuNjU4OTY2LDAgMS4yMTM4ODQ3LDAuMTM4NzMgMS43MzQxMjA5LDAuNDE2MTg5IDAuNTIwMjM2MywwLjI3NzQ2IDAuOTM2NDI1NCwwLjYyNDI4NCAxLjI4MzI0OTUsMS4wNDA0NzMgTCA1LjgyMjU5OTEsMTcuNDU1NjU2IEMgNS42MTQ1MDQ2LDE3LjE3ODE5NiA1LjM3MTcyNzcsMTYuOTM1NDE5IDUuMDI0OTAzNSwxNi43MjczMjUgNC42NzgwNzkzLDE2LjUxOTIzIDQuMzMxMjU1MSwxNi40NDk4NjYgMy45NDk3NDg1LDE2LjQ0OTg2NiBjIC0wLjM0NjgyNDIsMCAtMC42NTg5NjU5LDAuMDY5MzYgLTAuOTM2NDI1MywwLjE3MzQxMiAtMC4yNzc0NTk0LDAuMTM4NzI5IC0wLjUyMDIzNjMsMC4zMTIxNDEgLTAuNzI4MzMwOCwwLjUyMDIzNiAtMC4yMDgwOTQ1LDAuMjA4MDk0IC0wLjM0NjgyNDIsMC40ODU1NTQgLTAuNDg1NTUzOSwwLjc2MzAxMyAtMC4xMDQwNDcyLDAuMzEyMTQyIC0wLjE3MzQxMjEsMC42MjQyODQgLTAuMTczNDEyMSwwLjk3MTEwOCAwLDAuMzQ2ODI0IDAuMDY5MzY1LDAuNjU4OTY2IDAuMTczNDEyMSwwLjk3MTEwOCAwLjEwNDA0NzMsMC4zMTIxNDEgMC4yNzc0NTk0LDAuNTU0OTE4IDAuNDg1NTUzOSwwLjc2MzAxMyAwLjIwODA5NDUsMC4yMDgwOTQgMC40ODU1NTM5LDAuMzgxNTA2IDAuNzYzMDEzMiwwLjUyMDIzNiAwLjM0NjgyNDIsMC4xMzg3MyAwLjY1ODk2NiwwLjIwODA5NSAxLjAwNTc5MDIsMC4yMDgwOTUgeiBtIDguMDExNjM4MiwtNi4yMDgxNTMgYyAwLjU1NDkxOSwwIDEuMDc1MTU1LDAuMTA0MDQ3IDEuNTI2MDI3LDAuMzEyMTQxIDAuNDUwODcxLDAuMjA4MDk1IDAuODY3MDYsMC40ODU1NTQgMS4yMTM4ODQsMC44MzIzNzggMC4zNDY4MjQsMC4zNDY4MjUgMC41ODk2MDEsMC43MjgzMzEgMC43NjMwMTMsMS4yMTM4ODUgMC4xNzM0MTMsMC40NTA4NzIgMC4yNzc0NiwwLjkzNjQyNSAwLjI3NzQ2LDEuNDU2NjYyIDAsMC41MjAyMzYgLTAuMTA0MDQ3LDEuMDA1NzkgLTAuMjc3NDYsMS40NTY2NjEgLTAuMTczNDEyLDAuNDUwODcyIC0wLjQ1MDg3MSwwLjg2NzA2MSAtMC43NjMwMTMsMS4yMTM4ODUgLTAuMzQ2ODI0LDAuMzQ2ODI0IC0wLjcyODMzMSwwLjYyNDI4NCAtMS4yMTM4ODQsMC44MzIzNzggLTAuNDg1NTU0LDAuMjA4MDk1IC0wLjk3MTEwOCwwLjMxMjE0MiAtMS41MjYwMjcsMC4zMTIxNDIgLTAuNTU0OTE5LDAgLTEuMDc1MTU1LC0wLjEwNDA0NyAtMS41NjA3MDksLTAuMzEyMTQyIEMgMTAuMDE5MTcxLDIyLjI0MTgzIDkuNjM3NjY1LDIxLjk2NDM3IDkuMjkwODQxLDIxLjYxNzU0NiA4Ljk0NDAxNjgsMjEuMjcwNzIyIDguNzAxMjM5OSwyMC44ODkyMTUgOC41Mjc4Mjc4LDIwLjQwMzY2MSA4LjM1NDQxNTcsMTkuOTUyNzkgOC4yNTAzNjg1LDE5LjQ2NzIzNiA4LjI1MDM2ODUsMTguOTQ3IGMgMCwtMC41MjAyMzcgMC4xMDQwNDcyLC0xLjAwNTc5IDAuMjc3NDU5MywtMS40NTY2NjIgMC4xNzM0MTIxLC0wLjQ1MDg3MSAwLjQ1MDg3MTUsLTAuODY3MDYgMC43NjMwMTMyLC0xLjIxMzg4NSAwLjM0NjgyNCwtMC4zNDY4MjQgMC43MjgzMywtMC42MjQyODMgMS4yMTM4ODQsLTAuODMyMzc4IDAuNDg1NTU0LC0wLjIwODA5NCAxLjAwNTc5LC0wLjMxMjE0MSAxLjU2MDcwOSwtMC4zMTIxNDEgeiBtIDAsNi4yMDgxNTMgYyAwLjM0NjgyNCwwIDAuNjU4OTY2LC0wLjA2OTM2IDAuOTM2NDI1LC0wLjE3MzQxMiAwLjI3NzQ2LC0wLjEzODczIDAuNTIwMjM3LC0wLjMxMjE0MiAwLjcyODMzMSwtMC41MjAyMzcgMC4yMDgwOTUsLTAuMjA4MDk0IDAuMzQ2ODI0LC0wLjQ4NTU1NCAwLjQ4NTU1NCwtMC43NjMwMTMgMC4xMzg3MywtMC4yNzc0NTkgMC4xNzM0MTIsLTAuNjI0MjgzIDAuMTczNDEyLC0wLjk3MTEwOCAwLC0wLjM0NjgyNCAtMC4wNjkzNywtMC42NTg5NjYgLTAuMTczNDEyLC0wLjk3MTEwNyBDIDE0LjExMTY5NywxNy42MjkwNjggMTMuOTM4Mjg1LDE3LjM4NjI5MSAxMy43MzAxOSwxNy4xNzgxOTYgMTMuNTIyMDk2LDE2Ljk3MDEwMiAxMy4yNzkzMTksMTYuNzk2NjkgMTMuMDAxODU5LDE2LjY1Nzk2IDEyLjcyNDQsMTYuNTE5MjMgMTIuNDEyMjU4LDE2LjQ4NDU0OCAxMi4wNjU0MzQsMTYuNDg0NTQ4IGMgLTAuMzQ2ODI0LDAgLTAuNjU4OTY2LDAuMDY5MzcgLTAuOTM2NDI1LDAuMTczNDEyIC0wLjI3NzQ2LDAuMTM4NzMgLTAuNTIwMjM2LDAuMzEyMTQyIC0wLjcyODMzMSwwLjUyMDIzNiAtMC4yMDgwOTQsMC4yMDgwOTUgLTAuMzQ2ODI0LDAuNDg1NTU0IC0wLjQ4NTU1MywwLjc2MzAxNCAtMC4xMDQwNDgsMC4zMTIxNDEgLTAuMTczNDEzLDAuNjI0MjgzIC0wLjE3MzQxMywwLjk3MTEwNyAwLDAuMzQ2ODI1IDAuMDY5MzYsMC42NTg5NjYgMC4xNzM0MTMsMC45NzExMDggMC4xMDQwNDYsMC4zMTIxNDIgMC4yNzc0NTksMC41NTQ5MTkgMC40ODU1NTMsMC43NjMwMTMgMC4yMDgwOTUsMC4yMDgwOTUgMC40NTA4NzEsMC4zODE1MDcgMC43MjgzMzEsMC41MjAyMzcgMC4yNzc0NTksMC4xMDQwNDcgMC41ODk2MDEsMC4xNzM0MTIgMC45MzY0MjUsMC4xNzM0MTIgeiBNIDIxLjQ2NDM3LDE5LjgxNDA2IHYgLTQuNDc0MDMyIGggMS40NTY2NjEgdiA0LjM2OTk4NSBjIDAsMC45MzY0MjUgLTAuMjc3NDU5LDEuNjY0NzU2IC0wLjc5NzY5NSwyLjIxOTY3NSAtMC41MjAyMzcsMC41MjAyMzYgLTEuMjEzODg1LDAuNzk3Njk1IC0yLjExNTYyOCwwLjc5NzY5NSAtMC45MDE3NDMsMCAtMS41OTUzOTEsLTAuMjc3NDU5IC0yLjExNTYyNywtMC43OTc2OTUgLTAuNTIwMjM3LC0wLjUyMDIzNyAtMC43NjMwMTQsLTEuMjgzMjUgLTAuNzYzMDE0LC0yLjIxOTY3NSB2IC00LjM2OTk4NSBoIDEuNDU2NjYyIHYgNC40NzQwMzIgYyAwLDAuNDg1NTU0IDAuMTM4NzMsMC44NjcwNjEgMC4zODE1MDcsMS4xMDk4MzggMC4yNDI3NzYsMC4yNzc0NTkgMC42MjQyODMsMC40MTYxODkgMS4wNzUxNTUsMC40MTYxODkgMC40NTA4NzEsMCAwLjc5NzY5NSwtMC4xMzg3MyAxLjA0MDQ3MiwtMC40MTYxODkgMC4yNzc0NTksLTAuMjQyNzc3IDAuMzgxNTA3LC0wLjYyNDI4NCAwLjM4MTUwNywtMS4xMDk4MzggeiBtIDIuMzU4NDA0LC00LjQ3NDAzMiBoIDEuNTYwNzA5IGwgMi4xMTU2MjgsNS41ODM4NyAyLjExNTYyNywtNS41ODM4NyBoIDEuNTYwNzA5IGwgLTIuNzA1MjI5LDcuMTc5MjYxIGggLTEuOTA3NTMzIHogbSA4LjQyNzgyOCw3LjE0NDU3OCB2IC03LjE0NDU3OCBoIDQuMTYxODkgdiAxLjI0ODU2NyBoIC0yLjcwNTIyOCB2IDEuNjY0NzU2IGggMi4zMjM3MjIgdiAxLjI0ODU2NyBoIC0yLjMyMzcyMiB2IDEuNzY4ODA0IGggMi43MDUyMjggdiAxLjI0ODU2NyBoIC00LjE2MTg5IHogbSA1Ljg2MTMyOSwwIHYgLTcuMTQ0NTc4IGggMi4xODQ5OTIgYyAwLjc5NzY5NiwwIDEuNDIxOTc5LDAuMjA4MDk1IDEuODcyODUxLDAuNTg5NjAxIDAuNDUwODcxLDAuMzgxNTA3IDAuNjkzNjQ4LDAuOTAxNzQzIDAuNjkzNjQ4LDEuNTYwNzA5IDAsMC40MTYxODkgLTAuMTA0MDQ3LDAuNzk3Njk2IC0wLjMxMjE0MiwxLjEwOTgzOCAtMC4yMDgwOTQsMC4zMTIxNDEgLTAuNDg1NTUzLDAuNTU0OTE4IC0wLjgzMjM3OCwwLjcyODMzIGwgMi4yNTQzNTgsMy4xNTYxIGggLTEuNzM0MTIxIGwgLTEuOTA3NTMzLC0yLjg3ODY0IGggLTAuNzYzMDE0IHYgMi44Nzg2NCB6IG0gMi4yODkwMzksLTUuOTMwNjkzIGggLTAuODMyMzc4IHYgMS44MDM0ODYgaCAwLjgzMjM3OCBjIDAuMzEyMTQyLDAgMC41NTQ5MTksLTAuMDY5MzcgMC43MjgzMzEsLTAuMjQyNzc3IDAuMTczNDEyLC0wLjE3MzQxMiAwLjI0Mjc3NywtMC4zODE1MDcgMC4yNDI3NzcsLTAuNjU4OTY2IDAsLTAuMjc3NDYgLTAuMDY5MzYsLTAuNDg1NTU0IC0wLjI0Mjc3NywtMC42NTg5NjYgLTAuMjA4MDk0LC0wLjEzODczIC0wLjQxNjE4OSwtMC4yNDI3NzcgLTAuNzI4MzMxLC0wLjI0Mjc3NyB6IG0gNC40NzQwMzMsNS45MzA2OTMgdiAtNy4xNDQ1NzggaCAxLjg3Mjg1IGwgMy4xOTA3ODMsNS4xMzI5OTggdiAtNS4xMzI5OTggaCAxLjQ1NjY2MSB2IDcuMTc5MjYxIGggLTEuODcyODUgbCAtMy4xOTA3ODMsLTUuMTMyOTk4IHYgNS4xMzI5OTggaCAtMS40NTY2NjEgeiBtIDguNDk3MTkyLDAgdiAtNy4xNDQ1NzggaCA0LjE2MTg5IHYgMS4yNDg1NjcgaCAtMi43MDUyMjggdiAxLjY2NDc1NiBoIDIuMzIzNzIyIHYgMS4yNDg1NjcgaCAtMi4zMjM3MjIgdiAxLjc2ODgwNCBoIDIuNzA1MjI4IHYgMS4yNDg1NjcgaCAtNC4xNjE4OSB6IG0gNS44NjEzMjksMCB2IC03LjE0NDU3OCBoIDEuODM4MTY4IGwgMS43MzQxMjEsMi45NDgwMDYgMS43MzQxMjEsLTIuOTQ4MDA2IGggMS44MzgxNjggdiA3LjE3OTI2MSBoIC0xLjQ1NjY2MSB2IC01LjEzMjk5OCBsIC0xLjU5NTM5MiwyLjYzNTg2NCBoIC0xLjA0MDQ3MiBsIC0xLjU5NTM5MSwtMi42MzU4NjQgdiA1LjA5ODMxNSB6IG0gOS4xMjE0NzYsMCB2IC03LjE0NDU3OCBoIDQuMTYxODkgdiAxLjI0ODU2NyBoIC0yLjcwNTIyOCB2IDEuNjY0NzU2IGggMi4zMjM3MjIgdiAxLjI0ODU2NyBoIC0yLjMyMzcyMiB2IDEuNzY4ODA0IGggMi43MDUyMjggdiAxLjI0ODU2NyBIIDY4LjM1NSBaIG0gNS44NjEzMjksMCB2IC03LjE0NDU3OCBoIDEuODcyODUxIGwgMy4xOTA3ODIsNS4xMzI5OTggdiAtNS4xMzI5OTggaCAxLjQ1NjY2MiB2IDcuMTc5MjYxIGggLTEuODcyODUxIGwgLTMuMTkwNzgyLC01LjEzMjk5OCB2IDUuMTMyOTk4IGggLTEuNDU2NjYyIHogbSA3LjgwMzU0NCwtNS44MjY2NDYgdiAtMS4zMTc5MzIgaCA1Ljg2MTMyOSB2IDEuMzE3OTMyIGggLTIuMjE5Njc1IHYgNS44MjY2NDYgSCA4NC4yMDQ4NjYgViAxNi42NTc5NiBaIiBpZD0icGF0aDYiIHN0eWxlPSJzdHJva2Utd2lkdGg6MC4zNDY4MjQiLz4mI3hhOyAgICA8cGF0aCBkPSJtIDExLjkyNjcwNCw5LjI3MDYwNDkgYyAwLjEwNDA0OCwtMC4xMDQwNDcgMC4yMDgwOTUsLTAuMjA4MDk1IDAuMzEyMTQyLC0wLjM0NjgyNCAwLjIwODA5NSwtMC4yMDgwOTUgMC4zODE1MDcsLTAuNDUwODcyIDAuNjI0Mjg0LC0wLjYyNDI4NCAwLjA2OTM3LC0wLjA2OTM2IDAuMTM4NzI5LC0wLjEwNDA0NyAwLjIwODA5NCwtMC4xNzM0MTIgMC4wMzQ2OCwtMC4wMzQ2OCAwLjAzNDY4LC0wLjA2OTM3IDAuMDM0NjgsLTAuMDY5MzcgLTAuMTA0MDQ4LDAuMDM0NjggLTAuMTM4NzMsMC4xMDQwNDcgLTAuMjQyNzc3LDAuMTM4NzMgLTAuMDM0NjgsMCAtMC4wMzQ2OCwtMC4wMzQ2OCAtMC4wMzQ2OCwtMC4wMzQ2OCAwLjA2OTM2LC0wLjAzNDY4IDAuMTM4NzMsLTAuMTA0MDQ3IDAuMjA4MDk1LC0wLjEzODcyOSAtMC4wMzQ2OCwwIC0wLjAzNDY4LC0wLjAzNDY4IC0wLjAzNDY4LC0wLjAzNDY4IC0wLjI0Mjc3NiwtMC4wMzQ2OCAtMC40MTYxODksMC4xMzg3MyAtMC41ODk2MDEsMC4yNzc0NiAtMC4wMzQ2OCwwLjAzNDY4IC0wLjA2OTM2LC0wLjAzNDY4IC0wLjEwNDA0NywtMC4wMzQ2OCAtMC4yNzc0NTksMC4xMDQwNDggLTAuNDg1NTU0LDAuMzQ2ODI0IC0wLjc2MzAxMywwLjQ1MDg3MiB2IC0wLjAzNDY4IGMgLTAuMTA0MDQ3LDAuMDM0NjggLTAuMjA4MDk1LDAuMTA0MDQ4IC0wLjM0NjgyNCwwLjEzODczIC0wLjE3MzQxMiwwLjAzNDY4IC0wLjMxMjE0MiwwLjAzNDY4IC0wLjQ1MDg3MiwwLjAzNDY4IC0wLjIwODA5NCwwLjAzNDY4IC0wLjQ1MDg3MSwwLjA2OTM2IC0wLjY1ODk2NiwwLjEwNDA0OCAwLDAgMCwwIC0wLjAzNDY4LDAgLTAuMTA0MDQ3LDAuMDM0NjggLTAuMjQyNzc3LDAuMDY5MzYgLTAuMzQ2ODI0LDAuMTM4NzI5IC0wLjEwNDA0NywwLjA2OTM2IC0wLjAzNDY4LDAuMDM0NjggLTAuMDM0NjgsMC4wMzQ2OCAtMC4wMzQ2OCwwLjAzNDY4IC0wLjA2OTM2LDAuMDY5MzcgLTAuMTM4NzI5LDAuMTA0MDQ3IC0wLjEwNDA0NzgsMC4wNjkzNyAtMC4yMDgwOTUsMC4xNzM0MTIgLTAuMzEyMTQyMywwLjI0Mjc3NyBoIC0wLjAzNDY4MiBjIC0wLjEwNDA0NzMsMC4xMDQwNDcgLTAuMjA4MDk0NSwwLjIwODA5NCAtMC4zMTIxNDE4LDAuMjc3NDU5IDAsMCAtMC4wMzQ2ODIsMCAtMC4wNjkzNjUsMCAtMC4wMzQ2ODIsMCAwLDAgMCwtMC4wMzQ2OCAwLC0wLjAzNDY4IDAuMDM0NjgyLC0wLjA2OTM2IDAuMDM0NjgyLC0wLjA2OTM2IDAuMDM0NjgyLC0wLjAzNDY4IDAuMDM0NjgyLC0wLjA2OTM2IDAuMDY5MzY1LC0wLjA2OTM2IDAuMDM0NjgyLC0wLjAzNDY4IDAuMDM0NjgyLC0wLjA2OTM3IDAuMDY5MzY1LC0wLjEwNDA0NyB2IC0wLjAzNDY4IGMgMCwwIDAsMCAtMC4wMzQ2ODMsMCAwLjEwNDA0NzMsLTAuMTA0MDQ4IDAuMjA4MDk0NiwtMC4xNzM0MTMgMC4zMTIxNDE4LC0wLjI0Mjc3NyAwLjEwNDA0NzMsLTAuMDY5MzcgLTAuMDM0NjgyLDAgLTAuMDM0NjgyLC0wLjAzNDY4IDAsMCAwLjAzNDY4MiwtMC4wMzQ2OCAwLjAzNDY4MiwtMC4wMzQ2OCAtMC4wMzQ2ODIsMC4wMzQ2OCAtMC4wNjkzNjUsMC4wMzQ2OCAtMC4xMDQwNDcyLDAuMDY5MzcgLTAuMDM0NjgzLDAuMDM0NjggLTAuMDY5MzY1LDAuMTM4NzI5IC0wLjEzODcyOTcsMC4xMDQwNDcgaCAtMC4wMzQ2ODIgYyAwLDAgMCwwIC0wLjAzNDY4MywwIC0wLjAzNDY4MiwwIDAsMCAwLC0wLjAzNDY4IDAsLTAuMDM0NjggMCwtMC4wMzQ2OCAwLjAzNDY4MywtMC4wMzQ2OCAwLDAgMCwwIDAsLTAuMDM0NjggMCwwIDAsLTAuMDM0NjggMC4wMzQ2ODIsLTAuMDM0NjggdiAtMC4wMzQ2OCBjIDAuMDM0NjgyLC0wLjAzNDY4IDAuMDY5MzY1LC0wLjA2OTM2IDAuMTM4NzI5NywtMC4xMDQwNDggMC4wNjkzNjUsLTAuMDM0NjggMC4xMzg3Mjk2LC0wLjA2OTM2IDAuMjA4MDk0NSwtMC4xMDQwNDcgMCwwIDAuMDM0NjgyLC0wLjAzNDY4IDAuMDM0NjgyLC0wLjAzNDY4IC0wLjEwNDA0NzMsMC4wMzQ2OCAtMC4yMDgwOTQ1LDAuMDY5MzcgLTAuMzEyMTQxOCwwLjEzODcyOSBoIC0wLjAzNDY4MiAtMC4wMzQ2ODIgYyAwLjAzNDY4MiwtMC4wMzQ2OCAwLjA2OTM2NSwtMC4wNjkzNiAwLjEwNDA0NzIsLTAuMTA0MDQ3IDAuMDM0NjgzLDAgMC4wMzQ2ODMsMCAwLjAzNDY4MywwLjAzNDY4IDAuNTg5NjAxNiwtMC40NTA4NzIgMS40MjE5Nzg2LC0wLjM0NjgyNSAyLjExNTYyNzYsLTAuNTg5NjAxIDAuMDY5MzYsLTAuMDM0NjggMC4xMDQwNDcsLTAuMDY5MzcgMC4xNzM0MTIsLTAuMTA0MDQ4IDAuMTA0MDQ3LC0wLjAzNDY4IDAuMTczNDEyLC0wLjEzODcyOSAwLjI3NzQ1OSwtMC4xNzM0MTIgMC4xMzg3MywtMC4xMDQwNDcgMC4yNDI3NzcsLTAuMjQyNzc3IDAuMzEyMTQyLC0wLjQxNjE4OSAwLC0wLjAzNDY4IC0wLjAzNDY4LC0wLjAzNDY4IC0wLjAzNDY4LC0wLjAzNDY4IC0wLjI0Mjc3NywwLjI3NzQ1OSAtMC41MjAyMzYsMC40NTA4NzEgLTAuODMyMzc4LDAuNjI0MjgzIC0wLjM4MTUwNiwwLjIwODA5NSAtMC44MzIzNzgsMC4xNzM0MTIgLTEuMjEzODg0LDAuMjA4MDk1IDAuMDM0NjgsLTAuMDM0NjggMC4wNjkzNiwtMC4wMzQ2OCAwLjEwNDA0NywtMC4wMzQ2OCAwLC0wLjA2OTM2IDAuMDM0NjgsLTAuMDY5MzYgMC4wNjkzNiwtMC4xMDQwNDcgaCAwLjIwODA5NCBjIDAuMDM0NjgsMCAwLjAzNDY4LC0wLjAzNDY4IDAuMDM0NjgsLTAuMDM0NjggMC4wMzQ2OCwwIDAuMTA0MDQ3LC0wLjAzNDY4IDAuMDY5MzYsLTAuMDM0NjggLTAuMDY5MzYsLTAuMDY5MzYgLTAuMTczNDEyLDAuMDY5MzYgLTAuMjc3NDU5LDAgMC4wMzQ2OCwtMC4wMzQ2OCAwLjAzNDY4LC0wLjEwNDA0NyAwLjA2OTM2LC0wLjEwNDA0NyBoIDAuMDY5MzcgYyAwLC0wLjAzNDY4IDAuMDM0NjgsLTAuMDY5MzcgMC4wMzQ2OCwtMC4wNjkzNyAwLjI3NzQ2LC0wLjE3MzQxMiAwLjU1NDkxOSwtMC4zMTIxNDIgMC43OTc2OTYsLTAuNDUwODcxIC0wLjA2OTM2LDAgLTAuMTA0MDQ3LDAuMDY5MzYgLTAuMTM4NzMsMC4wMzQ2OCAwLjAzNDY4LDAgMCwtMC4wNjkzNiAwLjAzNDY4LC0wLjA2OTM2IDAuMjA4MDk0LC0wLjA2OTM3IDAuMzgxNTA2LC0wLjE3MzQxMiAwLjU4OTYwMSwtMC4yNDI3NzcgLTAuMDY5MzYsMCAtMC4xMzg3MywwLjA2OTM2IC0wLjIwODA5NSwwIDAuMDM0NjgsLTAuMDM0NjggMC4wNjkzNywtMC4wNjkzNiAwLjEwNDA0NywtMC4wNjkzNiB2IC0wLjA2OTM2IGMgMCwtMC4wMzQ2OCAwLjAzNDY4LC0wLjAzNDY4IDAuMDM0NjgsLTAuMDM0NjggLTAuMDM0NjgsMCAtMC4wMzQ2OCwtMC4wMzQ2OCAtMC4wMzQ2OCwtMC4wMzQ2OCAwLjAzNDY4LC0wLjAzNDY4IDAuMDY5MzYsLTAuMDM0NjggMC4xMDQwNDgsLTAuMDY5MzYgLTAuMDM0NjgsMCAtMC4wNjkzNiwwIC0wLjA2OTM2LC0wLjAzNDY4IDAuMDY5MzYsLTAuMDY5MzYgMC4xMzg3MywtMC4xMDQwNDggMC4yNDI3NzcsLTAuMTA0MDQ4IC0wLjAzNDY4LC0wLjAzNDY4IC0wLjA2OTM3LDAgLTAuMDY5MzcsLTAuMDM0NjggMCwtMC4wMzQ2OCAwLjAzNDY4LC0wLjAzNDY4IDAuMDM0NjgsLTAuMDM0NjggaCAtMC4wMzQ2OCBjIC0wLjAzNDY4LC0wLjAzNDY4IC0wLjAzNDY4LC0wLjA2OTM3IC0wLjAzNDY4LC0wLjA2OTM3IDAuMTA0MDQ3LC0wLjEzODczIDAuMTA0MDQ3LC0wLjMxMjE0MiAwLjE3MzQxMiwtMC40NTA4NzIgLTAuMDM0NjgsMCAtMC4wMzQ2OCwwIC0wLjAzNDY4LC0wLjAzNDY4IC0wLjE3MzQxMiwwLjIwODA5NCAtMC40ODU1NTQsMC4yNzc0NTkgLTAuNzYzMDEzLDAuMzQ2ODI0IGggLTAuMTA0MDQ3IGMgLTAuMTA0MDQ4LDAuMDM0NjggLTAuMjA4MDk1LDAuMDM0NjggLTAuMzEyMTQyLC0wLjAzNDY4IC0wLjA2OTM3LC0wLjAzNDY4IC0wLjEwNDA0NywtMC4xMDQwNDggLTAuMTczNDEyLC0wLjEzODczIEMgMTAuMzMxMzEyLDYuMzU3MzUwOSAxMC4xNTc5LDYuMjg3OTg1OSAxMC4wMTkxNyw2LjI1MzMwMjkgOS41NjgyOTksNi4xMTQ1NzM5IDkuMDgyNzQ1NSw2LjA0NTIwODkgOC41OTcxOTE3LDYuMDQ1MjA4OSA4LjgwNTI4NjIsNS45NDExNjE5IDkuMDEzMzgwNyw1Ljk0MTE2MTkgOS4yNTYxNTc2LDUuODcxNzk2OSA5LjU2ODI5OSw1Ljc2Nzc0OTkgOS44ODA0NDEsNS42NjM3MDE5IDEwLjE5MjU4Myw1LjY5ODM4NDkgYyAtMC4wNjkzNiwtMC4wMzQ2OCAtMC4xMzg3MywwIC0wLjE3MzQxMywwIC0wLjI3NzQ1OCwtMC4wMzQ2OCAtMC41MjAyMzU0LDAuMDY5MzYgLTAuNzk3Njk0OCwwLjEwNDA0NyAtMC4xNzM0MTIxLDAuMDM0NjggLTAuMzQ2ODI0MiwwLjEwNDA0NyAtMC41NTQ5MTg3LDAuMTM4NzMgLTAuMTA0MDUwMywwLjAzNDY4IC0wLjE3MzQxNTEsMC4xMzg3MjkgLTAuMzEyMTQ0OCwwLjEzODcyOSB2IC0wLjA2OTM3IGMgMC4xNzM0MTIxLC0wLjIwODA5NCAwLjQxNjE4OTEsLTAuNDUwODcxIDAuNjkzNjQ4NCwtMC40NTA4NzEgMC4zNDY4MjQyLC0wLjA2OTM2IDAuNjU4OTY1OSwwIDAuOTcxMTA2OSwwLjAzNDY4IDAuMjQyNzc3LDAuMDM0NjggMC40NTA4NzIsMC4wNjkzNiAwLjY5MzY0OSwwLjEzODczIDAuMTA0MDQ3LDAgMC4xMDQwNDcsMC4xMzg3MyAwLjE3MzQxMiwwLjE3MzQxMiAwLjEwNDA0NywwLjAzNDY4IDAuMjA4MDk0LDAgMC4zNDY4MjQsMC4wNjkzNiAwLC0wLjAzNDY4IC0wLjAzNDY4LC0wLjA2OTM2IDAsLTAuMTA0MDQ3IDAuMDY5MzYsLTAuMDY5MzYgMC4xNzM0MTIsMC4wMzQ2OCAwLjI0Mjc3NywtMC4wMzQ2OCAwLjEzODczLC0wLjEwNDA0NyAtMC4xMzg3MywtMC4yNDI3NzcgLTAuMjA4MDk0LC0wLjM4MTUwNiAwLC0wLjAzNDY4IDAuMDM0NjgsLTAuMDM0NjggMC4wMzQ2OCwtMC4wMzQ2OCAwLjEzODczLDAuMTM4NzMgMC4yNDI3NzcsMC4yNzc0NiAwLjQ1MDg3MSwwLjM4MTUwNyAwLjEwNDA0OCwwLjAzNDY4IDAuMzEyMTQyLDAuMTA0MDQ3IDAuMjc3NDYsLTAuMDM0NjggLTAuMTA0MDQ4LC0wLjIwODA5NSAtMC4yNzc0NiwtMC4zODE1MDcgLTAuNDE2MTg5LC0wLjU1NDkxOSB2IC0wLjA2OTM2IGMgLTAuMDM0NjgsMCAtMC4wMzQ2OCwtMC4wMzQ2OCAtMC4wNjkzNiwtMC4wMzQ2OCB2IC0wLjA2OTM3IGMgLTAuMDY5MzYsLTAuMDM0NjggLTAuMDY5MzYsLTAuMTA0MDQ4IC0wLjEwNDA0NywtMC4xNzM0MTIgLTAuMDY5MzcsLTAuMTA0MDQ4IC0wLjAzNDY4LC0wLjIwODA5NSAtMC4wNjkzNywtMC4zNDY4MjUgMC4wMzQ2OCwtMC4xMzg3MjkgMCwtMC4yNDI3NzYgMCwtMC4zNDY4MjQgQyAxMS4zMDI0MiwzLjg2MDIxNDQgMTEuMjMzMDUsMy41ODI3NTUgMTEuMTk4MzY4LDMuMjcwNjEzMyAxMS4xNjM2ODgsMi45MjM3ODkxIDExLjQwNjQ2MiwyLjY0NjMyOTcgMTEuNTc5ODc0LDIuMzM0MTg3OSAxMS43MTg2MDQsMi4xMjYwOTM0IDExLjg1NzMzNCwxLjg4MzMxNjUgMTIuMTAwMTExLDEuNzQ0NTg2OCAxMi4xNjk0NzEsMS41MzY0OTIzIDEyLjMwODIwNSwxLjMyODM5NzggMTIuNDQ2OTM1LDEuMTU0OTg1NyAxMi41ODU2NjQsMC45ODE1NzM2IDEyLjgyODQ0MSwwLjg3NzUyNjMgMTMuMDM2NTM2LDAuNzczNDc5MSAxMy4yNzkzMTMsMC42Njk0MzE4IDEzLjUyMjA5LDAuNjAwMDY3IDEzLjUyMjA5LDAuNjAwMDY3IGggMy43MTEwMTkgYyAwLDAgMC4wMzQ2OCwwIDAuMTA0MDQ3LDAuMDM0NjgyIDAuMDY5MzcsMC4wMzQ2ODIgMC4yMDgwOTQsMC4xMDQwNDczIDAuMjc3NDU5LDAuMTM4NzI5NyAwLjEzODczLDAuMDY5MzY1IDAuMjc3NDYsMC4xNzM0MTIxIDAuMzQ2ODI0LDAuMzEyMTQxOCAwLjAzNDY4LDAuMDY5MzY1IDAuMTA0MDQ4LDAuMTczNDEyMSAwLjA2OTM3LDAuMjQyNzc2OSAtMC4wMzQ2OCwwLjEwNDA0NzMgLTAuMDY5MzcsMC4yNDI3NzY5IC0wLjEzODcyOSwwLjI3NzQ1OTMgLTAuMTA0MDQ4LDAuMDY5MzY1IC0wLjI0Mjc3NywwLjA2OTM2NSAtMC4zODE1MDcsMC4wMzQ2ODIgLTAuMDY5MzcsMCAtMC4xMzg3MywtMC4wMzQ2ODIgLTAuMjA4MDk1LC0wLjAzNDY4MiAwLjI3NzQ2LDAuMTA0MDQ3MyAwLjU1NDkxOSwwLjI0Mjc3NyAwLjcyODMzMSwwLjQ4NTU1MzkgMC4wMzQ2OCwwLjAzNDY4MiAwLjEwNDA0NywwLjA2OTM2NSAwLjE3MzQxMiwwLjA2OTM2NSAwLjAzNDY4LDAgMC4wMzQ2OCwwLjAzNDY4MiAwLjAzNDY4LDAuMDY5MzY1IC0wLjAzNDY4LDAuMDM0NjgyIC0wLjA2OTM2LDAuMDY5MzY1IC0wLjA2OTM2LDAuMTA0MDQ3MiBoIDAuMDY5MzYgYyAwLjEwNDA0NywtMC4wMzQ2ODIgMC4wNjkzNywtMC4yMDgwOTQ1IDAuMjA4MDk0LC0wLjE3MzQxMiAwLjEwNDA0OCwwLjA2OTM2NSAwLjEzODczLDAuMTczNDEyIDAuMDY5MzYsMC4yNzc0NTkzIC0wLjA2OTM2LDAuMDY5MzY1IC0wLjEzODczLDAuMTM4NzI5NyAtMC4yMDgwOTQsMC4xNzM0MTIxIC0wLjAzNDY4LDAuMDM0NjgyIC0wLjAzNDY4LDAuMTA0MDQ3MyAwLDAuMTM4NzI5NyAwLjA2OTM2LDAuMDY5MzY1IDAuMDY5MzYsMC4xMzg3Mjk2IDAuMTA0MDQ3LDAuMjA4MDk0NSAwLjA2OTM2LDAuMTM4NzI5NyAwLjA2OTM2LDAuMjc3NDU5MyAwLjEzODczLDAuNDE2MTg5IDAuMDY5MzYsMC4yNzc0NTk0IDAuMTM4NzI5LDAuNTU0OTE4NyAwLjEzODcyOSwwLjgzMjM3ODUgMCwwLjEzODcyOSAtMC4wNjkzNywwLjI3NzQ1OSAtMC4wMzQ2OCwwLjQxNjE4OSAwLjAzNDY4LDAuMTM4NzI5IDAuMTM4NzI5LDAuMjc3NDU5IDAuMjA4MDk0LDAuMzgxNTA2IDAuMDY5MzcsMC4xMDQwNDggMC4xMzg3MywwLjE3MzQxMiAwLjIwODA5NSwwLjMxMjE0MiAwLjEwNDA0NywwLjE3MzQxMiAwLjMxMjE0MiwwLjM4MTUwNyAwLjIwODA5NCwwLjU4OTYwMSAtMC4wNjkzNiwwLjEzODczIC0wLjI3NzQ1OSwwLjEwNDA0NyAtMC4zODE1MDYsMC4xNzM0MTIgLTAuMTA0MDQ4LDAuMTA0MDQ4IC0wLjAzNDY4LDAuMjQyNzc3IDAuMDM0NjgsMC4zNDY4MjQgMC4xMDQwNDcsMC4xNzM0MTMgLTAuMTA0MDQ3LDAuMjc3NDYgLTAuMjQyNzc3LDAuMzQ2ODI1IDAuMDM0NjgsMC4wNjkzNyAwLjEwNDA0NywwLjAzNDY4IDAuMTM4NzMsMC4wNjkzNyAwLjAzNDY4LDAuMTA0MDQ3IDAuMTA0MDQ3LDAuMTM4NzI5IDAuMDY5MzcsMC4yNDI3NzYgLTAuMDY5MzcsMC4xMDQwNDggLTAuMzEyMTQyLDAuMTczNDEzIC0wLjE3MzQxMiwwLjM0NjgyNSAwLjA2OTM2LDAuMTM4NzI5IDAuMDM0NjgsMC4yNzc0NTkgLTAuMDM0NjgsMC40MTYxODkgLTAuMDY5MzcsMC4xNzM0MTIgLTAuMjA4MDk0LDAuMjQyNzc3IC0wLjM0NjgyNCwwLjI3NzQ1OSAtMC4xMDQwNDcsMC4wMzQ2OCAtMC4yNDI3NzcsMC4wMzQ2OCAtMC4zNDY4MjQsMC4wMzQ2OCAtMC4wMzQ2OCwtMC4wMzQ2OCAtMC4wNjkzNywtMC4wMzQ2OCAtMC4xMDQwNDcsLTAuMDM0NjggLTAuMzEyMTQyLC0wLjAzNDY4IC0wLjYyNDI4NCwtMC4xMzg3MyAtMC45MzY0MjYsLTAuMTM4NzMgLTAuMTA0MDQ3LDAuMDM0NjggLTAuMTczNDEyLDAuMDM0NjggLTAuMjQyNzc3LDAuMDY5MzYgLTAuMDY5MzYsMC4wNjkzNyAtMC4xNzM0MTIsMC4xMzg3MyAtMC4yMDgwOTQsMC4yMDgwOTUgLTAuMDM0NjgsMC4wNjkzNyAtMC4wMzQ2OCwwLjAzNDY4IC0wLjAzNDY4LDAuMDM0NjggMCwwIDAsMC4wMzQ2OCAtMC4wMzQ2OCwwLjAzNDY4IHYgMC4wMzQ2OCBjIC0wLjA2OTM2LDAuMDY5MzYgLTAuMTA0MDQ3LDAuMTM4NzMgLTAuMTM4NzMsMC4yMDgwOTQgdiAwLjAzNDY4IGMgLTAuMDY5MzcsMC4xMDQwNDcgLTAuMTA0MDQ3LDAuMjQyNzc3IC0wLjEzODcyOSwwLjM0NjgyNCAtMC4xMzg3MywwLjQxNjE4OSAtMC4wNjkzNiwwLjc5NzY5NiAwLjAzNDY4LDAuODY3MDYxIDAuMDM0NjgsMC4wMzQ2OCAwLjYyNDI4NCwwLjIwODA5NDEgMS4wMDU3OSwwLjM4MTUwNjEgMC4yMDgwOTUsMC4wNjkzNyAwLjMxMjE0MiwwLjEzODczIDAuNDUwODcyLDAuMjA4MDk1IGggLTcuNjMwMTMzIGMgMC4zNDY4MjUsLTAuMjQyNzc3IDAuNjkzNjQ5LC0wLjM4MTUwNyAxLjIxMzg4NSwtMC42MjQyODQxIDAsLTAuMTA0MDQ3IDAuNTIwMjM2LC0wLjM0NjgyNCAwLjY5MzY0OCwtMC41MjAyMzYgTSA5LjA4Mjc0NjUsNy45MTc5OTA5IGMgLTAuMDM0NjgyLDAgLTAuMTA0MDQ3MiwwLjAzNDY4IC0wLjEwNDA0NzIsLTAuMDM0NjggMC4wMzQ2ODIsLTAuMTA0MDQ3IDAuMTM4NzI5NiwtMC4xMDQwNDcgMC4yMDgwOTQ1LC0wLjEzODczIDAuMDM0NjgyLC0wLjAzNDY4IDAuMTA0MDQ3MiwtMC4wNjkzNiAwLjEzODcyOTcsLTAuMDM0NjggMC4wMzQ2ODIsMC4wNjkzNyAwLjEwNDA0NzIsMC4wMzQ2OCAwLjEzODcyOTYsMC4wNjkzNyAtMC4xMDQwNDcyLDAuMTM4NzIgLTAuMjQyNzc2OSwwLjEwNDAzNyAtMC4zODE1MDY2LDAuMTM4NzIgbSAtMi44NDM5NTgzLC0wLjQxNjE5IGMgMCwwIC0wLjAzNDY4MiwtMC4wMzQ2OCAtMC4wMzQ2ODIsLTAuMDM0NjggMC4yNDI3NzcsLTAuMzEyMTQyIDAuNDE2MTg5MSwtMC42MjQyODMgMC41ODk2MDEyLC0wLjkzNjQyNSAwLjI0Mjc3NjksLTAuMTM4NzMgMC40NTA4NzE0LC0wLjMxMjE0MiAwLjYyNDI4MzUsLTAuNTIwMjM3IDAuMzEyMTQxOCwtMC4zNDY4MjQgMC42NTg5NjYsLTAuNjI0MjgzIDEuMDQwNDcyNiwtMC44MzIzNzggMC4xMzg3Mjk3LC0wLjA2OTM2IDAuMzQ2ODI0MiwtMC4wMzQ2OCAwLjQ4NTU1MzgsMC4wMzQ2OCAtMC4wNjkzNjUsMC4wNjkzNiAtMC4xMzg3Mjk2LDAuMDY5MzYgLTAuMjA4MDk0NSwwLjEwNDA0NyAtMC4wMzQ2ODIsMCAtMC4wMzQ2ODIsMCAtMC4wNjkzNjUsLTAuMDM0NjggMC4wMzQ2ODIsLTAuMDM0NjggMC4wMzQ2ODIsLTAuMDM0NjggMC4wMzQ2ODIsLTAuMDY5MzYgLTAuMTczNDEyMSwwLjIwODA5NCAtMC40NTA4NzE0LDAuMzEyMTQyIC0wLjU4OTYwMTEsMC41NTQ5MTkgLTAuMTA0MDQ3MywwLjE3MzQxMiAtMC4xNzM0MTIxLDAuNDE2MTg5IC0wLjQxNjE4OSwwLjQ4NTU1MyAtMC4wNjkzNjUsMC4wMzQ2OCAwLjAzNDY4MiwtMC4wNjkzNiAtMC4wMzQ2ODMsLTAuMDM0NjggLTAuNTg5NjAxMSwwLjM4MTUwNyAtMC45NzExMDc3LDAuNzk3Njk2IC0xLjQyMTk3OTEsMS4yODMyNDkgTSA3Ljc2NDgxNCw2LjI4NzkyNDkgYyAtMC4wMzQ2ODIsMC4wMzQ2OCAtMC4wMzQ2ODIsMC4wMzQ2OCAtMC4wNjkzNjUsMC4wNjkzNiAtMC4wMzQ2ODMsMC4wMzQ2OCAtMC4wMzQ2ODMsMC4wNjkzNiAtMC4wNjkzNjUsMC4wNjkzNiAtMC4wMzQ2ODIsMCAtMC4wMzQ2ODIsMCAtMC4wMzQ2ODIsLTAuMDM0NjggMC4wMzQ2ODIsLTAuMDY5MzcgMC4wNjkzNjUsLTAuMTM4NzMgMC4xMzg3Mjk3LC0wLjE3MzQxMiAwLjAzNDY4MiwwLjAzNDY4IDAuMDM0NjgyLDAuMDY5MzcgMC4wMzQ2ODIsMC4wNjkzNyBtIDAuODY3MDYwNSwyLjc3NDU5MyBjIDAsMC4wMzQ2OCAtMC4wMzQ2ODIsMC4wMzQ2OCAtMC4wMzQ2ODIsMC4wNjkzNiAwLjAzNDY4MiwwIDAuMDM0NjgyLDAgMC4wMzQ2ODIsMC4wMzQ2OCAtMC4wMzQ2ODIsMC4wMzQ2OCAtMC4wNjkzNjUsMC4wNjkzNiAtMC4xMzg3Mjk3LDAuMTA0MDQ3IDAsMCAwLDAgLTAuMDM0NjgyLDAgLTAuMDM0NjgyLDAuMDM0NjggLTAuMDM0NjgyLDAuMDM0NjggLTAuMDY5MzY1LDAuMDY5MzYgLTAuMDM0NjgyLDAuMDM0NjggLTAuMTM4NzI5NiwwIC0wLjEwNDA0NzIsLTAuMDM0NjggMC4wMzQ2ODIsLTAuMDM0NjggMC4xMDQwNDcyLC0wLjEwNDA0NyAwLjEzODcyOTcsLTAuMTM4NzI5IDAuMDM0NjgyLC0wLjAzNDY4IDAuMDY5MzY1LC0wLjAzNDY4IDAuMDY5MzY1LC0wLjA2OTM3IDAsMCAwLjAzNDY4MiwtMC4wMzQ2OCAwLjAzNDY4MiwtMC4wMzQ2OCAwLjAzNDY4MiwwIDAuMTM4NzI5NywtMC4wMzQ2OCAwLjEwNDA0NzMsMCBtIC0wLjMxMjE0MSwtMC4xMzg3MjMgYyAtMC4wNjkzNjUsMC4wNjkzNiAtMC4xMzg3Mjk3LDAuMTA0MDQ3IC0wLjIwODA5NDUsMC4xMzg3MjkgLTAuMDY5MzY1LDAuMDM0NjggLTAuMTczNDEyMSwwLjA2OTM2IC0wLjI0Mjc3NjksMC4xMDQwNDggaCAtMC4wMzQ2ODMgYyAtMC4wNjkzNjUsMC4wMzQ2OCAtMC4xMzg3Mjk2LDAuMTA0MDQ3IC0wLjE3MzQxMjEsMC4xMzg3MjkgMCwwIDAsMCAtMC4wMzQ2ODIsMC4wMzQ2OCAtMC4wMzQ2ODIsMC4wMzQ2OCAtMC4wMzQ2ODIsMC4wMzQ2OCAtMC4wMzQ2ODIsMC4wMzQ2OCAwLDAgLTAuMDM0NjgyLDAuMDM0NjggLTAuMDM0NjgyLDAuMDM0NjggMCwwIDAsMC4wMzQ2OCAtMC4wMzQ2ODIsMC4wMzQ2OCBoIC0wLjAzNDY4NCAtMC4wMzQ2ODIgLTAuMDM0NjgyIGMgLTAuMDM0NjgyLDAuMDM0NjggLTAuMDM0NjgyLDAuMDM0NjggLTAuMDY5MzY1LDAuMDY5MzcgLTAuMDM0NjgyLDAuMDM0NjggLTAuMDY5MzY1LDAuMDY5MzYgLTAuMTA0MDQ3MywwLjEwNDA0NyB2IDAuMDM0NjggLTAuMDM0NjggbCAwLjA2OTM2NSwtMC4wNjkzNiBjIDAsMCAwLDAgMC4wMzQ2ODIsLTAuMDM0NjggMCwwIDAuMDM0NjgyLC0wLjAzNDY4IDAuMDM0NjgyLC0wLjAzNDY4IDAuMDM0NjgyLC0wLjAzNDY4IDAuMDM0NjgyLC0wLjA2OTM2IDAuMDY5MzY1LC0wLjA2OTM2IDAuMDM0NjgyLDAgMC4wMzQ2ODIsLTAuMDM0NjggMC4wMzQ2ODIsLTAuMDM0NjggMCwwIDAsLTAuMDM0NjggMC4wMzQ2ODIsLTAuMDM0NjggMC4wMzQ2ODIsMCAwLC0wLjAzNDY4IDAuMDM0NjgyLC0wLjAzNDY4IDAuMDM0NjgyLDAgMCwwIDAsLTAuMDM0NjggdiAtMC4wMzQ2OCBjIDAuMDM0NjgyLC0wLjAzNDY4IDAuMDM0NjgyLC0wLjA2OTM2IDAuMDY5MzY1LC0wLjEwNDA0NyAtMC4wMzQ2ODIsMCAtMC4wMzQ2ODIsMC4wMzQ2OCAtMC4wNjkzNjUsMC4wNjkzNiAtMC4wMzQ2ODIsMCAtMC4wNjkzNjUsMCAtMC4wMzQ2ODIsLTAuMDM0NjggMCwwIDAuMDM0NjgyLC0wLjAzNDY4IDAuMDM0NjgyLC0wLjAzNDY4IGwgMC4xMDQwNDcyLC0wLjEwNDA0NyBjIDAuMDM0NjgzLDAgMC4wMzQ2ODMsLTAuMDM0NjggMC4wNjkzNjUsLTAuMDM0NjggMC4wMzQ2ODIsMCAwLjAzNDY4MiwtMC4wMzQ2OCAwLjAzNDY4MiwtMC4wMzQ2OCAwLjE3MzQxMjEsLTAuMTczNDEyIDAuNDg1NTUzOSwtMC4xNzM0MTIgMC43MjgzMzA4LC0wLjI3NzQ1OSAwLjEwNDA0NzMsLTAuMDM0NjggMC4yMDgwOTQ1LDAuMDM0NjggMC4zMTIxNDE4LDAgMC4wNjkzNjUsMCAwLjEwNDA0NzIsMCAwLjE3MzQxMjEsMC4wMzQ2OCAtMC4zODE1MDY2LDAgLTAuNTIwMjM2MywwLjEwNDA0NyAtMC42NTg5NjYsMC4yMDgwOTUgbSAwLjM4MTUwNjYsLTEuMjgzMjUgYyAtMC4wMzQ2ODIsLTAuMDM0NjggMC4wNjkzNjUsMCAwLjA2OTM2NSwtMC4wMzQ2OCBIIDguNTk3MTkyNyBjIC0wLjAzNDY4MywwIC0wLjAzNDY4MywtMC4wMzQ2OCAtMC4wMzQ2ODMsLTAuMDM0NjggLTAuMTA0MDQ3MiwwLjAzNDY4IC0wLjIwODA5NDUsMC4wNjkzNiAtMC4zMTIxNDE3LDAuMDY5MzYgLTAuMTM4NzI5NywwLjAzNDY4IC0wLjI0Mjc3NywwLjEzODczIC0wLjM4MTUwNjYsMC4xNzM0MTIgLTAuMjA4MDk0NiwwLjA2OTM2IC0wLjM4MTUwNjYsMC4yNDI3NzcgLTAuNTg5NjAxMiwwLjMxMjE0MiAtMC4wMzQ2ODIsMCAtMC4wMzQ2ODIsLTAuMDM0NjggLTAuMDM0NjgyLC0wLjAzNDY4IDAuMDM0NjgyLC0wLjA2OTM2IDAuMTA0MDQ3MywtMC4wNjkzNiAwLjEzODcyOTcsLTAuMTM4NzMgMCwtMC4wMzQ2OCAwLC0wLjAzNDY4IC0wLjAzNDY4MiwtMC4wMzQ2OCAwLjEzODcyOTcsLTAuMjA4MDk1IDAuMzQ2ODI0MiwtMC4zMTIxNDIgMC41NTQ5MTg3LC0wLjQ4NTU1NCB2IC0wLjA2OTM3IGMgMC4wNjkzNjUsLTAuMDY5MzYgMC4xMzg3Mjk3LC0wLjEwNDA0NyAwLjE3MzQxMjEsLTAuMjA4MDk1IDAuMDM0NjgyLC0wLjA2OTM2IDAuMTA0MDQ3MiwtMC4xMzg3MjkgMC4xNzM0MTIxLC0wLjE3MzQxMiAtMC4wMzQ2ODIsLTAuMDM0NjggLTAuMDY5MzY1LC0wLjAzNDY4IC0wLjA2OTM2NSwtMC4wNjkzNyAtMC4wNjkzNjUsMCAtMC4xMzg3Mjk2LDAuMDM0NjggLTAuMjA4MDk0NSwtMC4wMzQ2OCAwLjAzNDY4MiwtMC4wMzQ2OCAwLjA2OTM2NSwtMC4wNjkzNyAwLjEwNDA0NzMsLTAuMDY5MzcgMCwwIC0wLjAzNDY4MiwwIC0wLjAzNDY4MiwtMC4wMzQ2OCAtMC4wMzQ2ODMsLTAuMDM0NjggMC4wMzQ2ODIsLTAuMDY5MzYgMC4xMDQwNDcyLC0wLjEwNDA0OCAwLjA2OTM2NSwtMC4wMzQ2OCAwLjE3MzQxMjEsLTAuMDM0NjggMC4yMDgwOTQ1LC0wLjA2OTM2IC0wLjEzODcyOTYsLTAuMDM0NjggLTAuMjc3NDU5MywwLjAzNDY4IC0wLjQxNjE4OSwtMC4wMzQ2OCAwLjEwNDA0NzMsLTAuMjQyNzc3IDAuMjQyNzc2OSwtMC40NTA4NzEgMC40NTA4NzE0LC0wLjU1NDkxOSAwLjAzNDY4MywwIDAuMDY5MzY1LDAgMC4wNjkzNjUsMC4wMzQ2OCAwLDAuMTA0MDQ3IC0wLjA2OTM2NSwwLjE3MzQxMiAtMC4xMzg3Mjk3LDAuMTczNDEyIDAuMTM4NzI5NywwLjAzNDY4IDAuMzEyMTQxOCwwLjAzNDY4IDAuNDUwODcxNSwwLjEwNDA0NyAtMC4wMzQ2ODMsMC4wMzQ2OCAtMC4wNjkzNjUsMC4wMzQ2OCAtMC4wNjkzNjUsMC4wMzQ2OCAwLjEwNDA0NzMsMC4wNjkzNiAwLjIwODA5NDUsMC4wMzQ2OCAwLjMxMjE0MTgsMC4xMDQwNDcgLTAuMDY5MzY1LDAuMDY5MzYgLTAuMTA0MDQ3MywwIC0wLjE3MzQxMjEsMCAwLjU4OTYwMTEsMC4xNzM0MTIgMS4xNzkyMDE4LDAuMzEyMTQyIDEuNjY0NzU1OCwwLjY1ODk2NiAtMC40MTYxODksMC4yMDgwOTQgLTAuODMyMzc4LDAuMzEyMTQyIC0xLjI4MzI0OTIsMC4zODE1MDYgLTAuMDY5MzY1LDAgLTAuMTA0MDQ3MywwIC0wLjEzODcyOTcsLTAuMDM0NjggMCwwLjAzNDY4IDAsMC4wNjkzNyAtMC4wMzQ2ODIsMC4wNjkzNyAtMC4wNjkzNjUsMCAtMC4xMzg3Mjk3LDAgLTAuMTczNDEyMSwwLjAzNDY4IC0wLjAzNDY4MiwwLjEwNDA0OCAtMC4xMzg3Mjk3LDAuMTA0MDQ4IC0wLjE3MzQxMjEsMC4wNjkzNiIgZmlsbD0iI2ZmZmZmZiIgaWQ9InBhdGg4IiBzdHlsZT0ic3Ryb2tlLXdpZHRoOjAuMzQ2ODI0Ii8+JiN4YTsgICAgPHBhdGggZD0ibSAxMS45MjY3MDQsOS4yNzA2MDQ5IGMgMC4xMDQwNDgsLTAuMTA0MDQ3IDAuMjA4MDk1LC0wLjIwODA5NSAwLjMxMjE0MiwtMC4zNDY4MjQgMC4yMDgwOTUsLTAuMjA4MDk1IDAuMzgxNTA3LC0wLjQ1MDg3MiAwLjYyNDI4NCwtMC42MjQyODQgMC4wNjkzNywtMC4wNjkzNiAwLjEzODcyOSwtMC4xMDQwNDcgMC4yMDgwOTQsLTAuMTczNDEyIDAuMDM0NjgsLTAuMDM0NjggMC4wMzQ2OCwtMC4wNjkzNyAwLjAzNDY4LC0wLjA2OTM3IC0wLjEwNDA0OCwwLjAzNDY4IC0wLjEzODczLDAuMTA0MDQ3IC0wLjI0Mjc3NywwLjEzODczIC0wLjAzNDY4LDAgLTAuMDM0NjgsLTAuMDM0NjggLTAuMDM0NjgsLTAuMDM0NjggMC4wNjkzNiwtMC4wMzQ2OCAwLjEzODczLC0wLjEwNDA0NyAwLjIwODA5NSwtMC4xMzg3MjkgLTAuMDM0NjgsMCAtMC4wMzQ2OCwtMC4wMzQ2OCAtMC4wMzQ2OCwtMC4wMzQ2OCAtMC4yNDI3NzYsLTAuMDM0NjggLTAuNDE2MTg5LDAuMTM4NzMgLTAuNTg5NjAxLDAuMjc3NDYgLTAuMDM0NjgsMC4wMzQ2OCAtMC4wNjkzNiwtMC4wMzQ2OCAtMC4xMDQwNDcsLTAuMDM0NjggLTAuMjc3NDU5LDAuMTA0MDQ4IC0wLjQ4NTU1NCwwLjM0NjgyNCAtMC43NjMwMTMsMC40NTA4NzIgdiAtMC4wMzQ2OCBjIC0wLjEwNDA0NywwLjAzNDY4IC0wLjIwODA5NSwwLjEwNDA0OCAtMC4zNDY4MjQsMC4xMzg3MyAtMC4xNzM0MTIsMC4wMzQ2OCAtMC4zMTIxNDIsMC4wMzQ2OCAtMC40NTA4NzIsMC4wMzQ2OCAtMC4yMDgwOTQsMC4wMzQ2OCAtMC40NTA4NzEsMC4wNjkzNiAtMC42NTg5NjYsMC4xMDQwNDggMCwwIDAsMCAtMC4wMzQ2OCwwIC0wLjEwNDA0NywwLjAzNDY4IC0wLjI0Mjc3NywwLjA2OTM2IC0wLjM0NjgyNCwwLjEzODcyOSAtMC4xMDQwNDcsMC4wNjkzNiAtMC4wMzQ2OCwwLjAzNDY4IC0wLjAzNDY4LDAuMDM0NjggLTAuMDM0NjgsMC4wMzQ2OCAtMC4wNjkzNiwwLjA2OTM3IC0wLjEzODcyOSwwLjEwNDA0NyAtMC4xMDQwNDc4LDAuMDY5MzcgLTAuMjA4MDk1LDAuMTczNDEyIC0wLjMxMjE0MjMsMC4yNDI3NzcgaCAtMC4wMzQ2ODIgYyAtMC4xMDQwNDczLDAuMTA0MDQ3IC0wLjIwODA5NDUsMC4yMDgwOTQgLTAuMzEyMTQxOCwwLjI3NzQ1OSAwLDAgLTAuMDM0NjgyLDAgLTAuMDY5MzY1LDAgLTAuMDM0NjgyLDAgMCwwIDAsLTAuMDM0NjggMCwtMC4wMzQ2OCAwLjAzNDY4MiwtMC4wNjkzNiAwLjAzNDY4MiwtMC4wNjkzNiAwLjAzNDY4MiwtMC4wMzQ2OCAwLjAzNDY4MiwtMC4wNjkzNiAwLjA2OTM2NSwtMC4wNjkzNiAwLjAzNDY4MiwtMC4wMzQ2OCAwLjAzNDY4MiwtMC4wNjkzNyAwLjA2OTM2NSwtMC4xMDQwNDcgdiAtMC4wMzQ2OCBjIDAsMCAwLDAgLTAuMDM0NjgzLDAgMC4xMDQwNDczLC0wLjEwNDA0OCAwLjIwODA5NDYsLTAuMTczNDEzIDAuMzEyMTQxOCwtMC4yNDI3NzcgMC4xMDQwNDczLC0wLjA2OTM3IC0wLjAzNDY4MiwwIC0wLjAzNDY4MiwtMC4wMzQ2OCAwLDAgMC4wMzQ2ODIsLTAuMDM0NjggMC4wMzQ2ODIsLTAuMDM0NjggLTAuMDM0NjgyLDAuMDM0NjggLTAuMDY5MzY1LDAuMDM0NjggLTAuMTA0MDQ3MiwwLjA2OTM3IC0wLjAzNDY4MywwLjAzNDY4IC0wLjA2OTM2NSwwLjEzODcyOSAtMC4xMzg3Mjk3LDAuMTA0MDQ3IGggLTAuMDM0NjgyIGMgMCwwIDAsMCAtMC4wMzQ2ODMsMCAtMC4wMzQ2ODIsMCAwLDAgMCwtMC4wMzQ2OCAwLC0wLjAzNDY4IDAsLTAuMDM0NjggMC4wMzQ2ODMsLTAuMDM0NjggMCwwIDAsMCAwLC0wLjAzNDY4IDAsMCAwLC0wLjAzNDY4IDAuMDM0NjgyLC0wLjAzNDY4IHYgLTAuMDM0NjggYyAwLjAzNDY4MiwtMC4wMzQ2OCAwLjA2OTM2NSwtMC4wNjkzNiAwLjEzODcyOTcsLTAuMTA0MDQ4IDAuMDY5MzY1LC0wLjAzNDY4IDAuMTM4NzI5NiwtMC4wNjkzNiAwLjIwODA5NDUsLTAuMTA0MDQ3IDAsMCAwLjAzNDY4MiwtMC4wMzQ2OCAwLjAzNDY4MiwtMC4wMzQ2OCAtMC4xMDQwNDczLDAuMDM0NjggLTAuMjA4MDk0NSwwLjA2OTM3IC0wLjMxMjE0MTgsMC4xMzg3MjkgaCAtMC4wMzQ2ODIgLTAuMDM0NjgyIGMgMC4wMzQ2ODIsLTAuMDM0NjggMC4wNjkzNjUsLTAuMDY5MzYgMC4xMDQwNDcyLC0wLjEwNDA0NyAwLjAzNDY4MywwIDAuMDM0NjgzLDAgMC4wMzQ2ODMsMC4wMzQ2OCAwLjU4OTYwMTYsLTAuNDUwODcyIDEuNDIxOTc4NiwtMC4zNDY4MjUgMi4xMTU2Mjc2LC0wLjU4OTYwMSAwLjA2OTM2LC0wLjAzNDY4IDAuMTA0MDQ3LC0wLjA2OTM3IDAuMTczNDEyLC0wLjEwNDA0OCAwLjEwNDA0NywtMC4wMzQ2OCAwLjE3MzQxMiwtMC4xMzg3MjkgMC4yNzc0NTksLTAuMTczNDEyIDAuMTM4NzMsLTAuMTA0MDQ3IDAuMjQyNzc3LC0wLjI0Mjc3NyAwLjMxMjE0MiwtMC40MTYxODkgMCwtMC4wMzQ2OCAtMC4wMzQ2OCwtMC4wMzQ2OCAtMC4wMzQ2OCwtMC4wMzQ2OCAtMC4yNDI3NzcsMC4yNzc0NTkgLTAuNTIwMjM2LDAuNDUwODcxIC0wLjgzMjM3OCwwLjYyNDI4MyAtMC4zODE1MDYsMC4yMDgwOTUgLTAuODMyMzc4LDAuMTczNDEyIC0xLjIxMzg4NCwwLjIwODA5NSAwLjAzNDY4LC0wLjAzNDY4IDAuMDY5MzYsLTAuMDM0NjggMC4xMDQwNDcsLTAuMDM0NjggMCwtMC4wNjkzNiAwLjAzNDY4LC0wLjA2OTM2IDAuMDY5MzYsLTAuMTA0MDQ3IGggMC4yMDgwOTQgYyAwLjAzNDY4LDAgMC4wMzQ2OCwtMC4wMzQ2OCAwLjAzNDY4LC0wLjAzNDY4IDAuMDM0NjgsMCAwLjEwNDA0NywtMC4wMzQ2OCAwLjA2OTM2LC0wLjAzNDY4IC0wLjA2OTM2LC0wLjA2OTM2IC0wLjE3MzQxMiwwLjA2OTM2IC0wLjI3NzQ1OSwwIDAuMDM0NjgsLTAuMDM0NjggMC4wMzQ2OCwtMC4xMDQwNDcgMC4wNjkzNiwtMC4xMDQwNDcgaCAwLjA2OTM3IGMgMCwtMC4wMzQ2OCAwLjAzNDY4LC0wLjA2OTM3IDAuMDM0NjgsLTAuMDY5MzcgMC4yNzc0NiwtMC4xNzM0MTIgMC41NTQ5MTksLTAuMzEyMTQyIDAuNzk3Njk2LC0wLjQ1MDg3MSAtMC4wNjkzNiwwIC0wLjEwNDA0NywwLjA2OTM2IC0wLjEzODczLDAuMDM0NjggMC4wMzQ2OCwwIDAsLTAuMDY5MzYgMC4wMzQ2OCwtMC4wNjkzNiAwLjIwODA5NCwtMC4wNjkzNyAwLjM4MTUwNiwtMC4xNzM0MTIgMC41ODk2MDEsLTAuMjQyNzc3IC0wLjA2OTM2LDAgLTAuMTM4NzMsMC4wNjkzNiAtMC4yMDgwOTUsMCAwLjAzNDY4LC0wLjAzNDY4IDAuMDY5MzcsLTAuMDY5MzYgMC4xMDQwNDcsLTAuMDY5MzYgdiAtMC4wNjkzNiBjIDAsLTAuMDM0NjggMC4wMzQ2OCwtMC4wMzQ2OCAwLjAzNDY4LC0wLjAzNDY4IC0wLjAzNDY4LDAgLTAuMDM0NjgsLTAuMDM0NjggLTAuMDM0NjgsLTAuMDM0NjggMC4wMzQ2OCwtMC4wMzQ2OCAwLjA2OTM2LC0wLjAzNDY4IDAuMTA0MDQ4LC0wLjA2OTM2IC0wLjAzNDY4LDAgLTAuMDY5MzYsMCAtMC4wNjkzNiwtMC4wMzQ2OCAwLjA2OTM2LC0wLjA2OTM2IDAuMTM4NzMsLTAuMTA0MDQ4IDAuMjQyNzc3LC0wLjEwNDA0OCAtMC4wMzQ2OCwtMC4wMzQ2OCAtMC4wNjkzNywwIC0wLjA2OTM3LC0wLjAzNDY4IDAsLTAuMDM0NjggMC4wMzQ2OCwtMC4wMzQ2OCAwLjAzNDY4LC0wLjAzNDY4IGggLTAuMDM0NjggYyAtMC4wMzQ2OCwtMC4wMzQ2OCAtMC4wMzQ2OCwtMC4wNjkzNyAtMC4wMzQ2OCwtMC4wNjkzNyAwLjEwNDA0NywtMC4xMzg3MyAwLjEwNDA0NywtMC4zMTIxNDIgMC4xNzM0MTIsLTAuNDUwODcyIC0wLjAzNDY4LDAgLTAuMDM0NjgsMCAtMC4wMzQ2OCwtMC4wMzQ2OCAtMC4xNzM0MTIsMC4yMDgwOTQgLTAuNDg1NTU0LDAuMjc3NDU5IC0wLjc2MzAxMywwLjM0NjgyNCBoIC0wLjEwNDA0NyBjIC0wLjEwNDA0OCwwLjAzNDY4IC0wLjIwODA5NSwwLjAzNDY4IC0wLjMxMjE0MiwtMC4wMzQ2OCAtMC4wNjkzNywtMC4wMzQ2OCAtMC4xMDQwNDcsLTAuMTA0MDQ4IC0wLjE3MzQxMiwtMC4xMzg3MyBDIDEwLjMzMTMxMiw2LjM1NzM1MDkgMTAuMTU3OSw2LjI4Nzk4NTkgMTAuMDE5MTcsNi4yNTMzMDI5IDkuNTY4Mjk5LDYuMTE0NTczOSA5LjA4Mjc0NTUsNi4wNDUyMDg5IDguNTk3MTkxNyw2LjA0NTIwODkgOC44MDUyODYyLDUuOTQxMTYxOSA5LjAxMzM4MDcsNS45NDExNjE5IDkuMjU2MTU3Niw1Ljg3MTc5NjkgOS41NjgyOTksNS43Njc3NDk5IDkuODgwNDQxLDUuNjYzNzAxOSAxMC4xOTI1ODMsNS42OTgzODQ5IGMgLTAuMDY5MzYsLTAuMDM0NjggLTAuMTM4NzMsMCAtMC4xNzM0MTMsMCAtMC4yNzc0NTgsLTAuMDM0NjggLTAuNTIwMjM1NCwwLjA2OTM2IC0wLjc5NzY5NDgsMC4xMDQwNDcgLTAuMTczNDEyMSwwLjAzNDY4IC0wLjM0NjgyNDIsMC4xMDQwNDcgLTAuNTU0OTE4NywwLjEzODczIC0wLjEwNDA1MDMsMC4wMzQ2OCAtMC4xNzM0MTUxLDAuMTM4NzI5IC0wLjMxMjE0NDgsMC4xMzg3MjkgdiAtMC4wNjkzNyBjIDAuMTczNDEyMSwtMC4yMDgwOTQgMC40MTYxODkxLC0wLjQ1MDg3MSAwLjY5MzY0ODQsLTAuNDUwODcxIDAuMzQ2ODI0MiwtMC4wNjkzNiAwLjY1ODk2NTksMCAwLjk3MTEwNjksMC4wMzQ2OCAwLjI0Mjc3NywwLjAzNDY4IDAuNDUwODcyLDAuMDY5MzYgMC42OTM2NDksMC4xMzg3MyAwLjEwNDA0NywwIDAuMTA0MDQ3LDAuMTM4NzMgMC4xNzM0MTIsMC4xNzM0MTIgMC4xMDQwNDcsMC4wMzQ2OCAwLjIwODA5NCwwIDAuMzQ2ODI0LDAuMDY5MzYgMCwtMC4wMzQ2OCAtMC4wMzQ2OCwtMC4wNjkzNiAwLC0wLjEwNDA0NyAwLjA2OTM2LC0wLjA2OTM2IDAuMTczNDEyLDAuMDM0NjggMC4yNDI3NzcsLTAuMDM0NjggMC4xMzg3MywtMC4xMDQwNDcgLTAuMTM4NzMsLTAuMjQyNzc3IC0wLjIwODA5NCwtMC4zODE1MDYgMCwtMC4wMzQ2OCAwLjAzNDY4LC0wLjAzNDY4IDAuMDM0NjgsLTAuMDM0NjggMC4xMzg3MywwLjEzODczIDAuMjQyNzc3LDAuMjc3NDYgMC40NTA4NzEsMC4zODE1MDcgMC4xMDQwNDgsMC4wMzQ2OCAwLjMxMjE0MiwwLjEwNDA0NyAwLjI3NzQ2LC0wLjAzNDY4IC0wLjEwNDA0OCwtMC4yMDgwOTUgLTAuMjc3NDYsLTAuMzgxNTA3IC0wLjQxNjE4OSwtMC41NTQ5MTkgdiAtMC4wNjkzNiBjIC0wLjAzNDY4LDAgLTAuMDM0NjgsLTAuMDM0NjggLTAuMDY5MzYsLTAuMDM0NjggdiAtMC4wNjkzNyBjIC0wLjA2OTM2LC0wLjAzNDY4IC0wLjA2OTM2LC0wLjEwNDA0OCAtMC4xMDQwNDcsLTAuMTczNDEyIC0wLjA2OTM3LC0wLjEwNDA0OCAtMC4wMzQ2OCwtMC4yMDgwOTUgLTAuMDY5MzcsLTAuMzQ2ODI1IDAuMDM0NjgsLTAuMTM4NzI5IDAsLTAuMjQyNzc2IDAsLTAuMzQ2ODI0IEMgMTEuMzAyNDIsMy44NjAyMTQ0IDExLjIzMzA1LDMuNTgyNzU1IDExLjE5ODM2OCwzLjI3MDYxMzMgMTEuMTYzNjg4LDIuOTIzNzg5MSAxMS40MDY0NjIsMi42NDYzMjk3IDExLjU3OTg3NCwyLjMzNDE4NzkgMTEuNzE4NjA0LDIuMTI2MDkzNCAxMS44NTczMzQsMS44ODMzMTY1IDEyLjEwMDExMSwxLjc0NDU4NjggMTIuMTY5NDcxLDEuNTM2NDkyMyAxMi4zMDgyMDUsMS4zMjgzOTc4IDEyLjQ0NjkzNSwxLjE1NDk4NTcgMTIuNTg1NjY0LDAuOTgxNTczNiAxMi44Mjg0NDEsMC44Nzc1MjYzIDEzLjAzNjUzNiwwLjc3MzQ3OTEgMTMuMjc5MzEzLDAuNjY5NDMxOCAxMy41MjIwOSwwLjYwMDA2NyAxMy41MjIwOSwwLjYwMDA2NyBIIDAuNzU4OTY2IHYgOS44MTUwNTggaCA5LjAxNzQyOSBjIDAuMzQ2ODI0LC0wLjI0Mjc3NyAwLjY5MzY0OCwtMC4zODE1MDcgMS4yMTM4ODQsLTAuNjI0Mjg0MSAwLjI0Mjc3NywtMC4xMDQwNDcgMC43NjMwMTMsLTAuMzQ2ODI0IDAuOTM2NDI1LC0wLjUyMDIzNiBNIDkuMDgyNzQ2NSw3LjkxNzk5MDkgYyAtMC4wMzQ2ODIsMCAtMC4xMDQwNDcyLDAuMDM0NjggLTAuMTA0MDQ3MiwtMC4wMzQ2OCAwLjAzNDY4MiwtMC4xMDQwNDcgMC4xMzg3Mjk2LC0wLjEwNDA0NyAwLjIwODA5NDUsLTAuMTM4NzMgMC4wMzQ2ODIsLTAuMDM0NjggMC4xMDQwNDcyLC0wLjA2OTM2IDAuMTM4NzI5NywtMC4wMzQ2OCAwLjAzNDY4MiwwLjA2OTM3IDAuMTA0MDQ3MiwwLjAzNDY4IDAuMTM4NzI5NiwwLjA2OTM3IC0wLjEwNDA0NzIsMC4xMzg3MiAtMC4yNDI3NzY5LDAuMTA0MDM3IC0wLjM4MTUwNjYsMC4xMzg3MiBtIC0yLjg0Mzk1ODMsLTAuNDE2MTkgYyAwLDAgLTAuMDM0NjgyLC0wLjAzNDY4IC0wLjAzNDY4MiwtMC4wMzQ2OCAwLjI0Mjc3NywtMC4zMTIxNDIgMC40MTYxODkxLC0wLjYyNDI4MyAwLjU4OTYwMTIsLTAuOTM2NDI1IDAuMjQyNzc2OSwtMC4xMzg3MyAwLjQ1MDg3MTQsLTAuMzEyMTQyIDAuNjI0MjgzNSwtMC41MjAyMzcgMC4zMTIxNDE4LC0wLjM0NjgyNCAwLjY1ODk2NiwtMC42MjQyODMgMS4wNDA0NzI2LC0wLjgzMjM3OCAwLjEzODcyOTcsLTAuMDY5MzYgMC4zNDY4MjQyLC0wLjAzNDY4IDAuNDg1NTUzOCwwLjAzNDY4IC0wLjA2OTM2NSwwLjA2OTM2IC0wLjEzODcyOTYsMC4wNjkzNiAtMC4yMDgwOTQ1LDAuMTA0MDQ3IC0wLjAzNDY4MiwwIC0wLjAzNDY4MiwwIC0wLjA2OTM2NSwtMC4wMzQ2OCAwLjAzNDY4MiwtMC4wMzQ2OCAwLjAzNDY4MiwtMC4wMzQ2OCAwLjAzNDY4MiwtMC4wNjkzNiAtMC4xNzM0MTIxLDAuMjA4MDk0IC0wLjQ1MDg3MTQsMC4zMTIxNDIgLTAuNTg5NjAxMSwwLjU1NDkxOSAtMC4xMDQwNDczLDAuMTczNDEyIC0wLjE3MzQxMjEsMC40MTYxODkgLTAuNDE2MTg5LDAuNDg1NTUzIC0wLjA2OTM2NSwwLjAzNDY4IDAuMDM0NjgyLC0wLjA2OTM2IC0wLjAzNDY4MywtMC4wMzQ2OCBDIDcuMTA1ODQ4LDYuNjAwMDY2OSA2LjY4OTY1OSw3LjAxNjI1NTkgNi4yMzg3ODc2LDcuNTAxODA4OSBNIDcuNzY0ODE0LDYuMjg3OTI0OSBjIC0wLjAzNDY4MiwwLjAzNDY4IC0wLjAzNDY4MiwwLjAzNDY4IC0wLjA2OTM2NSwwLjA2OTM2IC0wLjAzNDY4MywwLjAzNDY4IC0wLjAzNDY4MywwLjA2OTM2IC0wLjA2OTM2NSwwLjA2OTM2IC0wLjAzNDY4MiwwIC0wLjAzNDY4MiwwIC0wLjAzNDY4MiwtMC4wMzQ2OCAwLjAzNDY4MiwtMC4wNjkzNyAwLjA2OTM2NSwtMC4xMzg3MyAwLjEzODcyOTcsLTAuMTczNDEyIDAuMDM0NjgyLDAuMDM0NjggMC4wMzQ2ODIsMC4wNjkzNyAwLjAzNDY4MiwwLjA2OTM3IG0gMC44NjcwNjA1LDIuNzc0NTkzIGMgMCwwLjAzNDY4IC0wLjAzNDY4MiwwLjAzNDY4IC0wLjAzNDY4MiwwLjA2OTM2IDAuMDM0NjgyLDAgMC4wMzQ2ODIsMCAwLjAzNDY4MiwwLjAzNDY4IC0wLjAzNDY4MiwwLjAzNDY4IC0wLjA2OTM2NSwwLjA2OTM2IC0wLjEzODcyOTcsMC4xMDQwNDcgMCwwIDAsMCAtMC4wMzQ2ODIsMCAtMC4wMzQ2ODIsMC4wMzQ2OCAtMC4wMzQ2ODIsMC4wMzQ2OCAtMC4wNjkzNjUsMC4wNjkzNiAtMC4wMzQ2ODIsMC4wMzQ2OCAtMC4xMzg3Mjk2LDAgLTAuMTA0MDQ3MiwtMC4wMzQ2OCAwLjAzNDY4MiwtMC4wMzQ2OCAwLjEwNDA0NzIsLTAuMTA0MDQ3IDAuMTM4NzI5NywtMC4xMzg3MjkgMC4wMzQ2ODIsLTAuMDM0NjggMC4wNjkzNjUsLTAuMDM0NjggMC4wNjkzNjUsLTAuMDY5MzcgMCwwIDAuMDM0NjgyLC0wLjAzNDY4IDAuMDM0NjgyLC0wLjAzNDY4IDAuMDM0NjgyLDAgMC4xMzg3Mjk3LC0wLjAzNDY4IDAuMTA0MDQ3MywwIG0gLTAuMzEyMTQxLC0wLjEzODcyMyBjIC0wLjA2OTM2NSwwLjA2OTM2IC0wLjEzODcyOTcsMC4xMDQwNDcgLTAuMjA4MDk0NSwwLjEzODcyOSAtMC4wNjkzNjUsMC4wMzQ2OCAtMC4xNzM0MTIxLDAuMDY5MzYgLTAuMjQyNzc2OSwwLjEwNDA0OCBoIC0wLjAzNDY4MyBjIC0wLjA2OTM2NSwwLjAzNDY4IC0wLjEzODcyOTYsMC4xMDQwNDcgLTAuMTczNDEyMSwwLjEzODcyOSAwLDAgMCwwIC0wLjAzNDY4MiwwLjAzNDY4IC0wLjAzNDY4MiwwLjAzNDY4IC0wLjAzNDY4MiwwLjAzNDY4IC0wLjAzNDY4MiwwLjAzNDY4IDAsMCAtMC4wMzQ2ODIsMC4wMzQ2OCAtMC4wMzQ2ODIsMC4wMzQ2OCAwLDAgMCwwLjAzNDY4IC0wLjAzNDY4MiwwLjAzNDY4IGggLTAuMDM0Njg0IC0wLjAzNDY4MiAtMC4wMzQ2ODIgYyAtMC4wMzQ2ODIsMC4wMzQ2OCAtMC4wMzQ2ODIsMC4wMzQ2OCAtMC4wNjkzNjUsMC4wNjkzNyAtMC4wMzQ2ODIsMC4wMzQ2OCAtMC4wNjkzNjUsMC4wNjkzNiAtMC4xMDQwNDczLDAuMTA0MDQ3IHYgMC4wMzQ2OCAtMC4wMzQ2OCBsIDAuMDY5MzY1LC0wLjA2OTM2IGMgMCwwIDAsMCAwLjAzNDY4MiwtMC4wMzQ2OCAwLDAgMC4wMzQ2ODIsLTAuMDM0NjggMC4wMzQ2ODIsLTAuMDM0NjggMC4wMzQ2ODIsLTAuMDM0NjggMC4wMzQ2ODIsLTAuMDY5MzYgMC4wNjkzNjUsLTAuMDY5MzYgMC4wMzQ2ODIsMCAwLjAzNDY4MiwtMC4wMzQ2OCAwLjAzNDY4MiwtMC4wMzQ2OCAwLDAgMCwtMC4wMzQ2OCAwLjAzNDY4MiwtMC4wMzQ2OCAwLjAzNDY4MiwwIDAsLTAuMDM0NjggMC4wMzQ2ODIsLTAuMDM0NjggMC4wMzQ2ODIsMCAwLDAgMCwtMC4wMzQ2OCB2IC0wLjAzNDY4IGMgMC4wMzQ2ODIsLTAuMDM0NjggMC4wMzQ2ODIsLTAuMDY5MzYgMC4wNjkzNjUsLTAuMTA0MDQ3IC0wLjAzNDY4MiwwIC0wLjAzNDY4MiwwLjAzNDY4IC0wLjA2OTM2NSwwLjA2OTM2IC0wLjAzNDY4MiwwIC0wLjA2OTM2NSwwIC0wLjAzNDY4MiwtMC4wMzQ2OCAwLDAgMC4wMzQ2ODIsLTAuMDM0NjggMC4wMzQ2ODIsLTAuMDM0NjggbCAwLjEwNDA0NzIsLTAuMTA0MDQ3IGMgMC4wMzQ2ODMsMCAwLjAzNDY4MywtMC4wMzQ2OCAwLjA2OTM2NSwtMC4wMzQ2OCAwLjAzNDY4MiwwIDAuMDM0NjgyLC0wLjAzNDY4IDAuMDM0NjgyLC0wLjAzNDY4IDAuMTczNDEyMSwtMC4xNzM0MTIgMC40ODU1NTM5LC0wLjE3MzQxMiAwLjcyODMzMDgsLTAuMjc3NDU5IDAuMTA0MDQ3MywtMC4wMzQ2OCAwLjIwODA5NDUsMC4wMzQ2OCAwLjMxMjE0MTgsMCAwLjA2OTM2NSwwIDAuMTA0MDQ3MiwwIDAuMTczNDEyMSwwLjAzNDY4IC0wLjM4MTUwNjYsMCAtMC41MjAyMzYzLDAuMTA0MDQ3IC0wLjY1ODk2NiwwLjIwODA5NSBtIDAuMzgxNTA2NiwtMS4yODMyNSBjIC0wLjAzNDY4MiwtMC4wMzQ2OCAwLjA2OTM2NSwwIDAuMDY5MzY1LC0wLjAzNDY4IEggOC41OTcxOTI3IGMgLTAuMDM0NjgzLDAgLTAuMDM0NjgzLC0wLjAzNDY4IC0wLjAzNDY4MywtMC4wMzQ2OCAtMC4xMDQwNDcyLDAuMDM0NjggLTAuMjA4MDk0NSwwLjA2OTM2IC0wLjMxMjE0MTcsMC4wNjkzNiAtMC4xMzg3Mjk3LDAuMDM0NjggLTAuMjQyNzc3LDAuMTM4NzMgLTAuMzgxNTA2NiwwLjE3MzQxMiAtMC4yMDgwOTQ2LDAuMDY5MzYgLTAuMzgxNTA2NiwwLjI0Mjc3NyAtMC41ODk2MDEyLDAuMzEyMTQyIC0wLjAzNDY4MiwwIC0wLjAzNDY4MiwtMC4wMzQ2OCAtMC4wMzQ2ODIsLTAuMDM0NjggMC4wMzQ2ODIsLTAuMDY5MzYgMC4xMDQwNDczLC0wLjA2OTM2IDAuMTM4NzI5NywtMC4xMzg3MyAwLC0wLjAzNDY4IDAsLTAuMDM0NjggLTAuMDM0NjgyLC0wLjAzNDY4IDAuMTM4NzI5NywtMC4yMDgwOTUgMC4zNDY4MjQyLC0wLjMxMjE0MiAwLjU1NDkxODcsLTAuNDg1NTU0IHYgLTAuMDY5MzcgYyAwLjA2OTM2NSwtMC4wNjkzNiAwLjEzODcyOTcsLTAuMTA0MDQ3IDAuMTczNDEyMSwtMC4yMDgwOTUgMC4wMzQ2ODIsLTAuMDY5MzYgMC4xMDQwNDcyLC0wLjEzODcyOSAwLjE3MzQxMjEsLTAuMTczNDEyIC0wLjAzNDY4MiwtMC4wMzQ2OCAtMC4wNjkzNjUsLTAuMDM0NjggLTAuMDY5MzY1LC0wLjA2OTM3IC0wLjA2OTM2NSwwIC0wLjEzODcyOTYsMC4wMzQ2OCAtMC4yMDgwOTQ1LC0wLjAzNDY4IDAuMDM0NjgyLC0wLjAzNDY4IDAuMDY5MzY1LC0wLjA2OTM3IDAuMTA0MDQ3MywtMC4wNjkzNyAwLDAgLTAuMDM0NjgyLDAgLTAuMDM0NjgyLC0wLjAzNDY4IC0wLjAzNDY4MywtMC4wMzQ2OCAwLjAzNDY4MiwtMC4wNjkzNiAwLjEwNDA0NzIsLTAuMTA0MDQ4IDAuMDY5MzY1LC0wLjAzNDY4IDAuMTczNDEyMSwtMC4wMzQ2OCAwLjIwODA5NDUsLTAuMDY5MzYgLTAuMTM4NzI5NiwtMC4wMzQ2OCAtMC4yNzc0NTkzLDAuMDM0NjggLTAuNDE2MTg5LC0wLjAzNDY4IDAuMTA0MDQ3MywtMC4yNDI3NzcgMC4yNDI3NzY5LC0wLjQ1MDg3MSAwLjQ1MDg3MTQsLTAuNTU0OTE5IDAuMDM0NjgzLDAgMC4wNjkzNjUsMCAwLjA2OTM2NSwwLjAzNDY4IDAsMC4xMDQwNDcgLTAuMDY5MzY1LDAuMTczNDEyIC0wLjEzODcyOTcsMC4xNzM0MTIgMC4xMzg3Mjk3LDAuMDM0NjggMC4zMTIxNDE4LDAuMDM0NjggMC40NTA4NzE1LDAuMTA0MDQ3IC0wLjAzNDY4MywwLjAzNDY4IC0wLjA2OTM2NSwwLjAzNDY4IC0wLjA2OTM2NSwwLjAzNDY4IDAuMTA0MDQ3MywwLjA2OTM2IDAuMjA4MDk0NSwwLjAzNDY4IDAuMzEyMTQxOCwwLjEwNDA0NyAtMC4wNjkzNjUsMC4wNjkzNiAtMC4xMDQwNDczLDAgLTAuMTczNDEyMSwwIDAuNTg5NjAxMSwwLjE3MzQxMiAxLjE3OTIwMTgsMC4zMTIxNDIgMS42NjQ3NTU4LDAuNjU4OTY2IC0wLjQxNjE4OSwwLjIwODA5NCAtMC44MzIzNzgsMC4zMTIxNDIgLTEuMjgzMjQ5MiwwLjM4MTUwNiAtMC4wNjkzNjUsMCAtMC4xMDQwNDczLDAgLTAuMTM4NzI5NywtMC4wMzQ2OCAwLDAuMDM0NjggMCwwLjA2OTM3IC0wLjAzNDY4MiwwLjA2OTM3IC0wLjA2OTM2NSwwIC0wLjEzODcyOTcsMCAtMC4xNzM0MTIxLDAuMDM0NjggLTAuMDM0NjgyLDAuMTA0MDQ4IC0wLjEzODcyOTcsMC4xMDQwNDggLTAuMTczNDEyMSwwLjA2OTM2IiBmaWxsPSIjMDAwMDkxIiBpZD0icGF0aDEwIiBzdHlsZT0ic3Ryb2tlLXdpZHRoOjAuMzQ2ODI0Ii8+JiN4YTsgICAgPHBhdGggZD0iTSAyNy43NzY1NywwLjYgSCAxNy4yMzMxMTUgYyAwLDAgMC4wMzQ2OCwwIDAuMTA0MDQ3LDAuMDM0NjgyIDAuMDY5MzcsMC4wMzQ2ODIgMC4yMDgwOTQsMC4xMDQwNDczIDAuMjc3NDU5LDAuMTM4NzI5NyAwLjEzODczLDAuMDY5MzY1IDAuMjc3NDYsMC4xNzM0MTIxIDAuMzQ2ODI0LDAuMzEyMTQxOCAwLjAzNDY4LDAuMDY5MzY1IDAuMTA0MDQ4LDAuMTczNDEyMSAwLjA2OTM3LDAuMjQyNzc2OSAtMC4wMzQ2OCwwLjEwNDA0NzMgLTAuMDY5MzcsMC4yNDI3NzY5IC0wLjEzODcyOSwwLjI3NzQ1OTMgLTAuMTA0MDQ4LDAuMDY5MzY1IC0wLjI0Mjc3NywwLjA2OTM2NSAtMC4zODE1MDcsMC4wMzQ2ODIgLTAuMDY5MzcsMCAtMC4xMzg3MywtMC4wMzQ2ODIgLTAuMjA4MDk1LC0wLjAzNDY4MiAwLjI3NzQ2LDAuMTA0MDQ3MyAwLjU1NDkxOSwwLjI0Mjc3NyAwLjcyODMzMSwwLjQ4NTU1MzkgMC4wMzQ2OCwwLjAzNDY4MiAwLjEwNDA0NywwLjA2OTM2NSAwLjE3MzQxMiwwLjA2OTM2NSAwLjAzNDY4LDAgMC4wMzQ2OCwwLjAzNDY4MiAwLjAzNDY4LDAuMDY5MzY1IC0wLjAzNDY4LDAuMDM0NjgyIC0wLjA2OTM2LDAuMDY5MzY1IC0wLjA2OTM2LDAuMTA0MDQ3MiBoIDAuMDY5MzYgYyAwLjEwNDA0NywtMC4wMzQ2ODIgMC4wNjkzNywtMC4yMDgwOTQ1IDAuMjA4MDk0LC0wLjE3MzQxMiAwLjEwNDA0OCwwLjA2OTM2NSAwLjEzODczLDAuMTczNDEyIDAuMDY5MzYsMC4yNzc0NTkzIC0wLjA2OTM2LDAuMDY5MzY1IC0wLjEzODczLDAuMTM4NzI5NyAtMC4yMDgwOTQsMC4xNzM0MTIxIC0wLjAzNDY4LDAuMDM0NjgyIC0wLjAzNDY4LDAuMTA0MDQ3MyAwLDAuMTM4NzI5NyAwLjA2OTM2LDAuMDY5MzY1IDAuMDY5MzYsMC4xMzg3Mjk2IDAuMTA0MDQ3LDAuMjA4MDk0NSAwLjA2OTM2LDAuMTM4NzI5NyAwLjA2OTM2LDAuMjc3NDU5MyAwLjEzODczLDAuNDE2MTg5IDAuMDY5MzYsMC4yNzc0NTk0IDAuMTM4NzI5LDAuNTU0OTE4NyAwLjEzODcyOSwwLjgzMjM3ODUgMCwwLjEzODcyOSAtMC4wNjkzNywwLjI3NzQ1OSAtMC4wMzQ2OCwwLjQxNjE4OSAwLjAzNDY4LDAuMTM4NzI5IDAuMTM4NzI5LDAuMjc3NDU5IDAuMjA4MDk0LDAuMzgxNTA2IDAuMDY5MzcsMC4xMDQwNDggMC4xMzg3MywwLjE3MzQxMiAwLjIwODA5NSwwLjMxMjE0MiAwLjEwNDA0NywwLjE3MzQxMiAwLjMxMjE0MiwwLjM4MTUwNyAwLjIwODA5NCwwLjU4OTYwMSAtMC4wNjkzNiwwLjEzODczIC0wLjI3NzQ1OSwwLjEwNDA0NyAtMC4zODE1MDYsMC4xNzM0MTIgLTAuMTA0MDQ4LDAuMTA0MDQ4IC0wLjAzNDY4LDAuMjQyNzc3IDAuMDM0NjgsMC4zNDY4MjQgMC4xMDQwNDcsMC4xNzM0MTMgLTAuMTA0MDQ3LDAuMjc3NDYgLTAuMjQyNzc3LDAuMzQ2ODI1IDAuMDM0NjgsMC4wNjkzNyAwLjEwNDA0NywwLjAzNDY4IDAuMTM4NzMsMC4wNjkzNyAwLjAzNDY4LDAuMTA0MDQ3IDAuMTA0MDQ3LDAuMTM4NzI5IDAuMDY5MzcsMC4yNDI3NzYgLTAuMDY5MzcsMC4xMDQwNDggLTAuMzEyMTQyLDAuMTczNDEzIC0wLjE3MzQxMiwwLjM0NjgyNSAwLjA2OTM2LDAuMTM4NzI5IDAuMDM0NjgsMC4yNzc0NTkgLTAuMDM0NjgsMC40MTYxODkgLTAuMDY5MzcsMC4xNzM0MTIgLTAuMjA4MDk0LDAuMjQyNzc3IC0wLjM0NjgyNCwwLjI3NzQ1OSAtMC4xMDQwNDcsMC4wMzQ2OCAtMC4yNDI3NzcsMC4wMzQ2OCAtMC4zNDY4MjQsMC4wMzQ2OCAtMC4wMzQ2OCwtMC4wMzQ2OCAtMC4wNjkzNywtMC4wMzQ2OCAtMC4xMDQwNDcsLTAuMDM0NjggLTAuMzEyMTQyLC0wLjAzNDY4IC0wLjYyNDI4NCwtMC4xMzg3MyAtMC45MzY0MjYsLTAuMTM4NzMgLTAuMTA0MDQ3LDAuMDM0NjggLTAuMTczNDEyLDAuMDM0NjggLTAuMjQyNzc3LDAuMDY5MzYgLTAuMDY5MzYsMC4wNjkzNyAtMC4xNzM0MTIsMC4xMzg3MyAtMC4yMDgwOTQsMC4yMDgwOTUgLTAuMDM0NjgsMC4wNjkzNyAtMC4wMzQ2OCwwLjAzNDY4IC0wLjAzNDY4LDAuMDM0NjggMCwwIDAsMC4wMzQ2OCAtMC4wMzQ2OCwwLjAzNDY4IHYgMC4wMzQ2OCBjIC0wLjA2OTM2LDAuMDY5MzYgLTAuMTA0MDQ3LDAuMTM4NzMgLTAuMTM4NzMsMC4yMDgwOTQgdiAwLjAzNDY4IGMgLTAuMDY5MzcsMC4xMDQwNDcgLTAuMTA0MDQ3LDAuMjQyNzc3IC0wLjEzODcyOSwwLjM0NjgyNCAtMC4xMzg3MywwLjQxNjE4OSAtMC4wNjkzNiwwLjc5NzY5NiAwLjAzNDY4LDAuODY3MDYxIDAuMDM0NjgsMC4wMzQ2OCAwLjYyNDI4NCwwLjIwODA5NDEgMS4wMDU3OSwwLjM4MTUwNjEgMC4yMDgwOTUsMC4wNjkzNyAwLjMxMjE0MiwwLjEzODczIDAuNDUwODcyLDAuMjA4MDk1IEggMjguMDE5MzQ3IFYgMC42IFoiIGZpbGw9IiNlMTAwMGYiIGlkPSJwYXRoMTIiIHN0eWxlPSJzdHJva2Utd2lkdGg6MC4zNDY4MjQiLz4mI3hhOyAgICA8cGF0aCBkPSJtIDE3Ljg1NzM5OCw0LjE3MjI4ODkgYyAwLjA2OTM3LDAuMDM0NjggMC4xNzM0MTIsMC4wMzQ2OCAwLjE3MzQxMiwwLjA2OTM2IC0wLjAzNDY4LDAuMTM4NzMgLTAuMjQyNzc3LDAuMTczNDEyIC0wLjM4MTUwNiwwLjM0NjgyNCBoIC0wLjAzNDY4IGMgLTAuMDY5MzYsMC4wMzQ2OCAtMC4wMzQ2OCwwLjEzODczIC0wLjEwNDA0NywwLjEzODczIC0wLjA2OTM3LC0wLjAzNDY4IC0wLjEwNDA0NywwIC0wLjE3MzQxMiwwLjAzNDY4IDAuMDY5MzcsMC4wNjkzNiAwLjE3MzQxMiwwLjEzODczIDAuMjc3NDU5LDAuMTA0MDQ4IDAuMDM0NjgsMCAwLjA2OTM3LDAuMDM0NjggMC4wNjkzNywwLjA2OTM2IDAsMCAwLjAzNDY4LDAgMC4wMzQ2OCwtMC4wMzQ2OCAwLjAzNDY4LDAgMC4wMzQ2OCwwIDAuMDM0NjgsMC4wMzQ2OCB2IDAuMDM0NjggYyAtMC4wNjkzNywwLjA2OTM2IC0wLjEzODczLDAuMDM0NjggLTAuMjA4MDk1LDAuMDY5MzYgMC4xMzg3MywwLjAzNDY4IDAuMzEyMTQyLDAuMDM0NjggMC40MTYxODksMCAwLjEwNDA0OCwtMC4wMzQ2OCAwLC0wLjIwODA5NSAwLjA2OTM3LC0wLjMxMjE0MiAtMC4wMzQ2OCwwIDAsLTAuMDY5MzYgLTAuMDM0NjgsLTAuMDY5MzYgMC4wMzQ2OCwtMC4wMzQ2OCAwLjA2OTM2LC0wLjEwNDA0NyAwLjEwNDA0NywtMC4xMDQwNDcgMC4wMzQ2OCwwIDAuMTA0MDQ3LC0wLjAzNDY4IDAuMTA0MDQ3LC0wLjA2OTM3IDAsLTAuMDM0NjggLTAuMDY5MzcsLTAuMDY5MzYgLTAuMDY5MzcsLTAuMTA0MDQ3IDAuMTA0MDQ4LC0wLjA2OTM2IDAuMjA4MDk1LC0wLjE3MzQxMiAwLjE3MzQxMywtMC4zMTIxNDIgLTAuMDM0NjgsLTAuMDY5MzY1IC0wLjE3MzQxMywtMC4wNjkzNjUgLTAuMjc3NDYsLTAuMTA0MDQ3MyAtMC4xMDQwNDcsLTAuMDM0NjgyIC0wLjIwODA5NCwwIC0wLjMxMjE0MiwwLjAzNDY4MiAtMC4xMDQwNDcsMCAtMC4xNzM0MTIsMC4wNjkzNjUgLTAuMjc3NDU5LDAuMDY5MzY1IC0wLjEzODczLDAuMDM0NjgyIC0wLjI0Mjc3NywwLjEwNDA0NzMgLTAuMzQ2ODI0LDAuMTczNDEyMyAwLjEzODczLC0wLjA2OTM2IDAuMjc3NDU5LC0wLjA2OTM2IDAuNDE2MTg5LC0wLjEwNDA0NzUgMC4xMzg3MywwLjAzNDY4MyAwLjIwODA5NCwwIDAuMzQ2ODI0LDAuMDM0NjgzIiBmaWxsPSIjOWM5YjliIiBpZD0icGF0aDE0IiBzdHlsZT0ic3Ryb2tlLXdpZHRoOjAuMzQ2ODI0Ii8+JiN4YTsgIDwvZz4mI3hhOzwvc3ZnPg==;" parent="1" vertex="1">
          <mxGeometry x="496" y="80" width="183.65" height="96" as="geometry" />
        </mxCell>
        <mxCell id="-7yChWT8dKWjbDVSSNWg-10" style="edgeStyle=orthogonalEdgeStyle;rounded=1;orthogonalLoop=1;jettySize=auto;html=1;entryX=0;entryY=0.5;entryDx=0;entryDy=0;" edge="1" parent="1" source="yoqmSqxD06JZfrdyBwhe-50" target="-7yChWT8dKWjbDVSSNWg-5">
          <mxGeometry relative="1" as="geometry" />
        </mxCell>
        <mxCell id="-7yChWT8dKWjbDVSSNWg-11" style="edgeStyle=orthogonalEdgeStyle;rounded=1;orthogonalLoop=1;jettySize=auto;html=1;entryX=0;entryY=0.5;entryDx=0;entryDy=0;" edge="1" parent="1" source="yoqmSqxD06JZfrdyBwhe-50" target="-7yChWT8dKWjbDVSSNWg-6">
          <mxGeometry relative="1" as="geometry" />
        </mxCell>
        <mxCell id="-7yChWT8dKWjbDVSSNWg-12" style="edgeStyle=orthogonalEdgeStyle;rounded=1;orthogonalLoop=1;jettySize=auto;html=1;" edge="1" parent="1" source="yoqmSqxD06JZfrdyBwhe-50" target="-7yChWT8dKWjbDVSSNWg-7">
          <mxGeometry relative="1" as="geometry" />
        </mxCell>
        <mxCell id="-7yChWT8dKWjbDVSSNWg-13" style="edgeStyle=orthogonalEdgeStyle;rounded=1;orthogonalLoop=1;jettySize=auto;html=1;entryX=0;entryY=0.5;entryDx=0;entryDy=0;" edge="1" parent="1" source="yoqmSqxD06JZfrdyBwhe-50" target="-7yChWT8dKWjbDVSSNWg-8">
          <mxGeometry relative="1" as="geometry" />
        </mxCell>
        <mxCell id="-7yChWT8dKWjbDVSSNWg-15" style="edgeStyle=orthogonalEdgeStyle;rounded=1;orthogonalLoop=1;jettySize=auto;html=1;entryX=0;entryY=0.5;entryDx=0;entryDy=0;" edge="1" parent="1" source="yoqmSqxD06JZfrdyBwhe-50" target="-7yChWT8dKWjbDVSSNWg-9">
          <mxGeometry relative="1" as="geometry" />
        </mxCell>
        <mxCell id="yoqmSqxD06JZfrdyBwhe-50" value="" style="shape=image;html=1;verticalAlign=top;verticalLabelPosition=bottom;labelBackgroundColor=#ffffff;imageAspect=0;aspect=fixed;image=https://cdn0.iconfinder.com/data/icons/maternity-and-pregnancy-2/512/147_team_Business_communication_hierarchy_people_social_structure-128.png;fontSize=20;" parent="1" vertex="1">
          <mxGeometry x="730" y="348.5" width="69" height="69" as="geometry" />
        </mxCell>
        <mxCell id="-7yChWT8dKWjbDVSSNWg-28" style="edgeStyle=orthogonalEdgeStyle;rounded=1;orthogonalLoop=1;jettySize=auto;html=1;fillColor=#d5e8d4;strokeColor=#82b366;strokeWidth=2;" edge="1" parent="1" source="-7yChWT8dKWjbDVSSNWg-5" target="-7yChWT8dKWjbDVSSNWg-18">
          <mxGeometry relative="1" as="geometry" />
        </mxCell>
        <mxCell id="-7yChWT8dKWjbDVSSNWg-5" value="" style="shape=image;html=1;verticalAlign=top;verticalLabelPosition=bottom;labelBackgroundColor=#ffffff;imageAspect=0;aspect=fixed;image=https://cdn3.iconfinder.com/data/icons/dompicon-glyph-file-format-2/256/file-csv-format-type-128.png;fontSize=20;" vertex="1" parent="1">
          <mxGeometry x="850" y="221" width="54" height="54" as="geometry" />
        </mxCell>
        <mxCell id="-7yChWT8dKWjbDVSSNWg-33" style="edgeStyle=orthogonalEdgeStyle;rounded=1;orthogonalLoop=1;jettySize=auto;html=1;strokeWidth=2;fillColor=#d5e8d4;strokeColor=#82b366;" edge="1" parent="1">
          <mxGeometry relative="1" as="geometry">
            <mxPoint x="904" y="313" as="sourcePoint" />
            <mxPoint x="1090" y="248" as="targetPoint" />
            <Array as="points">
              <mxPoint x="940" y="313" />
              <mxPoint x="940" y="248" />
            </Array>
          </mxGeometry>
        </mxCell>
        <mxCell id="-7yChWT8dKWjbDVSSNWg-6" value="" style="shape=image;html=1;verticalAlign=top;verticalLabelPosition=bottom;labelBackgroundColor=#ffffff;imageAspect=0;aspect=fixed;image=https://cdn3.iconfinder.com/data/icons/dompicon-glyph-file-format-2/256/file-csv-format-type-128.png;fontSize=20;" vertex="1" parent="1">
          <mxGeometry x="850" y="288" width="54" height="54" as="geometry" />
        </mxCell>
        <mxCell id="-7yChWT8dKWjbDVSSNWg-34" style="edgeStyle=orthogonalEdgeStyle;rounded=1;orthogonalLoop=1;jettySize=auto;html=1;strokeWidth=2;fillColor=#d5e8d4;strokeColor=#82b366;" edge="1" parent="1">
          <mxGeometry relative="1" as="geometry">
            <mxPoint x="1090" y="248" as="targetPoint" />
            <mxPoint x="904" y="381.50000000000006" as="sourcePoint" />
            <Array as="points">
              <mxPoint x="940" y="382" />
              <mxPoint x="940" y="248" />
            </Array>
          </mxGeometry>
        </mxCell>
        <mxCell id="-7yChWT8dKWjbDVSSNWg-7" value="" style="shape=image;html=1;verticalAlign=top;verticalLabelPosition=bottom;labelBackgroundColor=#ffffff;imageAspect=0;aspect=fixed;image=https://cdn3.iconfinder.com/data/icons/dompicon-glyph-file-format-2/256/file-csv-format-type-128.png;fontSize=20;" vertex="1" parent="1">
          <mxGeometry x="850" y="356.5" width="54" height="54" as="geometry" />
        </mxCell>
        <mxCell id="-7yChWT8dKWjbDVSSNWg-35" style="edgeStyle=orthogonalEdgeStyle;rounded=1;orthogonalLoop=1;jettySize=auto;html=1;strokeWidth=2;fillColor=#d5e8d4;strokeColor=#82b366;" edge="1" parent="1">
          <mxGeometry relative="1" as="geometry">
            <mxPoint x="1090" y="248" as="targetPoint" />
            <mxPoint x="904" y="450.5" as="sourcePoint" />
            <Array as="points">
              <mxPoint x="940" y="450" />
              <mxPoint x="940" y="248" />
            </Array>
          </mxGeometry>
        </mxCell>
        <mxCell id="-7yChWT8dKWjbDVSSNWg-8" value="" style="shape=image;html=1;verticalAlign=top;verticalLabelPosition=bottom;labelBackgroundColor=#ffffff;imageAspect=0;aspect=fixed;image=https://cdn3.iconfinder.com/data/icons/dompicon-glyph-file-format-2/256/file-csv-format-type-128.png;fontSize=20;" vertex="1" parent="1">
          <mxGeometry x="850" y="425.5" width="54" height="54" as="geometry" />
        </mxCell>
        <mxCell id="-7yChWT8dKWjbDVSSNWg-36" style="edgeStyle=orthogonalEdgeStyle;rounded=1;orthogonalLoop=1;jettySize=auto;html=1;strokeWidth=2;fillColor=#d5e8d4;strokeColor=#82b366;" edge="1" parent="1">
          <mxGeometry relative="1" as="geometry">
            <mxPoint x="1090" y="248" as="targetPoint" />
            <mxPoint x="904" y="523" as="sourcePoint" />
            <Array as="points">
              <mxPoint x="940" y="523" />
              <mxPoint x="940" y="248" />
            </Array>
          </mxGeometry>
        </mxCell>
        <mxCell id="-7yChWT8dKWjbDVSSNWg-9" value="" style="shape=image;html=1;verticalAlign=top;verticalLabelPosition=bottom;labelBackgroundColor=#ffffff;imageAspect=0;aspect=fixed;image=https://cdn3.iconfinder.com/data/icons/dompicon-glyph-file-format-2/256/file-csv-format-type-128.png;fontSize=20;" vertex="1" parent="1">
          <mxGeometry x="850" y="498" width="54" height="54" as="geometry" />
        </mxCell>
        <mxCell id="-7yChWT8dKWjbDVSSNWg-16" value="Notre equipe" style="text;html=1;strokeColor=none;fillColor=none;align=center;verticalAlign=middle;whiteSpace=wrap;rounded=0;fontSize=20;" vertex="1" parent="1">
          <mxGeometry x="752" y="140" width="186" height="50" as="geometry" />
        </mxCell>
        <mxCell id="-7yChWT8dKWjbDVSSNWg-29" style="edgeStyle=orthogonalEdgeStyle;rounded=0;orthogonalLoop=1;jettySize=auto;html=1;" edge="1" parent="1" source="-7yChWT8dKWjbDVSSNWg-18" target="-7yChWT8dKWjbDVSSNWg-19">
          <mxGeometry relative="1" as="geometry" />
        </mxCell>
        <mxCell id="-7yChWT8dKWjbDVSSNWg-18" value="" style="dashed=0;outlineConnect=0;html=1;align=center;labelPosition=center;verticalLabelPosition=bottom;verticalAlign=top;shape=mxgraph.weblogos.json_2" vertex="1" parent="1">
          <mxGeometry x="1090" y="235.29999999999998" width="80.4" height="25.200000000000003" as="geometry" />
        </mxCell>
        <mxCell id="-7yChWT8dKWjbDVSSNWg-32" style="edgeStyle=orthogonalEdgeStyle;rounded=1;orthogonalLoop=1;jettySize=auto;html=1;entryX=0.5;entryY=0;entryDx=0;entryDy=0;entryPerimeter=0;strokeWidth=2;" edge="1" parent="1" source="-7yChWT8dKWjbDVSSNWg-19" target="-7yChWT8dKWjbDVSSNWg-31">
          <mxGeometry relative="1" as="geometry" />
        </mxCell>
        <mxCell id="-7yChWT8dKWjbDVSSNWg-19" value="" style="shape=image;html=1;verticalAlign=top;verticalLabelPosition=bottom;labelBackgroundColor=#ffffff;imageAspect=0;aspect=fixed;image=https://cdn0.iconfinder.com/data/icons/long-shadow-web-icons/512/nodejs-128.png" vertex="1" parent="1">
          <mxGeometry x="1093.7" y="336.4" width="73" height="73" as="geometry" />
        </mxCell>
        <mxCell id="-7yChWT8dKWjbDVSSNWg-31" value="" style="sketch=0;html=1;dashed=0;whitespace=wrap;fillColor=#2875E2;strokeColor=#ffffff;points=[[0.005,0.63,0],[0.1,0.2,0],[0.9,0.2,0],[0.5,0,0],[0.995,0.63,0],[0.72,0.99,0],[0.5,1,0],[0.28,0.99,0]];shape=mxgraph.kubernetes.icon;prIcon=api" vertex="1" parent="1">
          <mxGeometry x="1090.4" y="458.9" width="80" height="76.8" as="geometry" />
        </mxCell>
      </root>
    </mxGraphModel>
  </diagram>
</mxfile>
